<?xml version="1.0" standalone="no"?>
<!DOCTYPE svg PUBLIC "-//W3C//DTD SVG 20010904//EN"
 "http://www.w3.org/TR/2001/REC-SVG-20010904/DTD/svg10.dtd">
<svg version="1.0" xmlns="http://www.w3.org/2000/svg"
 width="512.000000pt" height="512.000000pt" viewBox="0 0 512.000000 512.000000"
 preserveAspectRatio="xMidYMid meet">

<g transform="translate(0.000000,512.000000) scale(0.100000,-0.100000)"
fill="#000000" stroke="none">
<path d="M1277 3633 c-4 -3 -7 -87 -7 -185 l0 -178 35 0 c48 0 97 -22 124 -55
l21 -28 -2 -604 -3 -605 -32 -28 c-23 -21 -46 -30 -87 -35 l-56 -7 0 -149 0
-149 370 0 370 0 0 150 0 149 -62 3 -63 3 -2 610 c-1 336 1 603 6 595 5 -8
111 -351 237 -762 l229 -748 137 0 136 0 16 48 c8 26 112 355 231 732 119 377
220 696 225 710 5 15 9 -214 9 -582 l1 -608 -90 0 -90 0 0 -150 0 -150 460 0
460 0 0 149 0 148 -72 6 c-118 10 -108 -53 -108 671 0 691 -4 656 68 676 20 5
54 10 75 10 l37 0 0 185 0 185 -476 -2 -476 -3 -166 -557 c-91 -307 -169 -558
-172 -558 -3 0 -81 251 -172 558 l-166 557 -469 3 c-258 1 -473 -1 -476 -5z"/>
</g>
</svg>
