<?xml version="1.0" standalone="no"?>
<!DOCTYPE svg PUBLIC "-//W3C//DTD SVG 1.1//EN" "http://www.w3.org/Graphics/SVG/1.1/DTD/svg11.dtd" >
<svg xmlns="http://www.w3.org/2000/svg" xmlns:xlink="http://www.w3.org/1999/xlink" version="1.1">
<metadata>
Created by FontForge 20190801 at Thu Oct 15 08:10:34 2020
 By root
Copyright 2011 The Bitter Project Authors (https://github.com/solmatas/BitterPro)
</metadata>
<defs>
<font id="Bitter-Thin" horiz-adv-x="0" >
  <font-face 
    font-family="Bitter Thin"
    font-weight="100"
    font-stretch="normal"
    units-per-em="1000"
    panose-1="0 0 0 0 0 0 0 0 0 0"
    ascent="800"
    descent="-200"
    x-height="522"
    cap-height="692"
    bbox="-180 -237 1238 983"
    underline-thickness="50"
    underline-position="-125"
    unicode-range="U+000D-FB02"
  />
<missing-glyph horiz-adv-x="495" 
d="M93 -230v991h314v-991h-314zM165 -161h165v31h-101l69 47h32v33h-165v-33h70l-70 -47v-31zM165 -27h165v112h-165v-112zM198 6v47h100v-47h-100zM165 145h165v113h-99v-56h34v23h33v-47h-100v80h-33v-113zM165 278h165v100h-32v-66h-133v-34zM165 335h100v70h65v33h-165
v-33h66v-37h-66v-33zM198 497v36h33v-36h-33zM165 465h165v32h-65v70h-100v-102zM165 593h165v33h-65v37h65v31h-164v-31h65v-37h-66v-33z" />
    <glyph glyph-name="fi" unicode="fi" horiz-adv-x="599" 
d="M46 0v15l97 14l-7 -8v489l7 -7h-97v14l97 5l-7 -9v99q0 80 39.5 118t103.5 38q16 0 33.5 -2.5t36 -7t37.5 -11.5l-6 -17q-28 9 -53.5 14t-48.5 5q-58 0 -90 -33t-32 -101v-102l-7 9l328 3v-504l-7 8l97 -14v-15h-200v15l97 14l-7 -8v493l7 -11h-315l7 7v-489l-7 8
l117 -14v-15h-220zM464 663q-11 0 -18 8t-7 21q0 14 7.5 22t18.5 8q12 0 19 -8t7 -22t-8 -21.5t-19 -7.5z" />
    <glyph glyph-name="fl" unicode="fl" horiz-adv-x="602" 
d="M46 0v15l97 14l-7 -8v485l7 -7h-97v14l97 5l-7 -8v97q0 60 24.5 95.5t68.5 50.5t102 15q29 0 63.5 -4t70.5 -12h-15l29 3v-734l-7 8l97 -14v-15h-200v15l97 14l-7 -8v721l5 -9q-37 8 -72.5 12t-64.5 4q-64 0 -99 -16t-50.5 -40t-18.5 -46.5t-3 -36.5v-100l-7 8h161
l-2 -19h-159l7 7v-485l-7 8l117 -14v-15h-220z" />
    <glyph glyph-name="f_f" unicode="ff" horiz-adv-x="641" 
d="M46 0v15l97 14l-7 -8v485l7 -7h-97v14l97 4l-7 -8v88q0 53 21.5 87t57.5 50.5t81 16.5t93.5 -15t93.5 -44l-8 -18q-43 29 -89 44t-89 15q-58 0 -99.5 -33t-41.5 -100v-91l-7 8l316 1v-19h-316l7 7v-485l-7 8l107 -14v-15h-210zM365 0v15l97 14l-7 -8v591q0 80 39.5 118
t103.5 38q22 0 46.5 -4.5t51.5 -13.5l-6 -17q-26 8 -49 12t-44 4q-58 0 -90 -33t-32 -101v-106l-7 9h162l-2 -19h-160l7 7v-485l-7 8l117 -14v-15h-220z" />
    <glyph glyph-name="f_f_i" unicode="ffi" horiz-adv-x="918" 
d="M46 0v15l97 14l-7 -8v490l7 -7h-97v14l97 4l-7 -8v83q0 53 21.5 87t57.5 50.5t81 16.5t94.5 -15.5t94.5 -44.5l-11 -17q-42 29 -88 44t-89 15q-58 0 -99.5 -33t-41.5 -100v-86l-7 8h315v-19h-315l7 8v-490l-7 8l107 -14v-15h-210zM365 0v15l97 14l-7 -8v591
q0 80 39.5 118t103.5 38q16 0 33.5 -2.5t36 -7t37.5 -11.5l-6 -17q-28 9 -53.5 14t-48.5 5q-58 0 -90 -33t-32 -101v-102l-7 9l328 3v-504l-7 8l97 -14v-15h-200v15l97 14l-7 -8v493l7 -11h-315l7 7v-489l-7 8l117 -14v-15h-220zM783 663q-11 0 -18 8t-7 21q0 14 7.5 22
t18.5 8q12 0 19 -8t7 -22t-8 -21.5t-19 -7.5z" />
    <glyph glyph-name="f_f_l" unicode="ffl" horiz-adv-x="921" 
d="M46 0v15l97 14l-7 -8v485l7 -7h-97v14l97 4l-7 -8v88q0 53 21.5 87t57.5 50.5t81 16.5t94.5 -15.5t94.5 -44.5l-10 -17q-43 29 -89 44t-89 15q-58 0 -99.5 -32.5t-41.5 -100.5v-91l-7 8h328v-18h-328l7 7v-485l-7 8l107 -14v-15h-210zM365 0v15l97 14l-7 -8v586
q0 60 24.5 95.5t68.5 50.5t102 15q29 0 63.5 -4t70.5 -12h-15l29 3v-734l-7 8l97 -14v-15h-200v15l97 14l-7 -8v721l5 -9q-37 8 -73 12t-65 4q-77 0 -123.5 -30.5t-46.5 -108.5v-100l-7 8h146l-2 -19h-144l7 7v-485l-7 8l117 -14v-15h-220z" />
    <glyph glyph-name=".notdef" horiz-adv-x="495" 
d="M93 -230v991h314v-991h-314zM165 -161h165v31h-101l69 47h32v33h-165v-33h70l-70 -47v-31zM165 -27h165v112h-165v-112zM198 6v47h100v-47h-100zM165 145h165v113h-99v-56h34v23h33v-47h-100v80h-33v-113zM165 278h165v100h-32v-66h-133v-34zM165 335h100v70h65v33h-165
v-33h66v-37h-66v-33zM198 497v36h33v-36h-33zM165 465h165v32h-65v70h-100v-102zM165 593h165v33h-65v37h65v31h-164v-31h65v-37h-66v-33z" />
    <glyph glyph-name="NULL" 
 />
    <glyph glyph-name="NULL" 
 />
    <glyph glyph-name="CR" unicode="&#xd;" horiz-adv-x="220" 
 />
    <glyph glyph-name="space" unicode=" " horiz-adv-x="220" 
 />
    <glyph glyph-name="uni00A0" unicode="&#xa0;" horiz-adv-x="220" 
 />
    <glyph glyph-name="A" unicode="A" horiz-adv-x="704" 
d="M605 22l-9 7l102 -14v-15h-234v15l123 14l-4 -7l-66 189l8 -5h-346l10 7l-71 -191l-5 7l122 -14v-15h-229v15l99 14l-8 -7l252 669l19 2zM191 219l-6 6h333l-4 -5l-158 452h4z" />
    <glyph glyph-name="B" unicode="B" horiz-adv-x="644" 
d="M365 354l3 4q66 -2 108 -26t61.5 -63t19.5 -86q0 -50 -23 -91.5t-75 -66.5t-139 -25h-259v15l107 14l-7 -8v649l7 -8l-107 10v15l121 5h144q72 0 117 -21.5t66 -59t21 -86.5q0 -62 -36.5 -108t-128.5 -63zM321 673h-147l7 7v-323l-7 7h119q78 0 125.5 21t68.5 57t21 81
t-19.5 78.5t-60.5 52.5t-107 19zM320 19q79 0 126 22t68 58.5t21 81.5t-19.5 82.5t-60.5 59.5t-107 22h-174l7 7v-340l-7 7h146z" />
    <glyph glyph-name="C" unicode="C" horiz-adv-x="659" 
d="M359 -6q-78 0 -141.5 41t-100.5 119t-37 189q0 112 38 191t106 121.5t156 42.5q46 0 99 -11.5t108 -36.5l-5 -134h-14l-11 130l5 -9q-46 20 -95 30.5t-90 10.5q-81 0 -143 -40t-97 -114.5t-35 -176.5q0 -105 35 -179t95 -113.5t133 -39.5q53 0 110 23t108 71l13 -16
q-55 -50 -116.5 -74.5t-120.5 -24.5z" />
    <glyph glyph-name="D" unicode="D" horiz-adv-x="724" 
d="M344 692q59 0 113 -19.5t96.5 -60.5t67.5 -104.5t25 -152.5q0 -117 -43 -196t-114 -119t-157 -40h-271v15l107 14l-7 -8v649l7 -8l-107 10v15l150 5h133zM332 19q58 0 110.5 20.5t93.5 61.5t64.5 103.5t23.5 146.5q0 82 -22.5 142.5t-61.5 100.5t-89.5 59.5t-107.5 19.5
h-169l7 7v-668l-7 7h158z" />
    <glyph glyph-name="E" unicode="E" horiz-adv-x="634" 
d="M535 141h15v-141h-489v15l107 14l-7 -8v649l7 -8l-107 10v15l121 5h355v-136h-15l-15 124l8 -7h-341l7 7v-322l-7 7h295v-19h-295l7 7v-341l-7 7h354l-8 -7z" />
    <glyph glyph-name="F" unicode="F" horiz-adv-x="566" 
d="M61 0v15l107 14l-7 -8v649l7 -8l-107 10v15l121 5h344v-136h-15l-15 124l8 -7h-330l7 7v-334l-7 7h280v-19h-280l7 7v-320l-7 8l131 -14v-15h-244z" />
    <glyph glyph-name="G" unicode="G" horiz-adv-x="759" 
d="M390 -5q-95 0 -165 38.5t-108 115t-38 188.5q0 115 39.5 195.5t111.5 123t170 42.5q50 0 106.5 -11.5t114.5 -36.5l-5 -134h-15l-10 130l4 -9q-48 18 -102.5 29.5t-102.5 11.5q-88 0 -153 -41.5t-100.5 -118t-35.5 -181.5q0 -157 79 -239.5t213 -82.5q49 0 101.5 11.5
t108.5 33.5l-5 -9v243l7 -7l-107 8v15l215 5v-15l-102 -14l7 8v-249q-61 -25 -118 -37.5t-110 -12.5z" />
    <glyph glyph-name="H" unicode="H" horiz-adv-x="804" 
d="M61 0v15l107 14l-7 -8v650l7 -8l-107 9v15l220 5v-15l-107 -14l7 8v-317l-7 7h457l-7 -7v317l7 -7l-107 8v15l220 5v-15l-107 -14l7 8v-650l-7 8l107 -14v-15h-220v15l107 14l-7 -8v328l7 -7h-457l7 7v-328l-7 8l107 -14v-15h-220z" />
    <glyph glyph-name="I" unicode="I" horiz-adv-x="341" 
d="M281 677l-107 -14l7 8v-650l-7 8l107 -14v-15h-220v15l107 14l-7 -8v650l7 -8l-107 9v15l220 5v-15z" />
    <glyph glyph-name="J" unicode="J" horiz-adv-x="319" 
d="M41 687l230 5v-15l-107 -14l7 8v-668q0 -35 -9 -59t-26 -39t-41 -22t-55 -7q-10 0 -19.5 0.5t-19.5 1.5l2 19q9 -1 17.5 -1.5t18.5 -0.5q58 0 85 25.5t27 82.5v668l7 -7l-117 8v15z" />
    <glyph glyph-name="K" unicode="K" horiz-adv-x="701" 
d="M591 23l-11 5l103 -13v-15h-215v15l103 13l-4 -5l-234 327l13 -5h-172l7 7v-331l-7 8l107 -14v-15h-220v15l107 14l-7 -8v650l7 -8l-107 9v15l220 5v-15l-107 -14l7 8v-314l-7 7h166l-11 -6l193 312l4 -6l-107 8v15l216 5v-15l-103 -14l11 7l-196 -317v11z" />
    <glyph glyph-name="L" unicode="L" horiz-adv-x="547" 
d="M499 145h15v-145h-453v15l107 14l-7 -8v649l7 -8l-107 10v15l235 5v-15l-122 -15l7 8v-658l-7 7h318l-8 -7z" />
    <glyph glyph-name="M" unicode="M" horiz-adv-x="909" 
d="M849 677l-107 -14l7 8v-650l-7 8l107 -14v-15h-220v15l107 14l-7 -8v641l3 -1l-271 -479l-20 -4l-264 486l4 1v-644l-8 8l108 -14v-15h-220v15l107 14l-7 -8v650l7 -8l-107 9v15l125 5l269 -495h-6l275 490l125 5v-15z" />
    <glyph glyph-name="N" unicode="N" horiz-adv-x="812" 
d="M544 687l220 5v-15l-107 -14l7 8v-671h-20l-467 669l4 1v-649l-7 8l107 -14v-15h-220v15l107 14l-7 -8v650l7 -8l-107 9v15l125 5l462 -661l-4 -1v642l7 -7l-107 7v15z" />
    <glyph glyph-name="O" unicode="O" horiz-adv-x="757" 
d="M371 -6q-77 0 -143.5 38t-107.5 115t-41 194q0 90 25 157t68 111.5t97.5 66.5t113.5 22q56 0 109 -20.5t95 -62.5t67 -106.5t25 -152.5q0 -117 -42.5 -197.5t-112.5 -122.5t-153 -42zM372 14q74 0 139 38t105.5 113.5t40.5 187.5q0 109 -38.5 181t-101 108t-135.5 36
t-137.5 -37t-104 -111.5t-39.5 -187.5q0 -111 38 -183.5t100 -108.5t133 -36z" />
    <glyph glyph-name="P" unicode="P" horiz-adv-x="581" 
d="M280 285h-106l7 7v-271l-7 8l132 -14v-15h-245v15l107 14l-7 -8v650l7 -8l-107 9v15l121 5h135q71 0 118.5 -23t72 -66t24.5 -103q0 -67 -30 -115.5t-86 -74t-136 -25.5zM315 673h-141l7 7v-383l-7 7h107q109 0 169 52t60 143q0 81 -49.5 127.5t-145.5 46.5z" />
    <glyph glyph-name="Q" unicode="Q" horiz-adv-x="770" 
d="M677 -154q-31 0 -68.5 17t-95.5 50.5t-151 84.5l11 -4q-79 1 -146 39.5t-107.5 115t-40.5 192.5q0 90 25 157t68.5 111.5t99.5 66.5t117 22q59 0 113 -20.5t96.5 -62.5t67.5 -106.5t25 -152.5q0 -111 -38.5 -189t-104 -121.5t-145.5 -50.5l-2 3q81 -43 131.5 -72.5
t83.5 -44.5t61 -15q23 0 48 10t60 30l10 -15q-38 -22 -65 -33.5t-53 -11.5zM101 342q0 -111 38 -183.5t101.5 -108.5t137.5 -36q77 0 143.5 38t107 113.5t40.5 187.5q0 109 -39 181t-102.5 108t-139.5 36t-141.5 -37t-105.5 -111.5t-40 -187.5z" />
    <glyph glyph-name="R" unicode="R" horiz-adv-x="648" 
d="M61 0v15l107 14l-7 -8v650l7 -8l-107 9v15l121 5h136q106 0 160.5 -44t54.5 -128q0 -80 -51.5 -129.5t-151.5 -57.5l-2 3q39 -6 63 -22t41 -42t35 -64l89 -186l-10 7l78 -14v-15h-83l-93 202q-21 46 -42.5 73t-54.5 39.5t-91 12.5h-86l7 7v-313l-7 8l132 -14v-15h-245z
M181 339l-7 7h108q109 0 169 44t60 129q0 76 -49.5 115t-145.5 39h-142l7 7v-341z" />
    <glyph glyph-name="S" unicode="S" horiz-adv-x="598" 
d="M122 528q0 -46 21 -74.5t55.5 -46t76 -30t82.5 -25.5t75.5 -32.5t55.5 -52t21 -84.5q0 -64 -32.5 -106t-86 -62.5t-117.5 -20.5q-46 0 -94 10.5t-94 31.5l6 139h15l12 -134l-5 10q40 -18 81.5 -27t81.5 -9q57 0 105 18.5t77 55.5t29 92q0 47 -21 76.5t-55.5 47.5
t-75.5 30.5t-82.5 25t-76 31.5t-55.5 50.5t-21 81.5q0 58 29 96.5t79 58t112 19.5q43 0 88 -9.5t88 -29.5l-6 -137h-15l-9 131l8 -9q-34 16 -75 25t-82 9q-50 0 -95 -15t-72.5 -48t-27.5 -87z" />
    <glyph glyph-name="T" unicode="T" horiz-adv-x="558" 
d="M154 0v15l122 14l-7 -8v659l7 -7h-221l8 7l-15 -128h-15v140h492v-140h-15l-15 128l8 -7h-221l7 7v-659l-7 8l122 -14v-15h-250z" />
    <glyph glyph-name="U" unicode="U" horiz-adv-x="755" 
d="M497 687l220 5v-15l-107 -14l7 8v-417q0 -25 -2.5 -58.5t-13.5 -68.5t-36 -65.5t-71 -49t-118 -18.5q-71 0 -116 18t-70 47.5t-35.5 63.5t-13 66t-2.5 56v426l7 -8l-107 9v15l220 5v-15l-107 -14l7 8v-426q0 -24 2 -55t12 -62t33 -57t64 -42t106 -16q66 0 108 16.5
t65.5 44t33.5 60t12 64t2 56.5v417l7 -7l-107 8v15z" />
    <glyph glyph-name="V" unicode="V" horiz-adv-x="677" 
d="M323 -2l-224 672l9 -7l-102 9v15l233 5v-15l-122 -14l3 7l216 -651h-5l227 651l3 -6l-122 8v15l232 5v-15l-102 -14l9 7l-235 -672h-20z" />
    <glyph glyph-name="W" unicode="W" horiz-adv-x="1027" 
d="M791 687l229 5v-15l-101 -14l9 7l-192 -672h-21l-202 664h4l-213 -664h-23l-179 673l9 -8l-104 9v15l234 5v-15l-123 -14l5 8l173 -650l-4 1l214 667l19 3l203 -668h-4l184 646l5 -6l-122 8v15z" />
    <glyph glyph-name="X" unicode="X" horiz-adv-x="684" 
d="M570 21l-11 7l100 -13v-15h-226v15l118 13l-3 -7l-210 327h8l-210 -327l-3 7l119 -13v-15h-226v15l101 13l-11 -7l220 343v-12l-205 318l11 -7l-101 9v15l221 5v-15l-112 -14l3 7l192 -299h-8l196 299l3 -7l-113 9v15l221 5v-15l-102 -14l11 7l-206 -314v12z" />
    <glyph glyph-name="Y" unicode="Y" horiz-adv-x="635" 
d="M207 0v15l107 14l-7 -8v247l4 -17l-213 419l10 -7l-103 9v15l235 5v-15l-125 -14l4 7l202 -395h-6l203 395l4 -6l-124 8v15l232 5v-15l-102 -14l10 7l-215 -419l4 17v-247l-7 8l107 -14v-15h-220z" />
    <glyph glyph-name="Z" unicode="Z" horiz-adv-x="610" 
d="M54 0v16l465 662l3 -6h-423l9 7l-16 -132h-15v145h465v-16l-463 -662l-3 6h451l-12 -7l19 132h15l-4 -145h-491z" />
    <glyph glyph-name="a" unicode="a" horiz-adv-x="534" 
d="M419 19l-7 8l97 -10v-15l-105 -4l-4 96l4 -3q-46 -46 -100.5 -71.5t-105.5 -25.5q-57 0 -92.5 35t-35.5 107q0 59 24 89t64.5 40t89.5 10h158l-7 -7v123q0 63 -36 90.5t-96 27.5q-33 0 -71 -7.5t-78 -22.5l7 11l-7 -98h-17l-8 99q47 18 91.5 27.5t83.5 9.5
q68 0 109.5 -31t41.5 -103v-375zM91 140q0 -65 31 -96t79 -31q45 0 99 25.5t104 71.5l-5 -11v164l7 -7h-156q-85 0 -122 -25.5t-37 -90.5z" />
    <glyph glyph-name="b" unicode="b" horiz-adv-x="568" 
d="M251 -6q-32 0 -68 5.5t-75 15.5v726l9 -10l-99 14v15l110 5v-328l-4 4q46 44 93 65.5t90 21.5q55 0 99.5 -31t71 -89.5t26.5 -142.5q0 -68 -17.5 -119t-50.5 -84.5t-79.5 -50.5t-105.5 -17zM255 13q107 0 167.5 63t60.5 188q0 78 -24 132.5t-64 83.5t-90 29
q-43 0 -89.5 -22.5t-91.5 -69.5l4 15v-410l-5 11q74 -20 132 -20z" />
    <glyph glyph-name="c" unicode="c" horiz-adv-x="509" 
d="M271 -6q-59 0 -106.5 31t-75 89t-27.5 139q0 67 18 118t49.5 86t74 53t90.5 18q31 0 73.5 -9.5t79.5 -32.5l-3 -104h-19l-12 106l5 -9q-34 17 -69 23.5t-59 6.5q-61 0 -107.5 -31t-73 -87.5t-26.5 -135.5q0 -76 25.5 -130t69 -82.5t97.5 -28.5q40 0 84 17t88 51l11 -16
q-49 -37 -96.5 -54.5t-90.5 -17.5z" />
    <glyph glyph-name="d" unicode="d" horiz-adv-x="582" 
d="M261 -6q-54 0 -99 30.5t-71.5 89.5t-26.5 142q0 131 66.5 201.5t178.5 70.5q32 0 66.5 -5.5t71.5 -16.5l-7 -4v237l7 -8l-102 15v14l115 5v-746l-7 8l97 -10v-15l-105 -4l-5 85l4 -3q-46 -43 -92.5 -64.5t-90.5 -21.5zM263 13q43 0 89.5 22.5t91.5 68.5l-4 -12v399l5 -7
q-74 25 -137 25q-105 0 -164 -66t-59 -186q0 -77 24 -132t64.5 -83.5t89.5 -28.5z" />
    <glyph glyph-name="e" unicode="e" horiz-adv-x="546" 
d="M276 -6q-61 0 -109 30t-75.5 88.5t-27.5 141.5t27.5 144.5t78 95.5t118.5 34q63 0 105.5 -28.5t64 -78.5t21.5 -116v-11t-1 -17h-405v19h394l-9 -6q1 59 -15 109t-53.5 80t-101.5 30q-63 0 -108.5 -31.5t-70 -88.5t-24.5 -133q0 -78 25 -132t69 -82.5t100 -28.5
q43 0 91.5 17t98.5 52l11 -15q-54 -37 -105.5 -55t-98.5 -18z" />
    <glyph glyph-name="f" unicode="f" horiz-adv-x="322" 
d="M46 0v15l97 14l-7 -8v485l7 -7h-97v14l97 5l-7 -9v103q0 80 39.5 118t103.5 38q22 0 46.5 -4.5t51.5 -13.5l-6 -17q-26 8 -49 12t-44 4q-58 0 -90 -33t-32 -101v-106l-7 9h162l-2 -19h-160l7 7v-485l-7 8l117 -14v-15h-220z" />
    <glyph glyph-name="g" unicode="g" horiz-adv-x="544" 
d="M270 -236q-110 0 -166 34.5t-56 98.5q0 40 26.5 76t75.5 67l3 -3q-25 0 -36 6t-11 20q0 7 1 13.5t4.5 19.5t12 39t23.5 71l3 -5q-37 22 -56.5 59.5t-19.5 86.5q0 84 52 132.5t141 48.5q54 0 95 -19l-11 2l146 10v-17l-105 -20l4 4q27 -23 41 -56.5t14 -75.5
q0 -84 -51.5 -133t-140.5 -49q-60 0 -105 24l5 5l-36 -154l-5 8h191q92 0 140.5 -35.5t48.5 -103.5q0 -75 -58.5 -114.5t-169.5 -39.5zM270 -217q102 0 154.5 34t52.5 101q0 59 -43 89t-129 30h-143l13 3q-106 -67 -106 -141q0 -57 50.5 -86.5t150.5 -29.5zM260 193
q80 0 125 42.5t45 118.5q0 74 -43 114.5t-122 40.5q-80 0 -124.5 -42t-44.5 -119q0 -73 43 -114t121 -41z" />
    <glyph glyph-name="h" unicode="h" horiz-adv-x="610" 
d="M33 0v15l97 14l-7 -8v718l7 -8l-97 14v15l110 5v-341l-4 3q50 53 105 77t104 24q44 0 78 -17.5t52.5 -52.5t17.5 -90v-347l-7 8l97 -14v-15h-200v15l97 14l-7 -8v342q2 75 -34 110.5t-95 35.5q-46 0 -101 -25.5t-107 -80.5l4 11v-393l-7 8l97 -14v-15h-200z" />
    <glyph glyph-name="i" unicode="i" horiz-adv-x="278" 
d="M156 21l-7 8l97 -14v-15h-200v15l97 14l-7 -8v478l7 -8l-97 14v15l110 5v-504zM138 663q-11 0 -18 8t-7 21q0 14 7.5 22t18.5 8q12 0 19 -8t7 -22t-8 -21.5t-19 -7.5z" />
    <glyph glyph-name="j" unicode="j" horiz-adv-x="251" 
d="M10 -236q-6 0 -14.5 0.5t-17.5 1.5l2 19q9 -1 17 -1.5t15 -0.5q60 0 85 32t25 108v576l7 -8l-97 14v15l110 5v-593q0 -36 -4.5 -66.5t-17.5 -53t-39.5 -35.5t-70.5 -13zM124 663q-11 0 -18 8t-7 21q0 14 7.5 22t18.5 8q12 0 19 -8t7 -22t-8 -21.5t-19 -7.5z" />
    <glyph glyph-name="k" unicode="k" horiz-adv-x="541" 
d="M33 0v15l97 14l-7 -8v718l7 -8l-97 14v15l110 5v-470l-7 7h148l-8 -6l123 206l3 -7l-94 11v14l196 5v-14l-96 -16l10 7l-123 -210l-3 12l166 -280l-10 7l89 -17v-14h-88l-170 289l10 -6h-153l7 7v-269l-7 8l97 -14v-15h-200z" />
    <glyph glyph-name="l" unicode="l" horiz-adv-x="266" 
d="M143 21l-7 8l97 -14v-15h-200v15l97 14l-7 -8v718l7 -8l-97 14v15l110 5v-744z" />
    <glyph glyph-name="m" unicode="m" horiz-adv-x="954" 
d="M494 420l-3 2q50 53 106 79.5t105 26.5q59 0 98.5 -39t39.5 -121v-347l-7 8l97 -14v-15h-200v15l97 14l-7 -8v342q0 75 -33.5 110.5t-85.5 35.5q-46 0 -101 -27t-107 -82l3 8q2 -9 2.5 -19t0.5 -21v-347l-7 8l97 -14v-15h-200v15l97 14l-7 -8v342q0 75 -33.5 110.5
t-85.5 35.5q-46 0 -101 -25.5t-107 -80.5l4 11v-393l-7 8l97 -14v-15h-200v15l97 14l-7 -8v478l7 -8l-97 14v15l105 5l5 -101l-4 3q50 53 105 77t104 24q48 0 84 -26.5t49 -81.5z" />
    <glyph glyph-name="n" unicode="n" horiz-adv-x="623" 
d="M46 0v15l97 14l-7 -8v478l7 -8l-97 14v15l105 5l5 -101l-4 3q50 53 105 77t104 24q66 0 108 -39t40 -121v-347l-7 8l97 -14v-15h-200v15l97 14l-7 -8v342q0 75 -35 110.5t-94 35.5q-46 0 -101 -25.5t-107 -80.5l4 11v-393l-7 8l97 -14v-15h-200z" />
    <glyph glyph-name="o" unicode="o" horiz-adv-x="574" 
d="M293 528q100 0 159 -68t59 -190q0 -82 -28 -144t-80 -97t-126 -35q-98 0 -155.5 65.5t-57.5 189.5q0 85 27.5 147.5t79 97t122.5 34.5zM291 509q-97 0 -151.5 -70.5t-54.5 -187.5q0 -115 51.5 -176.5t142.5 -61.5q67 0 114 32t72 89.5t25 132.5q0 113 -53.5 177.5
t-145.5 64.5z" />
    <glyph glyph-name="p" unicode="p" horiz-adv-x="583" 
d="M33 -230v15l97 14l-7 -8v708l7 -8l-97 14v15l105 5l5 -86l-4 2q46 44 93 65.5t90 21.5q55 0 99.5 -31t71 -89.5t26.5 -142.5q0 -87 -30 -148t-85 -92.5t-130 -31.5q-31 0 -65.5 6t-72.5 16l7 6v-230l-8 8l113 -14v-15h-215zM275 12q105 0 164 66t59 186q0 78 -24 132.5
t-64 83.5t-90 29q-43 0 -89.5 -22.5t-91.5 -69.5l4 13v-402l-5 9q74 -25 137 -25z" />
    <glyph glyph-name="q" unicode="q" horiz-adv-x="567" 
d="M335 -230v15l112 14l-7 -8v292l4 -3q-46 -44 -92.5 -65.5t-90.5 -21.5q-54 0 -99 30.5t-71.5 89.5t-26.5 143q0 88 30 148.5t85 92t130 31.5q35 0 72.5 -6.5t78.5 -19.5v-711l-7 8l97 -14v-15h-215zM263 12q43 0 89.5 22.5t91.5 69.5l-4 -12v401l5 -9q-74 25 -137 25
q-105 0 -164 -66t-59 -186q0 -78 24 -132.5t64.5 -83.5t89.5 -29z" />
    <glyph glyph-name="r" unicode="r" horiz-adv-x="414" 
d="M46 0v15l97 14l-7 -8v478l7 -8l-97 14v15l105 5l5 -101l-4 3q43 47 86 74t95 27q32 0 66 -10l-5 -107h-17l-10 101l5 -8q-9 2 -18.5 3t-18.5 1q-49 0 -94 -28.5t-89 -76.5l4 11v-393l-7 8l117 -14v-15h-220z" />
    <glyph glyph-name="s" unicode="s" horiz-adv-x="475" 
d="M96 400q0 -41 22.5 -64t58.5 -35.5t75.5 -22.5t75.5 -24.5t58.5 -40.5t22.5 -73q0 -49 -27.5 -81.5t-73 -48.5t-100.5 -16q-37 0 -70 5.5t-68 14.5l7 113h14l9 -108l-6 8q26 -6 57 -11t60 -5q50 0 90.5 14t64.5 42.5t24 69.5q0 43 -22.5 66.5t-58.5 37t-75.5 23.5
t-75.5 24t-58.5 39t-22.5 70t24.5 74t64.5 43t86 14q29 0 65.5 -6.5t73.5 -21.5l-3 -89h-15l-13 89l6 -10q-57 19 -116 19q-64 0 -109 -26t-45 -83z" />
    <glyph glyph-name="t" unicode="t" horiz-adv-x="328" 
d="M207 -6q-37 0 -61 23.5t-24 73.5v419l7 -7h-110v14l110 5l-7 -7v127l20 1v-128l-7 7h160l-2 -19h-158l7 7v-416q0 -42 19 -61t50 -19q20 0 43 7t48 20l7 -16q-57 -31 -102 -31z" />
    <glyph glyph-name="u" unicode="u" horiz-adv-x="608" 
d="M261 -6q-66 0 -107 39t-41 121v345l7 -8l-97 14v15l110 5v-366q0 -75 35 -110.5t94 -35.5q47 0 101.5 25.5t106.5 80.5l-4 -11v392l7 -9l-97 14v15l110 5v-502l-7 4l97 -10v-15l-105 -4l-5 100l4 -3q-50 -52 -105 -76.5t-104 -24.5z" />
    <glyph glyph-name="v" unicode="v" horiz-adv-x="509" 
d="M323 520l191 5v-15l-80 -15l9 9l-182 -506h-24l-174 506l9 -9l-77 10v15l195 5v-15l-110 -13l5 7l167 -492h-4l175 492l5 -6l-105 7v15z" />
    <glyph glyph-name="w" unicode="w" horiz-adv-x="767" 
d="M582 520l190 5v-15l-77 -14l9 9l-148 -507h-24l-151 514h5l-155 -514h-24l-144 507l9 -10l-77 10v15l194 5v-15l-109 -13l5 8l137 -493h-4l150 510l30 4l149 -514h-5l141 492l6 -7l-107 8v15z" />
    <glyph glyph-name="x" unicode="x" horiz-adv-x="539" 
d="M9 0v14l91 15l-10 -8l167 250l5 7l161 242l87 5v-15l-88 -16l10 8l-160 -239l-4 -6l-171 -257h-88zM337 0v15l84 11l-3 -5l-158 236l-166 247l10 -7l-83 8v15l180 5v-15l-89 -13l4 7l155 -232l168 -251l-10 5l91 -11v-15h-183z" />
    <glyph glyph-name="y" unicode="y" horiz-adv-x="502" 
d="M21 -233l3 18q8 -1 14.5 -1.5t13.5 -0.5q55 0 88 27.5t55 80.5t44 129v-13l-182 496l9 -6l-72 8v15l190 5v-15l-110 -13l5 6l171 -474h-4l173 474l5 -5l-107 7v15l190 5v-15l-77 -13l9 6l-187 -508q-16 -44 -31 -85t-35 -74t-50.5 -52.5t-78.5 -19.5q-13 0 -36 3z" />
    <glyph glyph-name="z" unicode="z" horiz-adv-x="458" 
d="M405 116l1 -115l-360 -1v15l334 496l4 -7h-308l10 9l-13 -94h-15l-1 103h343v-16l-332 -495l-4 7l322 1l-10 -9l14 106h15z" />
    <glyph glyph-name="zero" unicode="0" horiz-adv-x="648" 
d="M318 -6q-75 0 -126.5 38t-78 114.5t-26.5 193.5q0 121 28.5 200t84 118.5t135.5 39.5q75 0 124.5 -35t74.5 -109t25 -190q0 -124 -28 -206.5t-82 -123t-131 -40.5zM321 14q70 0 117.5 37t72.5 112.5t26 191.5q2 122 -23 192.5t-71 100.5t-110 30q-73 0 -123 -36
t-75.5 -110.5t-25.5 -188.5t25 -186.5t72.5 -107.5t114.5 -35z" />
    <glyph glyph-name="one" unicode="1" horiz-adv-x="381" 
d="M232 23l-7 8l137 -14v-17h-305v17l162 14l-7 -8v650l6 -4l-184 -108l-8 15l192 119h14v-672z" />
    <glyph glyph-name="two" unicode="2" horiz-adv-x="525" 
d="M50 0v21q124 122 208 214t126.5 164.5t42.5 136.5q0 73 -52 107.5t-129 34.5q-34 0 -76.5 -7.5t-86.5 -21.5l6 8l-11 -131h-15l-7 133q51 19 100.5 29t90.5 10q58 0 103.5 -17.5t72 -53t26.5 -89.5q0 -65 -40.5 -137t-123 -164.5t-209.5 -220.5l-2 5h396v-21h-420z" />
    <glyph glyph-name="three" unicode="3" horiz-adv-x="564" 
d="M249 -5q-50 0 -100 14t-95 43l10 19q44 -28 91.5 -42t96.5 -14q58 0 103.5 19.5t72 58.5t26.5 97q0 46 -20 84t-65.5 61t-122.5 23h-80v20h85q95 0 140.5 41t45.5 112q0 80 -48.5 114t-124.5 34q-39 0 -81 -7.5t-83 -20.5l6 8l-11 -132h-15l-7 134q50 17 100.5 27
t95.5 10q56 0 99 -17t67 -53.5t24 -96.5q0 -69 -37 -110t-122 -54v1q88 -6 131.5 -53.5t43.5 -122.5q0 -48 -16.5 -85t-47 -62t-72 -37.5t-90.5 -12.5z" />
    <glyph glyph-name="four" unicode="4" horiz-adv-x="560" 
d="M381 203l7 -7h-366l-5 17l360 488l24 -9v-483l-7 7h145v-20h-145l7 7v-203h-20v203zM388 216l-7 -7v473l4 -1l-346 -471l-3 6h352z" />
    <glyph glyph-name="five" unicode="5" horiz-adv-x="522" 
d="M236 -6q-88 0 -175 45l9 20q42 -22 84 -33t82 -11q62 0 108 24.5t71.5 69t25.5 102.5q0 59 -29.5 96.5t-90.5 55.5t-158 18h-60l14 311h317v-20h-304l7 7l-12 -285l-7 7h58q96 0 159.5 -21.5t95.5 -64.5t32 -108q0 -63 -28.5 -111t-79.5 -75t-119 -27z" />
    <glyph glyph-name="six" unicode="6" horiz-adv-x="582" 
d="M94 299l1 23q53 42 112 62t114 20q56 0 101.5 -21.5t72.5 -65t27 -109.5q0 -65 -27 -113t-76 -74.5t-114 -26.5q-71 0 -121.5 33.5t-77 101t-26.5 169.5q0 122 36.5 211.5t105.5 139t164 49.5q45 0 96 -12l-4 -19q-25 6 -49 8.5t-45 2.5q-92 0 -155 -48t-95.5 -132.5
t-32.5 -196.5q0 -147 54.5 -217t151.5 -70q89 0 141 52.5t52 141.5q0 61 -24.5 100t-65 57.5t-90.5 18.5q-55 0 -114.5 -21.5t-111.5 -63.5z" />
    <glyph glyph-name="seven" unicode="7" horiz-adv-x="467" 
d="M444 674l-283 -674h-23l286 678l6 -6h-376l8 7l-18 -120h-15v133h415v-18z" />
    <glyph glyph-name="eight" unicode="8" horiz-adv-x="601" 
d="M293 -5q-41 0 -78.5 12t-67 35.5t-46.5 57.5t-17 79q0 50 20 85t50.5 57.5t61.5 35.5t52 20l20 -10q-21 -7 -51.5 -20t-60.5 -34t-50 -53.5t-20 -79.5q0 -53 26.5 -90.5t70 -56.5t92.5 -19q53 0 97 21t71 59.5t27 90.5q0 47 -21 77t-56 49t-77 32t-84 26.5t-77 32.5
t-56 49t-21 78q0 57 30 94.5t78 56t102 18.5t100 -18t74 -54.5t28 -90.5q0 -46 -20 -77.5t-50 -51.5t-62 -31.5t-57 -17.5l-13 12q29 9 60.5 21t59 30t44.5 46t17 68q0 49 -25.5 81t-67 48t-89.5 16q-49 0 -92 -16.5t-69.5 -49.5t-26.5 -83q0 -45 21.5 -73t56.5 -45.5
t77 -30.5t83.5 -26.5t76.5 -33.5t56.5 -52t21.5 -82q0 -45 -18 -81t-49 -60.5t-70 -37.5t-82 -13z" />
    <glyph glyph-name="nine" unicode="9" horiz-adv-x="581" 
d="M486 402v-23q-53 -43 -112 -64.5t-115 -21.5q-54 0 -99 20t-72 62t-29 107q-1 67 26 115t76.5 74.5t114.5 26.5q71 0 121.5 -33t77 -100t26.5 -170q0 -118 -35.5 -208t-104 -141t-167.5 -51q-44 0 -95 12l4 19q26 -6 49.5 -8.5t42.5 -2.5q94 0 157 48t95.5 133t32.5 196
q0 147 -54 216.5t-152 69.5q-88 0 -140.5 -51.5t-52.5 -140.5q0 -61 24.5 -99t64.5 -56t88 -18q58 0 117 23.5t111 65.5z" />
    <glyph glyph-name="zero.lf" horiz-adv-x="648" 
d="M318 -6q-75 0 -126.5 38t-78 114.5t-26.5 193.5q0 121 28.5 200t84 118.5t135.5 39.5q75 0 124.5 -35t74.5 -109t25 -190q0 -124 -28 -206.5t-82 -123t-131 -40.5zM321 14q70 0 117.5 37t72.5 112.5t26 191.5q2 122 -23 192.5t-71 100.5t-110 30q-73 0 -123 -36
t-75.5 -110.5t-25.5 -188.5t25 -186.5t72.5 -107.5t114.5 -35z" />
    <glyph glyph-name="one.lf" horiz-adv-x="381" 
d="M232 23l-7 8l137 -14v-17h-305v17l162 14l-7 -8v650l6 -4l-184 -108l-8 15l192 119h14v-672z" />
    <glyph glyph-name="two.lf" horiz-adv-x="525" 
d="M50 0v21q124 122 208 214t126.5 164.5t42.5 136.5q0 73 -52 107.5t-129 34.5q-34 0 -76.5 -7.5t-86.5 -21.5l6 8l-11 -131h-15l-7 133q51 19 100.5 29t90.5 10q58 0 103.5 -17.5t72 -53t26.5 -89.5q0 -65 -40.5 -137t-123 -164.5t-209.5 -220.5l-2 5h396v-21h-420z" />
    <glyph glyph-name="three.lf" horiz-adv-x="564" 
d="M249 -5q-50 0 -100 14t-95 43l10 19q44 -28 91.5 -42t96.5 -14q58 0 103.5 19.5t72 58.5t26.5 97q0 46 -20 84t-65.5 61t-122.5 23h-80v20h85q95 0 140.5 41t45.5 112q0 80 -48.5 114t-124.5 34q-39 0 -81 -7.5t-83 -20.5l6 8l-11 -132h-15l-7 134q50 17 100.5 27
t95.5 10q56 0 99 -17t67 -53.5t24 -96.5q0 -69 -37 -110t-122 -54v1q88 -6 131.5 -53.5t43.5 -122.5q0 -48 -16.5 -85t-47 -62t-72 -37.5t-90.5 -12.5z" />
    <glyph glyph-name="four.lf" horiz-adv-x="560" 
d="M381 203l7 -7h-366l-5 17l360 488l24 -9v-483l-7 7h145v-20h-145l7 7v-203h-20v203zM388 216l-7 -7v473l4 -1l-346 -471l-3 6h352z" />
    <glyph glyph-name="five.lf" horiz-adv-x="522" 
d="M236 -6q-88 0 -175 45l9 20q42 -22 84 -33t82 -11q62 0 108 24.5t71.5 69t25.5 102.5q0 59 -29.5 96.5t-90.5 55.5t-158 18h-60l14 311h317v-20h-304l7 7l-12 -285l-7 7h58q96 0 159.5 -21.5t95.5 -64.5t32 -108q0 -63 -28.5 -111t-79.5 -75t-119 -27z" />
    <glyph glyph-name="six.lf" horiz-adv-x="582" 
d="M94 299l1 23q53 42 112 62t114 20q56 0 101.5 -21.5t72.5 -65t27 -109.5q0 -65 -27 -113t-76 -74.5t-114 -26.5q-71 0 -121.5 33.5t-77 101t-26.5 169.5q0 122 36.5 211.5t105.5 139t164 49.5q45 0 96 -12l-4 -19q-25 6 -49 8.5t-45 2.5q-92 0 -155 -48t-95.5 -132.5
t-32.5 -196.5q0 -147 54.5 -217t151.5 -70q89 0 141 52.5t52 141.5q0 61 -24.5 100t-65 57.5t-90.5 18.5q-55 0 -114.5 -21.5t-111.5 -63.5z" />
    <glyph glyph-name="seven.lf" horiz-adv-x="467" 
d="M444 674l-283 -674h-23l286 678l6 -6h-376l8 7l-18 -120h-15v133h415v-18z" />
    <glyph glyph-name="eight.lf" horiz-adv-x="601" 
d="M293 -5q-41 0 -78.5 12t-67 35.5t-46.5 57.5t-17 79q0 50 20 85t50.5 57.5t61.5 35.5t52 20l20 -10q-21 -7 -51.5 -20t-60.5 -34t-50 -53.5t-20 -79.5q0 -53 26.5 -90.5t70 -56.5t92.5 -19q53 0 97 21t71 59.5t27 90.5q0 47 -21 77t-56 49t-77 32t-84 26.5t-77 32.5
t-56 49t-21 78q0 57 30 94.5t78 56t102 18.5t100 -18t74 -54.5t28 -90.5q0 -46 -20 -77.5t-50 -51.5t-62 -31.5t-57 -17.5l-13 12q29 9 60.5 21t59 30t44.5 46t17 68q0 49 -25.5 81t-67 48t-89.5 16q-49 0 -92 -16.5t-69.5 -49.5t-26.5 -83q0 -45 21.5 -73t56.5 -45.5
t77 -30.5t83.5 -26.5t76.5 -33.5t56.5 -52t21.5 -82q0 -45 -18 -81t-49 -60.5t-70 -37.5t-82 -13z" />
    <glyph glyph-name="nine.lf" horiz-adv-x="581" 
d="M486 402v-23q-53 -43 -112 -64.5t-115 -21.5q-54 0 -99 20t-72 62t-29 107q-1 67 26 115t76.5 74.5t114.5 26.5q71 0 121.5 -33t77 -100t26.5 -170q0 -118 -35.5 -208t-104 -141t-167.5 -51q-44 0 -95 12l4 19q26 -6 49.5 -8.5t42.5 -2.5q94 0 157 48t95.5 133t32.5 196
q0 147 -54 216.5t-152 69.5q-88 0 -140.5 -51.5t-52.5 -140.5q0 -61 24.5 -99t64.5 -56t88 -18q58 0 117 23.5t111 65.5z" />
    <glyph glyph-name="uni00B9" unicode="&#xb9;" horiz-adv-x="258" 
d="M154 363l-6 6l85 -9v-14h-190v14l99 9l-6 -6v383l6 -2l-109 -69l-8 13l116 78h13v-403z" />
    <glyph glyph-name="uni00B2" unicode="&#xb2;" horiz-adv-x="342" 
d="M39 346v19q73 72 123 125.5t76 96t26 79.5q0 45 -30 64t-74 19q-48 0 -98 -18l3 6l-6 -76h-12l-4 82q30 11 60 17.5t58 6.5q52 0 87.5 -23t35.5 -76q0 -30 -14.5 -61t-42.5 -67t-69.5 -80t-95.5 -99l-1 4h235v-19h-257z" />
    <glyph glyph-name="uni00B3" unicode="&#xb3;" horiz-adv-x="362" 
d="M162 342q-31 0 -61.5 9t-57.5 26l9 15q26 -16 53.5 -24t55.5 -8q48 0 82.5 24.5t34.5 77.5q0 40 -26 68t-94 28h-50v17h52q58 0 83.5 23.5t25.5 64.5q0 47 -27.5 66.5t-71.5 19.5q-22 0 -46 -4t-50 -12l4 5l-7 -77h-12l-4 83q32 11 62 16.5t57 5.5q34 0 59.5 -10
t40.5 -32t15 -60q0 -41 -20.5 -65.5t-67.5 -32.5l-1 1q50 -4 74 -32t24 -73q0 -41 -18.5 -68t-49.5 -39.5t-68 -12.5z" />
    <glyph glyph-name="uni2074" unicode="&#x2074;" horiz-adv-x="340" 
d="M214 467l6 -6h-214l-4 16l209 293l22 -5v-292l-6 6h86v-18h-86l6 6v-121h-19v121zM220 479l-6 -6v282l5 -1l-200 -282l-2 7h203z" />
    <glyph glyph-name="ordfeminine" unicode="&#xaa;" horiz-adv-x="437" 
d="M329 335l-10 11l73 -10v-14l-79 -2l-3 69l3 -2q-34 -33 -74.5 -51.5t-76.5 -18.5q-43 0 -71.5 27t-28.5 77q0 41 19 63t49.5 30t65.5 8h118l-5 -5v82q0 42 -27 61t-72 19q-25 0 -53 -5t-58 -16l8 12l-8 -76h-15l-6 77q35 13 69.5 20t63.5 7q55 0 86.5 -22.5t31.5 -74.5
v-266zM83 421q0 -38 22 -61t56 -23t74.5 18.5t77.5 50.5l-4 -14v119l5 -8h-116q-12 0 -31 -1.5t-38.5 -9t-32.5 -24t-13 -47.5zM62 201v19h330v-19h-330z" />
    <glyph glyph-name="ordmasculine" unicode="&#xba;" horiz-adv-x="490" 
d="M236 315q-76 0 -120 49.5t-44 132.5q0 58 21.5 103.5t61.5 71.5t95 26q78 0 123 -51t45 -132q0 -56 -21.5 -101.5t-62.5 -72t-98 -26.5zM82 201v19h326v-19h-326zM239 334q51 0 86.5 23.5t53.5 64t18 90.5q0 75 -39 121t-110 46q-76 0 -115.5 -51t-39.5 -128
q0 -76 38 -121t108 -45z" />
    <glyph glyph-name="onehalf" unicode="&#xbd;" horiz-adv-x="792" 
d="M188 293l-6 6l85 -9v-14h-190v14l99 9l-6 -6v383l6 -2l-109 -69l-8 13l116 78h13v-403zM136 -4l451 700h22l-451 -700h-22zM467 0v19q73 72 123 125.5t76 96t26 79.5q0 45 -30 64t-74 19q-48 0 -98 -18l3 6l-6 -76h-12l-4 82q30 11 60 17.5t58 6.5q52 0 87.5 -23
t35.5 -76q0 -30 -14.5 -61t-42.5 -67t-69.5 -80t-95.5 -99l-1 4h235v-19h-257z" />
    <glyph glyph-name="onequarter" unicode="&#xbc;" horiz-adv-x="770" 
d="M188 293l-6 6l85 -9v-14h-190v14l99 9l-6 -6v383l6 -2l-109 -69l-8 13l116 78h13v-403zM138 -4l451 700h22l-451 -700h-22zM623 121l6 -6h-214l-4 16l209 293l22 -5v-292l-6 6h86v-18h-86l6 6v-121h-19v121zM629 133l-6 -6v282l5 -1l-200 -282l-2 7h203z" />
    <glyph glyph-name="threequarters" unicode="&#xbe;" horiz-adv-x="812" 
d="M162 272q-31 0 -61.5 9t-57.5 26l9 15q26 -16 53.5 -24t55.5 -8q48 0 82.5 24.5t34.5 77.5q0 40 -26 68t-94 28h-50v17h52q58 0 83.5 23.5t25.5 64.5q0 47 -27.5 66.5t-71.5 19.5q-22 0 -46 -4t-50 -12l4 5l-7 -77h-12l-4 83q32 11 62 16.5t57 5.5q34 0 59.5 -10
t40.5 -32t15 -60q0 -41 -20.5 -65.5t-67.5 -32.5l-1 1q50 -4 74 -32t24 -73q0 -41 -18.5 -68t-49.5 -39.5t-68 -12.5zM182 -4l451 700h22l-451 -700h-22zM667 121l6 -6h-214l-4 16l209 293l22 -5v-292l-6 6h86v-18h-86l6 6v-121h-19v121zM673 133l-6 -6v282l5 -1l-200 -282
l-2 7h203z" />
    <glyph glyph-name="dotlessi" unicode="&#x131;" horiz-adv-x="278" 
d="M156 21l-7 8l97 -14v-15h-200v15l97 14l-7 -8v478l7 -8l-97 14v15l110 5v-504z" />
    <glyph glyph-name="uni0237" unicode="&#x237;" horiz-adv-x="251" 
d="M10 -236q-6 0 -14.5 0.5t-17.5 1.5l2 19q9 -1 17 -1.5t15 -0.5q60 0 85 32t25 108v576l7 -8l-97 14v15l110 5v-593q0 -36 -4.5 -66.5t-17.5 -53t-39.5 -35.5t-70.5 -13z" />
    <glyph glyph-name="AE" unicode="&#xc6;" horiz-adv-x="949" 
d="M0 0v15l100 14l-10 -7l353 649l4 -7l-99 8v15l154 5h350v-136h-15l-15 124l8 -7h-336l7 7v-309l-7 7h290v-19h-290l7 7v-354l-7 7h349l-8 -7l15 129h15v-141h-484v15l107 14l-7 -8v212l7 -7h-272l10 6l-114 -210l-4 7l121 -14v-15h-229zM230 239l-4 6h262l-7 -7v442l7 -7
h-29l10 6z" />
    <glyph glyph-name="ae" unicode="&#xe6;" horiz-adv-x="881" 
d="M101 392l-8 99q51 18 95.5 27.5t81.5 9.5q71 0 110 -34t39 -100v-23l-2 3q25 74 79.5 114t127.5 40q91 0 140.5 -61t49.5 -171v-19.5t-1 -12.5h-402l9 9v-17q0 -112 52.5 -177t143.5 -65t188 69l11 -16q-52 -36 -103.5 -54.5t-99.5 -18.5q-63 0 -111.5 31.5t-74.5 88.5
l8 -2q-42 -60 -100 -89t-113 -29q-41 0 -75.5 16t-55 48t-20.5 79q0 76 43 111t136 35h159l-9 -9v117q0 58 -34 87.5t-97 29.5q-31 0 -68.5 -7t-81.5 -22l7 11l-7 -98h-17zM423 120q-13 29 -18.5 65.5t-5.5 87.5l9 -9h-157q-85 0 -122.5 -29t-37.5 -95q0 -63 39 -95t93 -32
q53 0 109 30t95 89zM421 276l-9 7h390l-9 -7q2 114 -41.5 173.5t-128.5 59.5q-89 0 -143.5 -63t-58.5 -170z" />
    <glyph glyph-name="OE" unicode="&#x152;" horiz-adv-x="934" 
d="M367 -2q-78 0 -143.5 37t-105 112.5t-39.5 192.5q0 120 41.5 198.5t111 117t151.5 38.5q10 0 25 -0.5t30.5 -0.5t28.5 -0.5t20 -0.5h350v-136h-15l-15 124l8 -7h-336l7 7v-309l-7 7h290v-19h-290l7 7v-354l-7 7h349l-8 -7l15 129h15v-141h-379q-6 0 -18 -0.5t-27 -0.5
t-30 -0.5t-29 -0.5zM466 14v665l4 -7q-7 1 -22.5 1t-32.5 0.5t-28 0.5q-60 0 -112 -20.5t-91 -61.5t-61 -104t-22 -148q0 -110 36 -181.5t98 -106t140 -34.5q13 0 32 0.5t36.5 1t25.5 1.5z" />
    <glyph glyph-name="oe" unicode="&#x153;" horiz-adv-x="972" 
d="M279 -6q-105 0 -161.5 70.5t-53.5 191.5q2 82 30.5 143t80 94.5t122.5 33.5q82 0 136 -46.5t70 -134.5h-2q20 84 75.5 133t137.5 49q63 0 105.5 -28.5t64 -79t21.5 -116.5v-10.5t-1 -16.5h-400l7 5v-12v-12q0 -78 25 -132.5t69.5 -83t101.5 -28.5q43 0 91 17t97 52
l11 -16q-53 -37 -104.5 -55t-98.5 -18q-77 0 -132.5 48.5t-72.5 136.5h2q-20 -82 -75 -133.5t-146 -51.5zM280 13q66 0 113 31.5t72 89t25 134.5q0 71 -21.5 124.5t-64.5 84.5t-107 31q-66 1 -113.5 -31t-73 -89.5t-25.5 -136.5q0 -72 22.5 -125.5t66 -83t106.5 -29.5z
M513 289l-7 7h384l-7 -7q1 55 -15 105.5t-53 82.5t-103 32q-58 0 -101 -27.5t-68 -77t-30 -115.5z" />
    <glyph glyph-name="eth" unicode="&#xf0;" horiz-adv-x="588" 
d="M277 -6q-68 0 -115.5 30.5t-72.5 87t-25 134.5q0 86 29 149.5t81 98t122 34.5t118.5 -35t75.5 -97h-3q-14 103 -55.5 182.5t-110 125t-164.5 45.5l3 19q91 0 157.5 -38t109.5 -102.5t63.5 -146.5t20.5 -169q0 -82 -17 -142t-48 -99t-74 -58t-95 -19zM277 13
q68 0 115.5 35t72.5 94.5t25 134.5q0 106 -50 169t-144 63q-67 0 -114 -32.5t-72 -90.5t-25 -135q0 -112 51.5 -175t140.5 -63zM228 613l-10 16l241 139l10 -16z" />
    <glyph glyph-name="Thorn" unicode="&#xde;" horiz-adv-x="566" 
d="M61 0v15l107 14l-7 -8v650l7 -8l-107 9v15l220 5v-15l-107 -14l7 8v-122l-7 7h128q106 0 160.5 -51t54.5 -140q0 -102 -66.5 -159t-185.5 -57h-91l7 7v-135l-7 8l132 -14v-15h-245zM181 161l-7 7h92q73 0 124 23.5t78 67.5t27 105q0 54 -22 93t-65.5 59.5t-107.5 20.5
h-126l7 7v-383z" />
    <glyph glyph-name="thorn" unicode="&#xfe;" horiz-adv-x="570" 
d="M20 -230v15l97 14l-7 -8v948l7 -8l-97 14v15l110 5v-326l-4 2q46 44 93 65.5t90 21.5q55 0 99.5 -31t71 -89.5t26.5 -142.5q0 -87 -30 -148t-85 -92.5t-130 -31.5q-31 0 -65.5 6t-72.5 16l7 7v-231l-7 8l112 -14v-15h-215zM262 12q105 0 164 66t59 186q0 78 -24 132.5
t-64 83.5t-90 29q-43 0 -89.5 -22.5t-91.5 -69.5l4 13v-402l-5 9q74 -25 137 -25z" />
    <glyph glyph-name="kgreenlandic" unicode="&#x138;" horiz-adv-x="559" 
d="M46 0v15l97 14l-7 -8v478l7 -8l-97 14v15l110 5v-234l-7 6h148l-9 -5l124 210l3 -7l-97 11v14l199 5v-14l-96 -16l10 7l-124 -214l-1 12l165 -276l-10 7l94 -17v-14h-93l-169 285l9 -7h-153l7 8v-265l-7 8l111 -14v-15h-214z" />
    <glyph glyph-name="uni1E9E" unicode="&#x1e9e;" horiz-adv-x="715" 
d="M440 -6q-34 0 -73.5 6.5t-80.5 18.5l6 118h15l12 -113l-5 8q69 -18 128 -18q83 0 137 45.5t54 136.5q0 69 -33 106.5t-94 54.5t-146 21v19l210 288l1 -12l-398 -1l7 8v-680h-120v15l107 14l-7 -8v649l7 -8l-107 10v15l121 5h403v-21l-206 -284l-2 9q62 -4 113.5 -15
t88.5 -33t57 -59t20 -93q0 -67 -28 -112t-76.5 -67.5t-110.5 -22.5z" />
    <glyph glyph-name="germandbls" unicode="&#xdf;" horiz-adv-x="605" 
d="M326 416q0 -34 18 -56t47 -37.5t61 -30.5t61 -34t47 -47.5t18 -72.5q0 -48 -23.5 -80t-63 -48t-87.5 -16q-27 0 -55.5 5t-57.5 15l7 113l16 -1l9 -106l-5 10q23 -8 46 -12.5t45 -4.5q40 0 73.5 13.5t54 41t20.5 67.5t-18 66t-47 44t-61 33t-61 32t-47 42t-18 63
q0 39 18.5 60.5t46 35.5t54.5 27.5t45.5 34t18.5 57.5q0 40 -21 66t-56.5 39.5t-77.5 13.5q-79 0 -128 -38t-49 -121v-590h-110v15l97 14l-7 -8v485l7 -7h-97v14l97 5l-7 -8v79q0 46 14.5 80t41 56t63 32.5t79.5 10.5q47 0 86.5 -15.5t64 -46t24.5 -76.5q0 -40 -18.5 -62.5
t-45.5 -37t-54.5 -27.5t-46 -32.5t-18.5 -54.5z" />
    <glyph glyph-name="uni018F" unicode="&#x18f;" horiz-adv-x="708" 
d="M338 -6q-72 0 -131.5 35t-95.5 104.5t-36 173.5v9v8h542v-19h-530l10 7q0 -98 33.5 -164.5t89 -100t121.5 -33.5q70 0 130 37.5t96.5 112.5t36.5 187q0 106 -33.5 178.5t-92.5 110t-135 37.5q-58 0 -123.5 -23t-133.5 -70l-11 16q69 50 138 74t131 24q80 0 144 -39
t101 -116t37 -191q0 -120 -40 -199.5t-105.5 -119t-142.5 -39.5z" />
    <glyph glyph-name="uni0259" unicode="&#x259;" horiz-adv-x="546" 
d="M270 528q62 0 109.5 -30t75 -88t27.5 -142q0 -83 -27.5 -144.5t-78 -95.5t-118.5 -34q-63 0 -105.5 28.5t-64 79t-21.5 115.5v15t1 21h405v-19h-394l9 6q-1 -61 15 -112.5t54 -83t101 -31.5q64 0 109 31.5t69.5 88.5t24.5 133q0 78 -25 132.5t-68.5 82.5t-100.5 28
q-43 0 -91.5 -17t-98.5 -52l-11 15q54 38 106 55.5t98 17.5z" />
    <glyph glyph-name="uni00B5" unicode="&#xb5;" horiz-adv-x="648" 
d="M124 154l9 -55q3 -49 4 -104t1 -112.5v-112.5h-20v731l7 -9l-97 13v15l110 2v-363q0 -75 35 -110.5t94 -35.5q47 0 101.5 25.5t106.5 80.5l-4 -11v393l7 -9l-97 13v15l110 2v-499l-7 4l97 -10v-15l-105 -4l-5 100l4 -3q-50 -52 -105 -76.5t-104 -24.5q-63 0 -102.5 39
t-39.5 121z" />
    <glyph glyph-name="dollar" unicode="$" horiz-adv-x="640" 
d="M317 -144v158l5 -8q-6 -1 -13 -1.5t-14 -0.5q-46 0 -94 10.5t-94 31.5l6 139h15l11 -126q39 -17 79.5 -25.5t79.5 -8.5q57 0 105 18t77 53t29 86q0 44 -21 72.5t-55.5 47t-75.5 32t-82.5 27.5t-76 33.5t-55.5 50t-21 77.5q0 53 27 88.5t73 55t102 21.5l-7 -9v146h19v-145
l-9 9h15q29 0 58.5 -4.5t59 -13t58.5 -21.5l-6 -137h-15l-9 125q-32 14 -71 22.5t-79 8.5q-50 0 -94.5 -15t-72 -46t-27.5 -81q0 -43 21 -70.5t55.5 -45.5t76 -31.5t82.5 -27.5t75.5 -34.5t55.5 -52t21 -80.5q0 -56 -28 -94t-74 -59t-100 -26l7 10v-159h-19z" />
    <glyph glyph-name="cent" unicode="&#xa2;" horiz-adv-x="609" 
d="M507 181q-47 -35 -92.5 -52.5t-89.5 -19.5l5 9v-138h-18v138l6 -9q-64 0 -113 29.5t-77 84t-28 126.5q0 74 28.5 129.5t77.5 88t112 35.5l-6 -9v138h18v-137l-9 9q33 0 63.5 -4.5t57.5 -14t50 -23.5l-3 -104h-19l-11 99q-33 16 -67.5 22t-60.5 6q-62 0 -109.5 -30
t-74 -82t-26.5 -120q0 -65 24.5 -115.5t69 -79t102.5 -28.5q43 0 88 17t91 51z" />
    <glyph glyph-name="Euro" unicode="&#x20ac;" horiz-adv-x="759" 
d="M186 403l-5 7h333v-19h-421v19h78l-7 -6q13 140 86 217t195 77q44 0 91.5 -11.5t99.5 -34.5l-5 -131h-15l-11 127l5 -9q-91 39 -168 39q-76 0 -130.5 -32.5t-86 -94t-39.5 -148.5zM162 302l7 -11h-76v19h421v-19h-335l5 13q7 -91 38.5 -155.5t82 -98.5t112.5 -34
q50 0 105 23t110 70l13 -16q-61 -50 -120 -74t-112 -24q-67 0 -121.5 36t-88.5 105t-41 166z" />
    <glyph glyph-name="sterling" unicode="&#xa3;" horiz-adv-x="707" 
d="M97 0v15l98 19l-13 -5q31 22 42.5 63t11.5 91q0 42 -5.5 88t-11.5 92l10 -6h-132v15l130 4l-8 -6q-6 44 -11 85t-5 72q0 63 24.5 100.5t69 54t104.5 16.5q38 0 81.5 -5.5t90.5 -15.5l-5 -134h-15l-11 128l8 -10q-43 9 -81.5 13t-69.5 4q-84 0 -129 -32.5t-45 -115.5
q0 -30 5 -73t11 -87l-10 6h214v-19h-211l8 6q6 -46 11.5 -91.5t5.5 -87.5q0 -55 -13.5 -98.5t-49.5 -66.5l-4 3l367 -3l-10 -9l15 132h15v-142h-482z" />
    <glyph glyph-name="yen" unicode="&#xa5;" horiz-adv-x="744" 
d="M182 261v19h178l-3 -11l-204 401l10 -7l-103 9v15l235 5v-15l-125 -14l4 7l202 -395h-6l203 395l4 -6l-124 8v15l232 5v-15l-102 -14l10 7l-205 -400l-2 10h176v-19h-380zM262 0v15l107 14l-7 -8v146l4 -6h-184v19h380v-19h-186l6 6v-146l-7 8l107 -14v-15h-220z" />
    <glyph glyph-name="florin" unicode="&#x192;" horiz-adv-x="530" 
d="M102 -200q-14 0 -27 1.5t-27 2.5l3 18q27 -3 48 -3q39 0 63.5 11.5t37.5 37.5t17 70l42 473l8 -7h-102v14l102 4l-8 -8l19 212q5 52 21 83t44.5 45t70.5 14q14 0 27 -1t26 -3l-2 -18q-25 3 -47 3q-40 0 -64.5 -12t-37.5 -38t-17 -70l-20 -215l-6 8h161l-1 -18h-160l6 7
l-41 -470q-5 -55 -23 -86t-47 -43t-66 -12z" />
    <glyph glyph-name="franc" unicode="&#x20a3;" horiz-adv-x="677" 
d="M125 0v15l107 14l-7 -8v178l5 -6h-109v19h109l-5 -5v463l7 -8l-107 10v15l121 5h344v-136h-15l-15 124l8 -7h-330l7 7v-307l-7 7h280v-19h-280l7 7v-161l-6 5h146v-19h-146l6 6v-178l-7 8l131 -14v-15h-244z" />
    <glyph glyph-name="lira" unicode="&#x20a4;" horiz-adv-x="726" 
d="M114 0v15l96 18l-23 -12q38 20 52 63.5t14 98.5q0 29 -2.5 60.5t-7.5 64.5l8 -11h-137v19h348v-19h-203l8 11q4 -32 6.5 -63.5t2.5 -60.5q0 -38 -6 -71t-21 -58t-42 -40l-3 7l370 -3l-8 -7l15 130h15v-142h-482zM114 397v19h121l-5 -9q-4 34 -7 66t-3 60q0 61 25 97
t69.5 52t103.5 16q38 0 82 -6t90 -17l-5 -132h-15l-11 130l9 -13q-85 18 -154 18q-79 0 -125.5 -32t-46.5 -110q0 -19 1.5 -39.5t4 -42t5.5 -44.5l-8 6h217v-19h-348z" />
    <glyph glyph-name="uni20A6" unicode="&#x20a6;" horiz-adv-x="964" 
d="M135 0v15l107 14l-7 -8v283h20v-283l-7 8l107 -14v-15h-220zM718 0l-212 304h26l190 -273l-4 -1v274h20v-304h-20zM82 295v19h809v-19h-809zM82 395v19h809v-19h-809zM718 405v267l7 -7l-107 7v15l220 5v-15l-107 -14l7 8v-266h-20zM235 405v266l7 -8l-107 9v15l125 5
l201 -287h-25l-185 264l4 1v-265h-20z" />
    <glyph glyph-name="peseta" unicode="&#x20a7;" horiz-adv-x="682" 
d="M61 0v15l109 14l-9 -10v470l9 -9h-109v19h109l-9 -9v183l9 -10l-109 9v15l121 5h135q71 0 118.5 -23t72 -66t24.5 -103v-10l-9 9h104v-19h-105l9 6q-3 -63 -33.5 -108t-85.5 -69t-132 -24h-108l9 9v-275l-9 10l134 -14v-15h-245zM181 295l-9 9h109q105 0 164.5 48
t63.5 134l9 -6h-346l9 9v-194zM315 673h-143l9 9v-192l-9 9h347l-9 -7q2 84 -47.5 132.5t-147.5 48.5z" />
    <glyph glyph-name="uni20A9" unicode="&#x20a9;" horiz-adv-x="1027" 
d="M281 -2l-85 320l21 -1l79 -296l-4 1l95 297l20 2l-103 -323h-23zM169 418l-67 253l9 -8l-104 9v15l234 5v-15l-123 -14l5 8l68 -255zM50 310v19h923v-19h-923zM857 421l-21 -4l72 253l5 -6l-122 8v15l229 5v-15l-101 -14l9 7zM50 410v19h923v-19h-923zM608 419l-20 -2
l-75 245h4l-78 -242l-19 1l86 268l19 3zM715 -2l-98 322l21 1l90 -297h-4l84 295l20 1l-92 -322h-21z" />
    <glyph glyph-name="dong" unicode="&#x20ab;" horiz-adv-x="726" 
d="M315 -7q-54 0 -99 30.5t-71.5 89.5t-26.5 143q0 131 66.5 201.5t178.5 70.5q32 0 66.5 -5.5t71.5 -16.5l-7 -4v135l5 -5h-230v19h230l-5 -5v116h20v-116l-5 5h95v-19h-95l5 5v-618l-7 8l97 -10v-15l-105 -4l-5 85l4 -3q-46 -44 -92.5 -65.5t-90.5 -21.5zM127 -96v20h477
v-20h-477zM317 12q43 0 89.5 22.5t91.5 69.5l-4 -12v399l5 -7q-74 25 -137 25q-105 0 -164 -66t-59 -186q0 -78 24 -132.5t64.5 -83.5t89.5 -29z" />
    <glyph glyph-name="uni20AD" unicode="&#x20ad;" horiz-adv-x="798" 
d="M114 0v15l109 14l-9 -10v335l9 -9h-109v19h109l-9 -9v318l9 -10l-109 9v15l220 5v-15l-109 -14l9 10v-318l-9 9h156l-14 -8l201 317l4 -9l-109 8v15l220 5v-15l-109 -14l14 9l-200 -316l-4 8h270v-19h-263l4 7l241 -331l-14 8l109 -14v-15h-219v15l104 14l-4 -8l-241 331
l14 -7h-160l9 9v-335l-9 10l109 -14v-15h-220z" />
    <glyph glyph-name="uni20B1" unicode="&#x20b1;" horiz-adv-x="698" 
d="M61 0v15l109 14l-9 -10v410l9 -9h-101v19h553v-19h-112l11 5q-15 -44 -47.5 -75.5t-81 -48t-112.5 -16.5h-108l9 9v-275l-9 10l134 -14v-15h-245zM181 295l-9 9h109q85 0 140 31.5t77 89.5l7 -5h-333l9 9v-134zM69 520v19h101l-9 -9v143l9 -10l-109 9v15l121 5h135
q96 0 149.5 -42t63.5 -117l-10 6h102v-19h-553zM181 530l-9 9h344l-8 -6q-10 66 -58.5 103t-134.5 37h-143l9 9v-152z" />
    <glyph glyph-name="uni20B2" unicode="&#x20b2;" horiz-adv-x="805" 
d="M726 315v-15l-95 -14l9 10v-251q-61 -24 -117 -36t-103 -14l5 9v-148h-19v148l7 -9q-97 -1 -167 37t-107.5 114.5t-37.5 188.5q0 118 40 198t110.5 121.5t160.5 43.5l-6 -9v135h19v-135l-5 9q49 0 106 -11.5t115 -36.5l-5 -134h-15l-10 131l7 -11q-49 19 -104 30.5
t-102 11.5q-84 0 -149.5 -40t-102.5 -116.5t-37 -186.5q0 -156 76.5 -238t207.5 -82q97 0 220 45l-7 -11v247l9 -10l-117 9v15z" />
    <glyph glyph-name="uni20B5" unicode="&#x20b5;" horiz-adv-x="728" 
d="M634 103q-56 -45 -114 -69.5t-113 -28.5l5 9v-158h-19v157l9 -9q-96 0 -164 42.5t-104 118t-36 175.5q0 104 37.5 180.5t105 120t158.5 46.5l-6 -9v146h19v-145l-9 9q56 0 110.5 -11.5t111.5 -36.5l-5 -134h-15l-10 123q-47 17 -96.5 28t-93.5 11q-83 0 -147.5 -40
t-101 -112.5t-36.5 -170.5q0 -99 36.5 -170.5t98.5 -110.5t136 -39q56 0 114 23t116 71z" />
    <glyph glyph-name="uni20B9" unicode="&#x20b9;" horiz-adv-x="671" 
d="M491 0l-106 197q-24 45 -44 71.5t-40 39t-45 16.5t-58 4h-90v19h117q109 0 169 45t60 135q0 27 -8 51l11 -5h-349v19h456v-19h-102l8 6q2 -12 4 -24.5t2 -26.5q0 -85 -50 -135.5t-149 -58.5l-3 2q36 -6 56.5 -23t36.5 -44.5t37 -65.5l103 -183l-13 10l80 -15v-15h-83z
M108 673v19h456v-19h-456z" />
    <glyph glyph-name="uni20BA" unicode="&#x20ba;" horiz-adv-x="690" 
d="M138 0v15l109 14l-9 -10v353l8 -6l-139 -50v20l397 144v-20l-254 -92l8 12v-370l-6 9h6q58 0 113.5 19t100 58.5t71 99t26.5 140.5h21q0 -83 -27.5 -146t-74.5 -105t-107 -63.5t-125 -21.5h-118zM107 420v20l140 51l-9 -12v213h20v-206l-8 6l254 92v-20z" />
    <glyph glyph-name="uni20BC" unicode="&#x20bc;" horiz-adv-x="1005" 
d="M63 0v15l89 14l-9 -12q6 175 40 296.5t86 197t111.5 111.5t115.5 39l-3 -9v142h20v-141l-3 9q56 0 116 -34t111.5 -109.5t85.5 -200t38 -306.5l-9 12l89 -9v-15h-101q-3 173 -34 295t-79.5 198.5t-105.5 112t-111 36.5l3 9v-526h-20v525l3 -9q-53 -3 -109.5 -39.5
t-105.5 -112.5t-81 -197t-37 -292h-100z" />
    <glyph glyph-name="uni20BD" unicode="&#x20bd;" horiz-adv-x="644" 
d="M132 285v19h101l-9 -9v378l9 -10l-109 9v15l121 5h135q106 0 160.5 -51.5t54.5 -140.5q0 -101 -66.5 -158t-185.5 -57h-211zM124 0v15l109 14l-9 -10v176l9 -9h-101v19h313v-19h-210l9 9v-176l-9 10l134 -14v-15h-245zM244 295l-9 9h109q109 0 169 52t60 143
q0 81 -49.5 127.5t-145.5 46.5h-143l9 9v-387z" />
    <glyph glyph-name="colonmonetary" unicode="&#x20a1;" horiz-adv-x="729" 
d="M254 -144l34 175l3 -11q-85 30 -139.5 114t-54.5 209q0 100 36 174.5t99.5 118.5t147.5 51l-8 -10l28 147h19l-30 -156q-78 -3 -139 -44t-96 -112t-35 -167q0 -80 24.5 -143t67.5 -104.5t97 -60.5l-35 -181h-19zM344 -144l32 169h6.5h7.5q56 0 114 23t116 71l13 -16
q-61 -49 -124.5 -73.5t-122.5 -25.5l7 9l-30 -157h-19zM604 506l-11 132l7 -11q-34 13 -70 23t-71 14l31 160h19l-29 -151l-3 10q34 -5 71 -15.5t76 -27.5l-5 -134h-15z" />
    <glyph glyph-name="currency" unicode="&#xa4;" horiz-adv-x="686" 
d="M544 131l-13 -15l-86 80l11 -2q-19 -22 -48.5 -35t-67.5 -13q-37 0 -65.5 12.5t-46.5 33.5l11 2l-85 -79l-12 14l85 79l-4 -11q-16 20 -24 46.5t-8 54.5q0 30 9 58t27 50l3 -11l-88 83l13 15l88 -83l-11 2q20 22 50 35t69 13q36 0 63 -11t45 -31l-11 -2l82 77l12 -14
l-83 -76l3 11q17 -21 25.5 -47.5t8.5 -56.5q0 -31 -9 -59.5t-26 -51.5l-4 11zM342 166q44 0 72.5 19.5t43.5 51t16 66.5q2 59 -30 98t-95 39q-45 0 -75.5 -20t-45.5 -52t-15 -68q0 -55 33 -94.5t96 -39.5z" />
    <glyph glyph-name="exclam" unicode="!" horiz-adv-x="344" 
d="M162 201l-2 491h24l-2 -489zM147 20q0 12 7.5 19t17.5 7q11 0 18 -7t7 -19t-7.5 -19t-17.5 -7q-11 0 -18 7t-7 19z" />
    <glyph glyph-name="exclamdown" unicode="&#xa1;" horiz-adv-x="344" 
d="M182 261l2 -491h-24l2 489zM197 442q0 -12 -7.5 -19t-17.5 -7q-11 0 -18 7t-7 19t7.5 19t17.5 7q11 0 18 -7t7 -19z" />
    <glyph glyph-name="question" unicode="?" horiz-adv-x="387" 
d="M125 211q-1 16 -3 35t-2 30q0 35 19 63.5t46.5 54.5t55 53t46.5 58.5t19 71.5q0 53 -35.5 77.5t-88.5 24.5q-26 0 -55.5 -5.5t-60.5 -16.5l-6 17q63 24 123 24q41 0 73.5 -12.5t51.5 -39t19 -68.5q0 -43 -19 -76t-46.5 -60.5t-55 -53.5t-46.5 -54t-19 -63q0 -9 1 -26.5
t2 -31.5zM123 20q0 12 7.5 19t17.5 7q11 0 18 -7t7 -19t-7.5 -19t-17.5 -7q-11 0 -18 7t-7 19z" />
    <glyph glyph-name="questiondown" unicode="&#xbf;" horiz-adv-x="402" 
d="M258 311q2 -16 3.5 -35t1.5 -30q0 -35 -19 -63.5t-46.5 -54.5t-55 -53t-46.5 -58.5t-19 -71.5q0 -53 35.5 -77.5t88.5 -24.5q26 0 55.5 6t60.5 16l6 -17q-63 -24 -123 -24q-40 0 -73 12.5t-52 39t-19 68.5q0 43 19 76t46.5 60.5t55 53.5t46.5 54t19 63q0 9 -1 26.5
t-2 31.5zM260 502q0 -12 -7.5 -19t-17.5 -7q-11 0 -18 7t-7 19t7.5 19t17.5 7q11 0 18 -7t7 -19z" />
    <glyph glyph-name="comma" unicode="," horiz-adv-x="216" 
d="M70 -103q26 36 34 58.5t8 32.5q0 9 -4 14l-8 10t-4 14q0 13 8 19.5t17 6.5q7 0 12.5 -3t9 -9.5t3.5 -16.5q0 -17 -14.5 -55.5t-50.5 -80.5z" />
    <glyph glyph-name="period" unicode="." horiz-adv-x="190" 
d="M70 26q0 12 7.5 19t17.5 7q11 0 18 -7t7 -19t-7.5 -19t-17.5 -7q-11 0 -18 7t-7 19z" />
    <glyph glyph-name="colon" unicode=":" horiz-adv-x="190" 
d="M70 26q0 12 7.5 19t17.5 7q11 0 18 -7t7 -19t-7.5 -19t-17.5 -7q-11 0 -18 7t-7 19zM70 416q0 12 7.5 19t17.5 7q11 0 18 -7t7 -19t-7.5 -19t-17.5 -7q-11 0 -18 7t-7 19z" />
    <glyph glyph-name="semicolon" unicode=";" horiz-adv-x="216" 
d="M70 -103q26 36 34 58.5t8 32.5q0 9 -4 14l-8 10t-4 14q0 13 8 19.5t17 6.5q7 0 12.5 -3t9 -9.5t3.5 -16.5q0 -17 -14.5 -55.5t-50.5 -80.5zM95 416q0 12 7.5 19t17.5 7q11 0 18 -7t7 -19t-7.5 -19t-17.5 -7q-11 0 -18 7t-7 19z" />
    <glyph glyph-name="ellipsis" unicode="&#x2026;" horiz-adv-x="620" 
d="M70 26q0 12 7.5 19t17.5 7q11 0 18 -7t7 -19t-7.5 -19t-17.5 -7q-11 0 -18 7t-7 19zM285 26q0 12 7.5 19t17.5 7q11 0 18 -7t7 -19t-7.5 -19t-17.5 -7q-11 0 -18 7t-7 19zM500 26q0 12 7.5 19t17.5 7q11 0 18 -7t7 -19t-7.5 -19t-17.5 -7q-11 0 -18 7t-7 19z" />
    <glyph glyph-name="periodcentered" unicode="&#xb7;" horiz-adv-x="190" 
d="M70 333q0 12 7.5 19t17.5 7q11 0 18 -7t7 -19t-7.5 -19t-17.5 -7q-11 0 -18 7t-7 19z" />
    <glyph glyph-name="bullet" unicode="&#x2022;" horiz-adv-x="333" 
d="M98 320q0 22 10 37.5t26 24.5t33 9q21 0 36 -9t23.5 -24.5t8.5 -37.5q0 -21 -9.5 -37t-25 -25t-33.5 -9q-31 0 -50 19.5t-19 51.5z" />
    <glyph glyph-name="underscore" unicode="_" horiz-adv-x="498" 
d="M499 -80v-19h-500v19h500z" />
    <glyph glyph-name="hyphen" unicode="-" horiz-adv-x="470" 
d="M365 303v-19h-260v19h260z" />
    <glyph glyph-name="uni2010" unicode="&#x2010;" horiz-adv-x="430" 
d="M345 303v-19h-260v19h260z" />
    <glyph glyph-name="uni00AD" unicode="&#xad;" horiz-adv-x="430" 
d="M345 303v-19h-260v19h260z" />
    <glyph glyph-name="endash" unicode="&#x2013;" horiz-adv-x="630" 
d="M540 303v-19h-450v19h450z" />
    <glyph glyph-name="emdash" unicode="&#x2014;" horiz-adv-x="880" 
d="M790 301v-19h-700v19h700z" />
    <glyph glyph-name="quotesingle" unicode="'" horiz-adv-x="210" 
d="M97 554l-7 208h30l-7 -208h-16z" />
    <glyph glyph-name="quotedbl" unicode="&#x22;" horiz-adv-x="334" 
d="M97 554l-7 208h30l-7 -208h-16zM221 554l-7 208h30l-7 -208h-16z" />
    <glyph glyph-name="quoteleft" unicode="&#x2018;" horiz-adv-x="180" 
d="M110 633q0 -13 -7.5 -19.5t-16.5 -6.5q-10 0 -18 7.5t-8 22.5q0 16 12.5 53t40.5 83l12 -8q-19 -37 -25 -58.5t-6 -32.5q0 -9 4 -15t8 -11.5t4 -14.5z" />
    <glyph glyph-name="quoteright" unicode="&#x2019;" horiz-adv-x="180" 
d="M75 745q0 13 7.5 19.5t16.5 6.5q10 0 18 -7.5t8 -22.5q0 -16 -12 -53t-41 -83l-12 8q20 37 25.5 59t5.5 32t-4 15.5l-8 11t-4 14.5z" />
    <glyph glyph-name="quotesinglbase" unicode="&#x201a;" horiz-adv-x="180" 
d="M70 20q0 13 7.5 19.5t16.5 6.5q10 0 18 -7.5t8 -22.5q0 -16 -12 -53t-41 -83l-12 8q20 37 25.5 59t5.5 32t-4 15.5l-8 11t-4 14.5z" />
    <glyph glyph-name="quotedblleft" unicode="&#x201c;" horiz-adv-x="296" 
d="M110 650q0 -13 -7.5 -19.5t-16.5 -6.5q-10 0 -18 7.5t-8 22.5q0 16 12.5 53t40.5 83l12 -8q-19 -37 -25 -58.5t-6 -32.5q0 -9 4 -15t8 -11.5t4 -14.5zM226 650q0 -13 -7.5 -19.5t-16.5 -6.5q-10 0 -18 7.5t-8 22.5q0 16 12.5 53t40.5 83l12 -8q-19 -37 -25 -58.5
t-6 -32.5q0 -9 4 -15t8 -11.5t4 -14.5z" />
    <glyph glyph-name="quotedblright" unicode="&#x201d;" horiz-adv-x="296" 
d="M186 745q0 13 7.5 19.5t16.5 6.5q10 0 18 -7.5t8 -22.5q0 -16 -12 -53t-41 -83l-12 8q20 37 25.5 59t5.5 32t-4 15.5l-8 11t-4 14.5zM70 745q0 13 7.5 19.5t16.5 6.5q10 0 18 -7.5t8 -22.5q0 -16 -12 -53t-41 -83l-12 8q20 37 25.5 59t5.5 32t-4 15.5l-8 11t-4 14.5z" />
    <glyph glyph-name="quotedblbase" unicode="&#x201e;" horiz-adv-x="296" 
d="M186 20q0 13 7.5 19.5t16.5 6.5q10 0 18 -7.5t8 -22.5q0 -16 -12 -53t-41 -83l-12 8q20 37 25.5 59t5.5 32t-4 15.5l-8 11t-4 14.5zM70 20q0 13 7.5 19.5t16.5 6.5q10 0 18 -7.5t8 -22.5q0 -16 -12 -53t-41 -83l-12 8q20 37 25.5 59t5.5 32t-4 15.5l-8 11t-4 14.5z" />
    <glyph glyph-name="uni02BC" unicode="&#x2bc;" horiz-adv-x="180" 
d="M75 745q0 13 7.5 19.5t16.5 6.5q10 0 18 -7.5t8 -22.5q0 -16 -12 -53t-41 -83l-12 8q20 37 25.5 59t5.5 32t-4 15.5l-8 11t-4 14.5z" />
    <glyph glyph-name="minute" unicode="&#x2032;" horiz-adv-x="272" 
d="M90 539l62 223h30l-78 -223h-14z" />
    <glyph glyph-name="second" unicode="&#x2033;" horiz-adv-x="380" 
d="M90 539l62 223h30l-78 -223h-14zM198 539l62 223h30l-78 -223h-14z" />
    <glyph glyph-name="parenleft" unicode="(" horiz-adv-x="301" 
d="M268 836q-84 -106 -126.5 -227t-42.5 -237q0 -115 42.5 -236t126.5 -228l-13 -11q-88 107 -132.5 231.5t-44.5 243.5t44.5 244t132.5 231z" />
    <glyph glyph-name="parenright" unicode=")" horiz-adv-x="301" 
d="M33 -92q84 107 126.5 228t42.5 236t-42.5 236t-126.5 228l13 11q89 -107 133 -231.5t44 -243.5t-44 -243.5t-133 -231.5z" />
    <glyph glyph-name="bracketleft" unicode="[" horiz-adv-x="341" 
d="M138 -94v932l184 -5v-16l-164 -2v-886l164 -2v-16z" />
    <glyph glyph-name="bracketright" unicode="]" horiz-adv-x="341" 
d="M203 838v-932l-184 5v16l164 2v886l-164 2v16z" />
    <glyph glyph-name="braceleft" unicode="{" horiz-adv-x="320" 
d="M250 -94q-61 0 -84.5 26.5t-23.5 93.5v229q0 47 -19.5 77t-72.5 30v20q53 0 72.5 30.5t19.5 76.5v229q0 68 24 94t84 26h29v-16q-49 0 -74 -8.5t-34 -32t-9 -68.5v-228q0 -52 -15.5 -77t-38 -32.5t-45.5 -7.5v8q23 0 45.5 -7.5t38 -32t15.5 -77.5v-228q0 -45 9 -68.5
t34 -32t74 -8.5v-16h-29z" />
    <glyph glyph-name="braceright" unicode="}" horiz-adv-x="320" 
d="M70 -94q61 0 84.5 26.5t23.5 93.5v229q0 47 19.5 77t72.5 30v20q-53 0 -72.5 30.5t-19.5 76.5v229q0 68 -24 94t-84 26h-29v-16q49 0 74 -8.5t34 -32t9 -68.5v-228q0 -52 15.5 -77t38.5 -32.5t45 -7.5v8q-22 0 -45 -7.5t-38.5 -32t-15.5 -77.5v-228q0 -45 -9 -68.5
t-34 -32t-74 -8.5v-16h29z" />
    <glyph glyph-name="guillemotleft" unicode="&#xab;" horiz-adv-x="460" 
d="M209 81l-142 179v21l142 179l12 -10l-139 -186v14l139 -187zM367 81l-142 179v21l142 179l12 -10l-139 -186v14l139 -187z" />
    <glyph glyph-name="guillemotright" unicode="&#xbb;" horiz-adv-x="460" 
d="M251 460l142 -179v-21l-142 -179l-12 10l139 186v-14l-139 187zM93 460l142 -179v-21l-142 -179l-12 10l139 186v-14l-139 187z" />
    <glyph glyph-name="guilsinglleft" unicode="&#x2039;" horiz-adv-x="302" 
d="M209 81l-142 179v21l142 179l12 -10l-139 -186v14l139 -187z" />
    <glyph glyph-name="guilsinglright" unicode="&#x203a;" horiz-adv-x="302" 
d="M93 460l142 -179v-21l-142 -179l-12 10l139 186v-14l-139 187z" />
    <glyph glyph-name="plus" unicode="+" horiz-adv-x="595" 
d="M297 358l-9 -9v234h19v-234l-9 9h229v-19h-229l9 9v-234h-19v234l9 -9h-229v19h229z" />
    <glyph glyph-name="minus" unicode="&#x2212;" horiz-adv-x="570" 
d="M502 358v-19h-434v19h434z" />
    <glyph glyph-name="plusminus" unicode="&#xb1;" horiz-adv-x="615" 
d="M307 393l-9 -9v224h19v-224l-9 9h217v-19h-217l9 9v-224h-19v224l9 -9h-216v19h216zM525 67v-19h-434v19h434z" />
    <glyph glyph-name="multiply" unicode="&#xd7;" horiz-adv-x="513" 
d="M94 172l-14 14l169 169v-13l-169 169l14 14l169 -169h-13l169 169l14 -14l-169 -169v13l169 -169l-14 -14l-169 169h13z" />
    <glyph glyph-name="divide" unicode="&#xf7;" horiz-adv-x="570" 
d="M502 358v-19h-434v19h434zM260 196q0 12 7.5 19t17.5 7q11 0 18 -7t7 -19t-7.5 -19t-17.5 -7q-11 0 -18 7t-7 19zM260 507q0 12 7.5 19t17.5 7q11 0 18 -7t7 -19t-7.5 -19t-17.5 -7q-11 0 -18 7t-7 19z" />
    <glyph glyph-name="equal" unicode="=" horiz-adv-x="570" 
d="M502 445v-19h-434v19h434zM502 271v-19h-434v19h434z" />
    <glyph glyph-name="notequal" unicode="&#x2260;" horiz-adv-x="570" 
d="M149 93l-16 10l289 501l16 -10zM68 252v19h434v-19h-434zM68 426v19h434v-19h-434z" />
    <glyph glyph-name="approxequal" unicode="&#x2248;" horiz-adv-x="629" 
d="M431 391q-32 0 -62 12.5t-59 28.5t-57 28.5t-56 12.5q-25 0 -50.5 -13t-51.5 -51l-15 9q23 34 52 53.5t66 19.5q32 0 62 -12.5t59 -28.5t57 -28.5t56 -12.5q26 0 51.5 13.5t51.5 50.5l14 -9q-25 -36 -54 -54.5t-64 -18.5zM431 220q-32 0 -62 12.5t-59 28.5t-57 28.5
t-56 12.5q-25 0 -50.5 -13t-51.5 -51l-15 9q23 34 52 53.5t66 19.5q32 0 62 -12.5t59 -28.5t57 -28.5t56 -12.5q26 0 51.5 13.5t51.5 50.5l14 -9q-25 -36 -54 -54.5t-64 -18.5z" />
    <glyph glyph-name="less" unicode="&#x3c;" horiz-adv-x="578" 
d="M484 148l-412 190v21l412 202l7 -17l-407 -199v8l407 -187z" />
    <glyph glyph-name="greater" unicode="&#x3e;" horiz-adv-x="571" 
d="M86 541l412 -170v-21l-412 -182l-7 17l407 179v-8l-407 167z" />
    <glyph glyph-name="lessequal" unicode="&#x2264;" horiz-adv-x="647" 
d="M516 168l-412 182v21l412 170l7 -17l-407 -167v8l407 -179zM538 67v-19h-434v19h434z" />
    <glyph glyph-name="greaterequal" unicode="&#x2265;" horiz-adv-x="643" 
d="M127 541l412 -170v-21l-412 -182l-7 17l407 179v-8l-407 167zM539 67v-19h-434v19h434z" />
    <glyph glyph-name="uni2219" unicode="&#x2219;" horiz-adv-x="250" 
d="M70 333q0 12 7.5 19t17.5 7q11 0 18 -7t7 -19t-7.5 -19t-17.5 -7q-11 0 -18 7t-7 19z" />
    <glyph glyph-name="logicalnot" unicode="&#xac;" horiz-adv-x="635" 
d="M515 112v237l8 -10h-458v19h470v-246h-20z" />
    <glyph glyph-name="uni2215" unicode="&#x2215;" horiz-adv-x="113" 
d="M-180 -4l451 700h22l-451 -700h-22z" />
    <glyph glyph-name="slash" unicode="/" horiz-adv-x="290" 
d="M280 797l-252 -871h-18l252 871h18z" />
    <glyph glyph-name="backslash" unicode="\" horiz-adv-x="288" 
d="M9 797h19l252 -871h-19z" />
    <glyph glyph-name="fraction" unicode="&#x2044;" horiz-adv-x="113" 
d="M-180 -4l451 700h22l-451 -700h-22z" />
    <glyph glyph-name="percent" unicode="%" horiz-adv-x="823" 
d="M170 -6l464 704h23l-464 -704h-23zM230 352q-79 0 -114.5 46.5t-35.5 122.5q0 80 38 128.5t121 48.5q79 0 112.5 -43.5t33.5 -118.5q0 -84 -37.5 -134t-117.5 -50zM231 371q71 0 101.5 44.5t31.5 114.5q1 72 -28.5 110.5t-97.5 38.5q-73 0 -105 -42.5t-32 -113.5
q0 -70 31.5 -111t98.5 -41zM586 -6q-79 0 -114.5 46.5t-35.5 121.5q0 80 38 128.5t121 48.5q79 0 112.5 -43.5t33.5 -118.5q0 -83 -37.5 -133t-117.5 -50zM587 13q71 0 101.5 44.5t31.5 113.5q1 72 -28.5 110.5t-97.5 38.5q-73 0 -105 -42.5t-32 -113.5q0 -69 31.5 -110
t98.5 -41z" />
    <glyph glyph-name="perthousand" unicode="&#x2030;" horiz-adv-x="1215" 
d="M978 -6q-79 0 -114.5 46.5t-35.5 121.5q0 79 38 127.5t121 48.5q79 0 112.5 -43.5t33.5 -117.5q0 -83 -37.5 -133t-117.5 -50zM979 12q71 0 101.5 44.5t31.5 114.5q1 72 -28.5 110.5t-97.5 38.5q-73 0 -105 -42.5t-32 -113.5q0 -70 31.5 -111t98.5 -41zM170 -6l464 704
h23l-464 -704h-23zM230 342q-79 0 -114.5 46.5t-35.5 121.5q0 79 38 127.5t121 48.5q79 0 112.5 -43.5t33.5 -117.5q0 -83 -37.5 -133t-117.5 -50zM231 360q71 0 101.5 44.5t31.5 114.5q1 72 -28.5 110.5t-97.5 38.5q-73 0 -105 -42.5t-32 -113.5q0 -70 31.5 -111t98.5 -41z
M586 -6q-79 0 -114.5 46.5t-35.5 121.5q0 79 38 127.5t121 48.5q79 0 112.5 -43.5t33.5 -117.5q0 -83 -37.5 -133t-117.5 -50zM587 12q71 0 101.5 44.5t31.5 114.5q1 72 -28.5 110.5t-97.5 38.5q-73 0 -105 -42.5t-32 -113.5q0 -70 31.5 -111t98.5 -41z" />
    <glyph glyph-name="bar" unicode="|" horiz-adv-x="348" 
d="M164 795h20v-886h-20v886z" />
    <glyph glyph-name="brokenbar" unicode="&#xa6;" horiz-adv-x="348" 
d="M164 439v356h20v-356h-20zM164 -91v356h20v-356h-20z" />
    <glyph glyph-name="dagger" unicode="&#x2020;" horiz-adv-x="465" 
d="M232 496l-191 13v13h191l-8 -9l-1 183h20l-2 -183l-8 9h191v-13zM232 -51l-9 11v464l10 -3l10 3l-2 -464z" />
    <glyph glyph-name="daggerdbl" unicode="&#x2021;" horiz-adv-x="465" 
d="M233 496l-192 13v13h191l-8 -9l-1 183h20l-2 -183l-8 9h191v-13zM233 -51l-10 11v348l10 -3l10 3l-2 -348zM233 388l-155 28v13l155 -18l154 18v-13z" />
    <glyph glyph-name="copyright" unicode="&#xa9;" horiz-adv-x="926" 
d="M463 164q-64 0 -108.5 46.5t-44.5 132.5q0 59 21.5 101.5t59 65t84.5 22.5q53 0 109 -28l-2 -82h-17l-8 77l8 -6q-24 11 -46.5 15.5t-42.5 4.5q-65 0 -105 -45t-40 -124t38.5 -120t94.5 -41q29 0 60.5 11.5t62.5 34.5l11 -15q-34 -25 -68.5 -37.5t-66.5 -12.5zM452 -6
q-76 0 -140 25.5t-110 71.5t-71.5 109t-25.5 138q0 78 27 144t76 114.5t115.5 75t144.5 26.5q77 0 142 -26t112.5 -72.5t74 -109.5t26.5 -137q0 -76 -28 -141.5t-78.5 -114.5t-118 -76t-146.5 -27zM454 13q74 0 137.5 25.5t110.5 71t73.5 107.5t26.5 135q0 95 -43.5 168.5
t-119.5 116t-173 42.5q-99 0 -175.5 -44t-120.5 -120t-44 -174q0 -95 41.5 -169t115.5 -116.5t171 -42.5z" />
    <glyph glyph-name="registered" unicode="&#xae;" horiz-adv-x="796" 
d="M261 287v11l58 11l-9 -8v318l9 -8l-58 5v12l68 2h70q58 0 88.5 -21t30.5 -62q0 -34 -27.5 -59.5t-84.5 -30.5v6q32 -4 48 -21.5t31 -46.5l49 -97l-8 9l41 -9v-11h-50l-52 105q-14 30 -28.5 42.5t-31 15t-38.5 2.5h-43l6 8v-159l-6 8l71 -11v-11h-134zM330 464l-6 7h54
q59 0 89 20.5t30 55.5q0 30 -24.5 47t-74.5 17h-74l6 12v-159zM390 173q-82 1 -145 36t-97.5 97t-34.5 144t37.5 146.5t102 102.5t146.5 38q84 0 148.5 -35.5t101 -98t36.5 -143.5q0 -60 -22.5 -112t-62.5 -91.5t-94 -61.5t-116 -22zM391 192q78 0 140 35t98 95.5t36 136.5
t-34 134.5t-94.5 91.5t-138.5 33q-77 0 -137 -34.5t-93.5 -95t-33.5 -137.5t32 -135.5t90 -91t135 -32.5z" />
    <glyph glyph-name="trademark" unicode="&#x2122;" horiz-adv-x="1057" 
d="M171 317v14l79 9l-9 -5v343l9 -5h-132l13 5l-12 -75h-15v89h294v-89h-15l-12 75l12 -5h-129l7 5v-343l-7 5l79 -9v-14h-162zM928 678l-70 -9l9 11v-344l-9 4l70 -9v-14h-152v14l78 9l-6 -4v343h8l-156 -263l-17 -2l-150 265h8v-343l-5 4l77 -9v-14h-151v14l70 9l-8 -4
v344l8 -11l-70 7v14l86 3l150 -265h-10l155 262l85 2v-14z" />
    <glyph glyph-name="degree" unicode="&#xb0;" horiz-adv-x="449" 
d="M194 457q-61 0 -97.5 37t-36.5 99q0 41 17 71t47.5 47t71.5 17q60 0 96.5 -37t36.5 -98t-37 -98.5t-98 -37.5zM195 475q53 0 83.5 31.5t30.5 86.5q1 53 -30.5 85t-83.5 32q-53 0 -84 -31.5t-32 -84.5q1 -54 32.5 -86t83.5 -33z" />
    <glyph glyph-name="asterisk" unicode="*" horiz-adv-x="505" 
d="M338 479l-84 118l3 13l12 -2l89 -113zM171 477l-20 15l89 117l12 1l2 -13zM240 609l-136 36l7 25l135 -44l4 -11zM255 618l-9 8l-6 135l25 1l-1 -136zM269 608l-10 7l5 11l128 44l8 -24z" />
    <glyph glyph-name="numbersign" unicode="#" horiz-adv-x="665" 
d="M110 498h485v-18h-485v18zM72 230h485v-18h-485v18zM253 692h20l-98 -692h-20zM489 692h20l-98 -692h-20z" />
    <glyph glyph-name="ampersand" unicode="&#x26;" horiz-adv-x="709" 
d="M338 -6q-65 0 -115 22.5t-78.5 67.5t-28.5 110q0 43 18.5 81.5t57.5 65.5t99 32v-1q-82 10 -119.5 54t-37.5 97q0 61 26.5 99.5t75 57t113.5 18.5q52 0 96.5 -8.5t87.5 -24.5l-5 -128h-15l-10 124l6 -7q-38 12 -77 18t-85 6q-89 0 -140.5 -35.5t-51.5 -117.5
q0 -64 54.5 -103t154.5 -39h280v-15l-93 -14l7 8v-154q0 -72 -28 -119.5t-77.5 -71t-114.5 -23.5zM340 13q89 0 143.5 47t54.5 145v165l7 -7h-186q-79 0 -128 -24t-71.5 -62t-22.5 -81q0 -88 56.5 -135.5t146.5 -47.5z" />
    <glyph glyph-name="at" unicode="@" horiz-adv-x="880" 
d="M417 -105q-97 0 -168.5 46.5t-110 129t-38.5 189.5q0 86 24.5 155t71 118.5t111.5 75.5t145 26t142.5 -25.5t106 -72t66.5 -110t23 -139.5q0 -100 -40 -160t-111 -60q-43 0 -67.5 23.5t-24.5 72.5l4 -2q-29 -39 -70 -66.5t-87 -27.5q-29 0 -52 12.5t-35.5 37.5t-12.5 60
q0 53 33.5 81.5t113.5 28.5h116l-10 -6v83q0 47 -30 67.5t-74 20.5q-28 0 -60 -8t-61 -23l-7 15q33 17 67.5 26t65.5 9q52 0 85.5 -27.5t33.5 -86.5v-193q0 -40 18.5 -59t55.5 -19q64 0 96 55.5t32 142.5q0 97 -38 171.5t-109.5 117t-171.5 42.5t-174 -43.5t-114.5 -122.5
t-40.5 -188q0 -103 36.5 -181t103.5 -122t158 -44q38 0 79 8t80 24l7 -17q-40 -17 -83.5 -26t-84.5 -9zM397 87q42 0 84.5 28.5t71.5 74.5l-6 -19v105l10 -7h-117q-70 0 -97.5 -23.5t-27.5 -67.5q0 -43 22.5 -67t59.5 -24z" />
    <glyph glyph-name="section" unicode="&#xa7;" horiz-adv-x="589" 
d="M260 -176q-30 0 -63 5.5t-67 15.5l7 113h16l9 -108l-6 9q28 -7 55 -11.5t52 -4.5q68 0 112.5 31.5t44.5 91.5q0 43 -21.5 73t-55.5 53t-72 43.5t-72 43t-55.5 52t-21.5 71.5q0 34 14 61.5t35.5 49t43.5 35.5l14 -11q-20 -11 -40 -30.5t-33 -44.5t-13 -55q0 -39 21.5 -66
t55.5 -48.5t72 -42t72 -44.5t55.5 -57t21.5 -81t-23.5 -80t-64.5 -48t-93 -16zM383 84l-11 12q18 15 35.5 35.5t29 46t11.5 54.5q0 40 -21.5 68.5t-55.5 50.5t-72 42.5t-72 44t-55.5 54.5t-21.5 74q0 62 46.5 97t119.5 35q31 0 66 -7t69 -21l-3 -89h-17l-12 89l6 -9
q-28 8 -56.5 13t-55.5 5q-65 0 -103.5 -29.5t-38.5 -80.5q0 -39 21.5 -67.5t55.5 -50.5t72 -42.5t72 -44t55.5 -55t21.5 -75.5q0 -33 -12.5 -61.5t-32.5 -50.5t-41 -38z" />
    <glyph glyph-name="paragraph" unicode="&#xb6;" horiz-adv-x="554" 
d="M130 -170v15l107 14l-7 -8v520l18 -18q-51 0 -89 21t-58.5 59.5t-20.5 89.5t21 89t59.5 59t89.5 21h225v-15l-107 -14l7 8v-841h-20v851l7 -8l-119 -1l7 9v-851h-120z" />
    <glyph glyph-name="uni2116" unicode="&#x2116;" horiz-adv-x="1280" 
d="M1009 698q77 0 123 -51t46 -137q0 -58 -21.5 -104t-62 -72.5t-97.5 -26.5q-76 0 -120.5 49.5t-44.5 137.5q0 60 21.5 106t61.5 72t94 26zM1007 679q-49 0 -83.5 -23.5t-52.5 -65t-18 -95.5q0 -79 38.5 -124t106.5 -45q76 0 117.5 51.5t41.5 129.5q0 79 -40 125.5
t-110 46.5zM1162 225v-19h-314v19h314zM544 687l220 5v-15l-107 -14l7 8v-671h-20l-467 669l4 1v-649l-7 8l107 -14v-15h-220v15l107 14l-7 -8v650l7 -8l-107 9v15l125 5l462 -661l-4 -1v642l7 -7l-107 7v15z" />
    <glyph glyph-name="asciicircum" unicode="^" horiz-adv-x="547" 
d="M85 522l182 322h14l181 -322h-21l-172 308h9l-173 -308h-20z" />
    <glyph glyph-name="asciitilde" unicode="~" horiz-adv-x="629" 
d="M431 302q-32 0 -62 12.5t-59 28.5t-57 28.5t-56 12.5q-25 0 -50.5 -13t-51.5 -51l-15 9q23 34 52 53.5t66 19.5q32 0 62 -12.5t59 -28.5t57 -28.5t56 -12.5q26 0 51.5 13.5t51.5 50.5l14 -9q-25 -36 -54 -54.5t-64 -18.5z" />
    <glyph glyph-name="Aacute" unicode="&#xc1;" horiz-adv-x="704" 
d="M605 22l-9 7l102 -14v-15h-234v15l123 14l-4 -7l-66 189l8 -5h-346l10 7l-71 -191l-5 7l122 -14v-15h-229v15l99 14l-8 -7l252 669l19 2zM191 219l-6 6h333l-4 -5l-158 452h4zM282 747l-10 15l170 106l17 -28z" />
    <glyph glyph-name="Abreve" unicode="&#x102;" horiz-adv-x="704" 
d="M605 22l-9 7l102 -14v-15h-234v15l123 14l-4 -7l-66 189l8 -5h-346l10 7l-71 -191l-5 7l122 -14v-15h-229v15l99 14l-8 -7l252 669l19 2zM191 219l-6 6h333l-4 -5l-158 452h4zM360 756q-27 0 -53 10.5t-42.5 31t-17.5 50.5l15 2q5 -37 35 -55t64 -18q35 0 63.5 18
t31.5 54l15 1q0 -31 -16 -52t-41.5 -31.5t-53.5 -10.5z" />
    <glyph glyph-name="uni1EAE" unicode="&#x1eae;" horiz-adv-x="704" 
d="M605 22l-9 7l102 -14v-15h-234v15l123 14l-4 -7l-66 189l8 -5h-346l10 7l-71 -191l-5 7l122 -14v-15h-229v15l99 14l-8 -7l252 669l19 2zM191 219l-6 6h333l-4 -5l-158 452h4zM360 736q-27 0 -53 10.5t-42.5 31t-17.5 50.5l15 2q5 -37 35 -55t64 -18q35 0 63.5 18
t31.5 54l15 1q0 -31 -16 -52t-41.5 -31.5t-53.5 -10.5zM329 821l-13 13l101 110l23 -20z" />
    <glyph glyph-name="uni1EB6" unicode="&#x1eb6;" horiz-adv-x="704" 
d="M605 22l-9 7l102 -14v-15h-234v15l123 14l-4 -7l-66 189l8 -5h-346l10 7l-71 -191l-5 7l122 -14v-15h-229v15l99 14l-8 -7l252 669l19 2zM191 219l-6 6h333l-4 -5l-158 452h4zM352 -143q-11 0 -18 8t-7 21q0 14 7.5 22t18.5 8q12 0 19 -8t7 -22t-8 -21.5t-19 -7.5z
M364 756q-27 0 -53 10.5t-42.5 31t-17.5 50.5l15 2q5 -37 35 -55t64 -18q35 0 63.5 18t31.5 54l15 1q0 -31 -16 -52t-41.5 -31.5t-53.5 -10.5z" />
    <glyph glyph-name="uni1EB0" unicode="&#x1eb0;" horiz-adv-x="704" 
d="M605 22l-9 7l102 -14v-15h-234v15l123 14l-4 -7l-66 189l8 -5h-346l10 7l-71 -191l-5 7l122 -14v-15h-229v15l99 14l-8 -7l252 669l19 2zM191 219l-6 6h333l-4 -5l-158 452h4zM388 822l13 13l-101 110l-23 -20zM360 736q-27 0 -53 10.5t-42.5 31t-17.5 50.5l15 2
q5 -37 35 -55t64 -18q35 0 63.5 18t31.5 54l15 1q0 -31 -16 -52t-41.5 -31.5t-53.5 -10.5z" />
    <glyph glyph-name="uni1EB2" unicode="&#x1eb2;" horiz-adv-x="704" 
d="M605 22l-9 7l102 -14v-15h-234v15l123 14l-4 -7l-66 189l8 -5h-346l10 7l-71 -191l-5 7l122 -14v-15h-229v15l99 14l-8 -7l252 669l19 2zM191 219l-6 6h333l-4 -5l-158 452h4zM360 736q-27 0 -53 10.5t-42.5 31t-17.5 50.5l15 2q5 -37 35 -55t64 -18q35 0 63.5 18
t31.5 54l15 1q0 -31 -16 -52t-41.5 -31.5t-53.5 -10.5zM340 801v46q33 2 51.5 14t18.5 37q0 24 -15.5 34t-38.5 10q-12 0 -26 -2t-28 -7l-5 16q14 6 29.5 9t30.5 3q31 0 53.5 -14.5t22.5 -47.5q0 -27 -18.5 -44.5t-54.5 -22.5v-31h-20z" />
    <glyph glyph-name="uni1EB4" unicode="&#x1eb4;" horiz-adv-x="704" 
d="M605 22l-9 7l102 -14v-15h-234v15l123 14l-4 -7l-66 189l8 -5h-346l10 7l-71 -191l-5 7l122 -14v-15h-229v15l99 14l-8 -7l252 669l19 2zM191 219l-6 6h333l-4 -5l-158 452h4zM246 853l-13 7q14 32 31 45.5t38 13.5q22 0 42 -10.5t38.5 -21t35.5 -10.5q15 0 28 9.5
t26 34.5l13 -7q-14 -32 -31.5 -45t-37.5 -13q-21 0 -39.5 10.5t-36.5 21t-40 10.5q-16 0 -29 -10.5t-25 -34.5zM360 736q-27 0 -53 10.5t-42.5 31t-17.5 50.5l15 2q5 -37 35 -55t64 -18q35 0 63.5 18t31.5 54l15 1q0 -31 -16 -52t-41.5 -31.5t-53.5 -10.5z" />
    <glyph glyph-name="Acircumflex" unicode="&#xc2;" horiz-adv-x="704" 
d="M605 22l-9 7l102 -14v-15h-234v15l123 14l-4 -7l-66 189l8 -5h-346l10 7l-71 -191l-5 7l122 -14v-15h-229v15l99 14l-8 -7l252 669l19 2zM191 219l-6 6h333l-4 -5l-158 452h4zM229 742l-11 13l131 107h15l135 -107l-11 -13l-136 95h9z" />
    <glyph glyph-name="uni1EA4" unicode="&#x1ea4;" horiz-adv-x="704" 
d="M605 22l-9 7l102 -14v-15h-234v15l123 14l-4 -7l-66 189l8 -5h-346l10 7l-71 -191l-5 7l122 -14v-15h-229v15l99 14l-8 -7l252 669l19 2zM191 219l-6 6h333l-4 -5l-158 452h4zM444 828l-12 14l108 103l22 -22zM231 732l-11 13l131 107h15l135 -107l-11 -13l-136 95h9z
" />
    <glyph glyph-name="uni1EAC" unicode="&#x1eac;" horiz-adv-x="704" 
d="M605 22l-9 7l102 -14v-15h-234v15l123 14l-4 -7l-66 189l8 -5h-346l10 7l-71 -191l-5 7l122 -14v-15h-229v15l99 14l-8 -7l252 669l19 2zM191 219l-6 6h333l-4 -5l-158 452h4zM229 742l-11 13l131 107h15l135 -107l-11 -13l-136 95h9zM352 -143q-11 0 -18 8t-7 21
q0 14 7.5 22t18.5 8q12 0 19 -8t7 -22t-8 -21.5t-19 -7.5z" />
    <glyph glyph-name="uni1EA6" unicode="&#x1ea6;" horiz-adv-x="704" 
d="M605 22l-9 7l102 -14v-15h-234v15l123 14l-4 -7l-66 189l8 -5h-346l10 7l-71 -191l-5 7l122 -14v-15h-229v15l99 14l-8 -7l252 669l19 2zM191 219l-6 6h333l-4 -5l-158 452h4zM498 822l-110 101l22 22l101 -111zM231 732l-11 13l131 107h15l135 -107l-11 -13l-136 95h9z
" />
    <glyph glyph-name="uni1EA8" unicode="&#x1ea8;" horiz-adv-x="704" 
d="M605 22l-9 7l102 -14v-15h-234v15l123 14l-4 -7l-66 189l8 -5h-346l10 7l-71 -191l-5 7l122 -14v-15h-229v15l99 14l-8 -7l252 669l19 2zM191 219l-6 6h333l-4 -5l-158 452h4zM231 727l-11 13l131 107h15l135 -107l-11 -13l-136 95h9zM444 814v46q33 2 51.5 14t18.5 37
q0 24 -15.5 34t-38.5 10q-12 0 -26 -2t-28 -7l-5 16q14 6 29.5 9t30.5 3q31 0 53.5 -14.5t22.5 -47.5q0 -27 -18.5 -44.5t-54.5 -22.5v-31h-20z" />
    <glyph glyph-name="uni1EAA" unicode="&#x1eaa;" horiz-adv-x="704" 
d="M605 22l-9 7l102 -14v-15h-234v15l123 14l-4 -7l-66 189l8 -5h-346l10 7l-71 -191l-5 7l122 -14v-15h-229v15l99 14l-8 -7l252 669l19 2zM191 219l-6 6h333l-4 -5l-158 452h4zM238 863l-13 7q14 32 32.5 45.5t40.5 13.5q23 0 44.5 -10.5t41 -21t36.5 -10.5t31 9.5
t27 34.5l13 -7q-15 -32 -33.5 -45t-39.5 -13q-23 0 -42 10.5t-38.5 21t-42.5 10.5q-16 0 -30 -10.5t-27 -34.5zM231 732l-11 13l131 107h15l135 -107l-11 -13l-136 95h9z" />
    <glyph glyph-name="uni0200" unicode="&#x200;" horiz-adv-x="704" 
d="M605 22l-9 7l102 -14v-15h-234v15l123 14l-4 -7l-66 189l8 -5h-346l10 7l-71 -191l-5 7l122 -14v-15h-229v15l99 14l-8 -7l252 669l19 2zM191 219l-6 6h333l-4 -5l-158 452h4zM309 745l16 9l-61 129l-25 -14zM420 745l16 8l-58 130l-26 -13z" />
    <glyph glyph-name="Adieresis" unicode="&#xc4;" horiz-adv-x="704" 
d="M605 22l-9 7l102 -14v-15h-234v15l123 14l-4 -7l-66 189l8 -5h-346l10 7l-71 -191l-5 7l122 -14v-15h-229v15l99 14l-8 -7l252 669l19 2zM191 219l-6 6h333l-4 -5l-158 452h4zM447 772q-11 0 -18 8t-7 21q0 14 7.5 22t17.5 8q11 0 18 -8t7 -22q0 -13 -7.5 -21t-17.5 -8z
M270 772q-11 0 -18 8t-7 21q0 14 7.5 22t17.5 8q11 0 18 -8t7 -22q0 -13 -7.5 -21t-17.5 -8z" />
    <glyph glyph-name="uni1EA0" unicode="&#x1ea0;" horiz-adv-x="704" 
d="M605 22l-9 7l102 -14v-15h-234v15l123 14l-4 -7l-66 189l8 -5h-346l10 7l-71 -191l-5 7l122 -14v-15h-229v15l99 14l-8 -7l252 669l19 2zM191 219l-6 6h333l-4 -5l-158 452h4zM353 -143q-11 0 -18 8t-7 21q0 14 7.5 22t18.5 8q12 0 19 -8t7 -22t-8 -21.5t-19 -7.5z" />
    <glyph glyph-name="Agrave" unicode="&#xc0;" horiz-adv-x="704" 
d="M605 22l-9 7l102 -14v-15h-234v15l123 14l-4 -7l-66 189l8 -5h-346l10 7l-71 -191l-5 7l122 -14v-15h-229v15l99 14l-8 -7l252 669l19 2zM191 219l-6 6h333l-4 -5l-158 452h4zM442 747l-180 92l19 29l170 -106z" />
    <glyph glyph-name="uni1EA2" unicode="&#x1ea2;" horiz-adv-x="704" 
d="M605 22l-9 7l102 -14v-15h-234v15l123 14l-4 -7l-66 189l8 -5h-346l10 7l-71 -191l-5 7l122 -14v-15h-229v15l99 14l-8 -7l252 669l19 2zM191 219l-6 6h333l-4 -5l-158 452h4zM348 730v46q33 2 51.5 14t18.5 37q0 24 -15.5 34t-38.5 10q-12 0 -26 -2t-28 -7l-5 16
q14 6 29.5 9t30.5 3q31 0 53.5 -14.5t22.5 -47.5q0 -27 -18.5 -44.5t-54.5 -22.5v-31h-20z" />
    <glyph glyph-name="uni0202" unicode="&#x202;" horiz-adv-x="704" 
d="M605 22l-9 7l102 -14v-15h-234v15l123 14l-4 -7l-66 189l8 -5h-346l10 7l-71 -191l-5 7l122 -14v-15h-229v15l99 14l-8 -7l252 669l19 2zM191 219l-6 6h333l-4 -5l-158 452h4zM358 847q32 0 55.5 -12t37.5 -34t15 -51l-18 -2q-4 35 -29 56t-62 21t-60.5 -20.5
t-26.5 -55.5l-18 -1q0 30 13 52t37 34.5t56 12.5z" />
    <glyph glyph-name="Amacron" unicode="&#x100;" horiz-adv-x="704" 
d="M605 22l-9 7l102 -14v-15h-234v15l123 14l-4 -7l-66 189l8 -5h-346l10 7l-71 -191l-5 7l122 -14v-15h-229v15l99 14l-8 -7l252 669l19 2zM191 219l-6 6h333l-4 -5l-158 452h4zM474 809v-21h-230v21h230z" />
    <glyph glyph-name="Aogonek" unicode="&#x104;" horiz-adv-x="704" 
d="M605 22l-9 7l102 -14v-15h-107l-74 211l8 -5h-346l10 7l-71 -191l-5 7l122 -14v-15h-229v15l99 14l-8 -7l252 669l19 2zM191 219l-6 6h333l-4 -5l-158 452h4zM549 -216q-54 0 -82 25.5t-28 60.5q0 28 17.5 56.5t54.5 52t94 34.5l6 -13q-77 -18 -114 -55.5t-37 -72.5
q0 -28 24 -48.5t70 -20.5q12 0 25.5 1.5t28.5 5.5l3 -17q-17 -4 -32.5 -6.5t-29.5 -2.5z" />
    <glyph glyph-name="Aring" unicode="&#xc5;" horiz-adv-x="704" 
d="M605 22l-9 7l102 -14v-15h-234v15l123 14l-4 -7l-66 189l8 -5h-346l10 7l-71 -191l-5 7l122 -14v-15h-229v15l99 14l-8 -7l252 669l19 2zM191 219l-6 6h333l-4 -5l-158 452h4zM358 734q-18 0 -35.5 7.5t-29 23t-11.5 39.5t11 40t29 24.5t38 8.5q19 0 36 -7.5t28.5 -23
t11.5 -39.5q0 -23 -11 -39.5t-28.5 -25t-38.5 -8.5zM359 752q26 0 41 15.5t15 38.5t-15 38t-41 15t-41 -15.5t-15 -38.5t15 -38t41 -15z" />
    <glyph glyph-name="Aringacute" unicode="&#x1fa;" horiz-adv-x="704" 
d="M605 22l-9 7l102 -14v-15h-234v15l123 14l-4 -7l-66 189l8 -5h-346l10 7l-71 -191l-5 7l122 -14v-15h-229v15l99 14l-8 -7l252 669l19 2zM191 219l-6 6h333l-4 -5l-158 452h4zM267 874l-9 16l177 93l15 -29zM358 729q-18 0 -35.5 7.5t-29 23t-11.5 39.5t11 40t29 24.5
t38 8.5q19 0 36 -7.5t28.5 -23t11.5 -39.5q0 -23 -11 -39.5t-28.5 -25t-38.5 -8.5zM359 747q26 0 41 15.5t15 38.5t-15 38t-41 15t-41 -15.5t-15 -38.5t15 -38t41 -15z" />
    <glyph glyph-name="Atilde" unicode="&#xc3;" horiz-adv-x="704" 
d="M605 22l-9 7l102 -14v-15h-234v15l123 14l-4 -7l-66 189l8 -5h-346l10 7l-71 -191l-5 7l122 -14v-15h-229v15l99 14l-8 -7l252 669l19 2zM191 219l-6 6h333l-4 -5l-158 452h4zM233 773l-14 7q15 32 34.5 45.5t42.5 13.5q24 0 46.5 -10.5t43 -21t38.5 -10.5q17 0 32 9.5
t29 34.5l14 -7q-16 -32 -35 -45t-42 -13q-24 0 -44.5 10.5t-40.5 21t-44 10.5q-18 0 -32 -10.5t-28 -34.5z" />
    <glyph glyph-name="AEacute" unicode="&#x1fc;" horiz-adv-x="949" 
d="M0 0v15l100 14l-10 -7l353 649l4 -7l-99 8v15l154 5h350v-136h-15l-15 124l8 -7h-336l7 7v-309l-7 7h290v-19h-290l7 7v-354l-7 7h349l-8 -7l15 129h15v-141h-484v15l107 14l-7 -8v212l7 -7h-272l10 6l-114 -210l-4 7l121 -14v-15h-229zM230 239l-4 6h262l-7 -7v442l7 -7
h-29l10 6zM512 747l-10 15l170 106l17 -28z" />
    <glyph glyph-name="Cacute" unicode="&#x106;" horiz-adv-x="659" 
d="M359 -6q-78 0 -141.5 41t-100.5 119t-37 189q0 112 38 191t106 121.5t156 42.5q46 0 99 -11.5t108 -36.5l-5 -134h-14l-11 130l5 -9q-46 20 -95 30.5t-90 10.5q-81 0 -143 -40t-97 -114.5t-35 -176.5q0 -105 35 -179t95 -113.5t133 -39.5q53 0 110 23t108 71l13 -16
q-55 -50 -116.5 -74.5t-120.5 -24.5zM284 747l-10 15l170 106l17 -28z" />
    <glyph glyph-name="Ccaron" unicode="&#x10c;" horiz-adv-x="659" 
d="M359 -6q-78 0 -141.5 41t-100.5 119t-37 189q0 112 38 191t106 121.5t156 42.5q46 0 99 -11.5t108 -36.5l-5 -134h-14l-11 130l5 -9q-46 20 -95 30.5t-90 10.5q-81 0 -143 -40t-97 -114.5t-35 -176.5q0 -105 35 -179t95 -113.5t133 -39.5q53 0 110 23t108 71l13 -16
q-55 -50 -116.5 -74.5t-120.5 -24.5zM490 872l11 -13l-131 -107h-15l-135 107l11 13l136 -95h-9z" />
    <glyph glyph-name="Ccedilla" unicode="&#xc7;" horiz-adv-x="659" 
d="M359 -6q-78 0 -141.5 41t-100.5 119t-37 189q0 112 38 191t106 121.5t156 42.5q46 0 99 -11.5t108 -36.5l-5 -134h-14l-11 130l5 -9q-46 20 -95 30.5t-90 10.5q-81 0 -143 -40t-97 -114.5t-35 -176.5q0 -105 35 -179t95 -113.5t133 -39.5q53 0 110 23t108 71l13 -16
q-55 -50 -116.5 -74.5t-120.5 -24.5zM376 -212q-17 0 -36 4t-37 12l8 17q15 -6 32 -9.5t33 -3.5q29 0 49.5 13t20.5 38q0 17 -10.5 29t-32 18.5t-55.5 6.5l4 87h19v-68q56 -4 76 -23.5t20 -46.5q0 -25 -12 -41.5t-32.5 -24.5t-46.5 -8z" />
    <glyph glyph-name="Ccircumflex" unicode="&#x108;" horiz-adv-x="659" 
d="M359 -6q-78 0 -141.5 41t-100.5 119t-37 189q0 112 38 191t106 121.5t156 42.5q46 0 99 -11.5t108 -36.5l-5 -134h-14l-11 130l5 -9q-46 20 -95 30.5t-90 10.5q-81 0 -143 -40t-97 -114.5t-35 -176.5q0 -105 35 -179t95 -113.5t133 -39.5q53 0 110 23t108 71l13 -16
q-55 -50 -116.5 -74.5t-120.5 -24.5zM231 742l-11 13l131 107h15l135 -107l-11 -13l-136 95h9z" />
    <glyph glyph-name="Cdotaccent" unicode="&#x10a;" horiz-adv-x="659" 
d="M359 -6q-78 0 -141.5 41t-100.5 119t-37 189q0 112 38 191t106 121.5t156 42.5q46 0 99 -11.5t108 -36.5l-5 -134h-14l-11 130l5 -9q-46 20 -95 30.5t-90 10.5q-81 0 -143 -40t-97 -114.5t-35 -176.5q0 -105 35 -179t95 -113.5t133 -39.5q53 0 110 23t108 71l13 -16
q-55 -50 -116.5 -74.5t-120.5 -24.5zM360 772q-11 0 -18 8t-7 21q0 14 7.5 22t18.5 8q12 0 19 -8t7 -22t-8 -21.5t-19 -7.5z" />
    <glyph glyph-name="Dcaron" unicode="&#x10e;" horiz-adv-x="724" 
d="M344 692q59 0 113 -19.5t96.5 -60.5t67.5 -104.5t25 -152.5q0 -117 -43 -196t-114 -119t-157 -40h-271v15l107 14l-7 -8v649l7 -8l-107 10v15l150 5h133zM332 19q58 0 110.5 20.5t93.5 61.5t64.5 103.5t23.5 146.5q0 82 -22.5 142.5t-61.5 100.5t-89.5 59.5t-107.5 19.5
h-169l7 7v-668l-7 7h158zM466 872l11 -13l-131 -107h-15l-135 107l11 13l136 -95h-9z" />
    <glyph glyph-name="Dcroat" unicode="&#x110;" horiz-adv-x="724" 
d="M61 345v19h320v-19h-320zM344 692q59 0 113 -19.5t96.5 -60.5t67.5 -104.5t25 -152.5q0 -117 -43 -196t-114 -119t-157 -40h-271v15l107 14l-7 -8v649l7 -8l-107 10v15l150 5h133zM332 19q58 0 110.5 20.5t93.5 61.5t64.5 103.5t23.5 146.5q0 82 -22.5 142.5t-61.5 100.5
t-89.5 59.5t-107.5 19.5h-169l7 7v-668l-7 7h158z" />
    <glyph glyph-name="Eacute" unicode="&#xc9;" horiz-adv-x="634" 
d="M535 141h15v-141h-489v15l107 14l-7 -8v649l7 -8l-107 10v15l121 5h355v-136h-15l-15 124l8 -7h-341l7 7v-322l-7 7h295v-19h-295l7 7v-341l-7 7h354l-8 -7zM252 747l-10 15l170 106l17 -28z" />
    <glyph glyph-name="Ebreve" unicode="&#x114;" horiz-adv-x="634" 
d="M535 141h15v-141h-489v15l107 14l-7 -8v649l7 -8l-107 10v15l121 5h355v-136h-15l-15 124l8 -7h-341l7 7v-322l-7 7h295v-19h-295l7 7v-341l-7 7h354l-8 -7zM330 756q-27 0 -53 10.5t-42.5 31t-17.5 50.5l15 2q5 -37 35 -55t64 -18q35 0 63.5 18t31.5 54l15 1
q0 -31 -16 -52t-41.5 -31.5t-53.5 -10.5z" />
    <glyph glyph-name="Ecaron" unicode="&#x11a;" horiz-adv-x="634" 
d="M535 141h15v-141h-489v15l107 14l-7 -8v649l7 -8l-107 10v15l121 5h355v-136h-15l-15 124l8 -7h-341l7 7v-322l-7 7h295v-19h-295l7 7v-341l-7 7h354l-8 -7zM458 872l11 -13l-131 -107h-15l-135 107l11 13l136 -95h-9z" />
    <glyph glyph-name="Ecircumflex" unicode="&#xca;" horiz-adv-x="634" 
d="M535 141h15v-141h-489v15l107 14l-7 -8v649l7 -8l-107 10v15l121 5h355v-136h-15l-15 124l8 -7h-341l7 7v-322l-7 7h295v-19h-295l7 7v-341l-7 7h354l-8 -7zM199 742l-11 13l131 107h15l135 -107l-11 -13l-136 95h9z" />
    <glyph glyph-name="uni1EBE" unicode="&#x1ebe;" horiz-adv-x="634" 
d="M535 141h15v-141h-489v15l107 14l-7 -8v649l7 -8l-107 10v15l121 5h355v-136h-15l-15 124l8 -7h-341l7 7v-322l-7 7h295v-19h-295l7 7v-341l-7 7h354l-8 -7zM414 828l-12 14l108 103l22 -22zM201 732l-11 13l131 107h15l135 -107l-11 -13l-136 95h9z" />
    <glyph glyph-name="uni1EC6" unicode="&#x1ec6;" horiz-adv-x="634" 
d="M535 141h15v-141h-489v15l107 14l-7 -8v649l7 -8l-107 10v15l121 5h355v-136h-15l-15 124l8 -7h-341l7 7v-322l-7 7h295v-19h-295l7 7v-341l-7 7h354l-8 -7zM199 742l-11 13l131 107h15l135 -107l-11 -13l-136 95h9zM318 -143q-11 0 -18 8t-7 21q0 14 7.5 22t18.5 8
q12 0 19 -8t7 -22t-8 -21.5t-19 -7.5z" />
    <glyph glyph-name="uni1EC0" unicode="&#x1ec0;" horiz-adv-x="634" 
d="M535 141h15v-141h-489v15l107 14l-7 -8v649l7 -8l-107 10v15l121 5h355v-136h-15l-15 124l8 -7h-341l7 7v-322l-7 7h295v-19h-295l7 7v-341l-7 7h354l-8 -7zM468 822l-110 101l22 22l101 -111zM201 732l-11 13l131 107h15l135 -107l-11 -13l-136 95h9z" />
    <glyph glyph-name="uni1EC2" unicode="&#x1ec2;" horiz-adv-x="634" 
d="M535 141h15v-141h-489v15l107 14l-7 -8v649l7 -8l-107 10v15l121 5h355v-136h-15l-15 124l8 -7h-341l7 7v-322l-7 7h295v-19h-295l7 7v-341l-7 7h354l-8 -7zM201 727l-11 13l131 107h15l135 -107l-11 -13l-136 95h9zM414 814v46q33 2 51.5 14t18.5 37q0 24 -15.5 34
t-38.5 10q-12 0 -26 -2t-28 -7l-5 16q14 6 29.5 9t30.5 3q31 0 53.5 -14.5t22.5 -47.5q0 -27 -18.5 -44.5t-54.5 -22.5v-31h-20z" />
    <glyph glyph-name="uni1EC4" unicode="&#x1ec4;" horiz-adv-x="634" 
d="M535 141h15v-141h-489v15l107 14l-7 -8v649l7 -8l-107 10v15l121 5h355v-136h-15l-15 124l8 -7h-341l7 7v-322l-7 7h295v-19h-295l7 7v-341l-7 7h354l-8 -7zM208 863l-13 7q14 32 32.5 45.5t40.5 13.5q23 0 44.5 -10.5t41 -21t36.5 -10.5t31 9.5t27 34.5l13 -7
q-15 -32 -33.5 -45t-39.5 -13q-23 0 -42 10.5t-38.5 21t-42.5 10.5q-16 0 -30 -10.5t-27 -34.5zM201 732l-11 13l131 107h15l135 -107l-11 -13l-136 95h9z" />
    <glyph glyph-name="uni0204" unicode="&#x204;" horiz-adv-x="634" 
d="M535 141h15v-141h-489v15l107 14l-7 -8v649l7 -8l-107 10v15l121 5h355v-136h-15l-15 124l8 -7h-341l7 7v-322l-7 7h295v-19h-295l7 7v-341l-7 7h354l-8 -7zM279 745l16 9l-61 129l-25 -14zM390 745l16 8l-58 130l-26 -13z" />
    <glyph glyph-name="Edieresis" unicode="&#xcb;" horiz-adv-x="634" 
d="M535 141h15v-141h-489v15l107 14l-7 -8v649l7 -8l-107 10v15l121 5h355v-136h-15l-15 124l8 -7h-341l7 7v-322l-7 7h295v-19h-295l7 7v-341l-7 7h354l-8 -7zM417 772q-11 0 -18 8t-7 21q0 14 7.5 22t17.5 8q11 0 18 -8t7 -22q0 -13 -7.5 -21t-17.5 -8zM240 772
q-11 0 -18 8t-7 21q0 14 7.5 22t17.5 8q11 0 18 -8t7 -22q0 -13 -7.5 -21t-17.5 -8z" />
    <glyph glyph-name="Edotaccent" unicode="&#x116;" horiz-adv-x="634" 
d="M535 141h15v-141h-489v15l107 14l-7 -8v649l7 -8l-107 10v15l121 5h355v-136h-15l-15 124l8 -7h-341l7 7v-322l-7 7h295v-19h-295l7 7v-341l-7 7h354l-8 -7zM328 772q-11 0 -18 8t-7 21q0 14 7.5 22t18.5 8q12 0 19 -8t7 -22t-8 -21.5t-19 -7.5z" />
    <glyph glyph-name="uni1EB8" unicode="&#x1eb8;" horiz-adv-x="634" 
d="M535 141h15v-141h-489v15l107 14l-7 -8v649l7 -8l-107 10v15l121 5h355v-136h-15l-15 124l8 -7h-341l7 7v-322l-7 7h295v-19h-295l7 7v-341l-7 7h354l-8 -7zM318 -143q-11 0 -18 8t-7 21q0 14 7.5 22t18.5 8q12 0 19 -8t7 -22t-8 -21.5t-19 -7.5z" />
    <glyph glyph-name="Egrave" unicode="&#xc8;" horiz-adv-x="634" 
d="M535 141h15v-141h-489v15l107 14l-7 -8v649l7 -8l-107 10v15l121 5h355v-136h-15l-15 124l8 -7h-341l7 7v-322l-7 7h295v-19h-295l7 7v-341l-7 7h354l-8 -7zM412 747l-180 92l19 29l170 -106z" />
    <glyph glyph-name="uni1EBA" unicode="&#x1eba;" horiz-adv-x="634" 
d="M535 141h15v-141h-489v15l107 14l-7 -8v649l7 -8l-107 10v15l121 5h355v-136h-15l-15 124l8 -7h-341l7 7v-322l-7 7h295v-19h-295l7 7v-341l-7 7h354l-8 -7zM318 730v46q33 2 51.5 14t18.5 37q0 24 -15.5 34t-38.5 10q-12 0 -26 -2t-28 -7l-5 16q14 6 29.5 9t30.5 3
q31 0 53.5 -14.5t22.5 -47.5q0 -27 -18.5 -44.5t-54.5 -22.5v-31h-20z" />
    <glyph glyph-name="uni0206" unicode="&#x206;" horiz-adv-x="634" 
d="M535 141h15v-141h-489v15l107 14l-7 -8v649l7 -8l-107 10v15l121 5h355v-136h-15l-15 124l8 -7h-341l7 7v-322l-7 7h295v-19h-295l7 7v-341l-7 7h354l-8 -7zM328 847q32 0 55.5 -12t37.5 -34t15 -51l-18 -2q-4 35 -29 56t-62 21t-60.5 -20.5t-26.5 -55.5l-18 -1
q0 30 13 52t37 34.5t56 12.5z" />
    <glyph glyph-name="Emacron" unicode="&#x112;" horiz-adv-x="634" 
d="M535 141h15v-141h-489v15l107 14l-7 -8v649l7 -8l-107 10v15l121 5h355v-136h-15l-15 124l8 -7h-341l7 7v-322l-7 7h295v-19h-295l7 7v-341l-7 7h354l-8 -7zM444 809v-21h-230v21h230z" />
    <glyph glyph-name="Eng" unicode="&#x14a;" horiz-adv-x="812" 
d="M532 -236q-10 0 -19 0.5t-18 1.5l2 19q10 -1 18.5 -1.5t16.5 -0.5q58 0 85 26t27 84v111l4 -13l-471 678l4 1v-649l-7 8l122 -14v-15h-235v15l107 14l-7 -8v650l7 -8l-107 9v15l125 5l462 -663l-4 -1v644l7 -7l-122 6v16l235 5v-15l-107 -14l7 8v-778q0 -52 -19.5 -80
t-49.5 -38.5t-63 -10.5z" />
    <glyph glyph-name="Eogonek" unicode="&#x118;" horiz-adv-x="634" 
d="M535 141h15v-141h-489v15l107 14l-7 -8v649l7 -8l-107 10v15l121 5h355v-136h-15l-15 124l8 -7h-341l7 7v-322l-7 7h295v-19h-295l7 7v-341l-7 7h354l-8 -7zM488 -216q-54 0 -82 25.5t-28 60.5q0 28 17.5 56.5t54.5 52t94 34.5l6 -13q-77 -18 -114 -55.5t-37 -72.5
q0 -28 24 -48.5t70 -20.5q12 0 25.5 1.5t28.5 5.5l3 -17q-17 -4 -32.5 -6.5t-29.5 -2.5z" />
    <glyph glyph-name="Eth" unicode="&#xd0;" horiz-adv-x="724" 
d="M61 345v19h320v-19h-320zM344 692q59 0 113 -19.5t96.5 -60.5t67.5 -104.5t25 -152.5q0 -117 -43 -196t-114 -119t-157 -40h-271v15l107 14l-7 -8v649l7 -8l-107 10v15l150 5h133zM332 19q58 0 110.5 20.5t93.5 61.5t64.5 103.5t23.5 146.5q0 82 -22.5 142.5t-61.5 100.5
t-89.5 59.5t-107.5 19.5h-169l7 7v-668l-7 7h158z" />
    <glyph glyph-name="uni1EBC" unicode="&#x1ebc;" horiz-adv-x="634" 
d="M535 141h15v-141h-489v15l107 14l-7 -8v649l7 -8l-107 10v15l121 5h355v-136h-15l-15 124l8 -7h-341l7 7v-322l-7 7h295v-19h-295l7 7v-341l-7 7h354l-8 -7zM203 773l-14 7q15 32 34.5 45.5t42.5 13.5q24 0 46.5 -10.5t43 -21t38.5 -10.5q17 0 32 9.5t29 34.5l14 -7
q-16 -32 -35 -45t-42 -13q-24 0 -44.5 10.5t-40.5 21t-44 10.5q-18 0 -32 -10.5t-28 -34.5z" />
    <glyph glyph-name="Gbreve" unicode="&#x11e;" horiz-adv-x="759" 
d="M390 -5q-95 0 -165 38.5t-108 115t-38 188.5q0 115 39.5 195.5t111.5 123t170 42.5q50 0 106.5 -11.5t114.5 -36.5l-5 -134h-15l-10 130l4 -9q-48 18 -102.5 29.5t-102.5 11.5q-88 0 -153 -41.5t-100.5 -118t-35.5 -181.5q0 -157 79 -239.5t213 -82.5q49 0 101.5 11.5
t108.5 33.5l-5 -9v243l7 -7l-107 8v15l215 5v-15l-102 -14l7 8v-249q-61 -25 -118 -37.5t-110 -12.5zM391 756q-27 0 -53 10.5t-42.5 31t-17.5 50.5l15 2q5 -37 35 -55t64 -18q35 0 63.5 18t31.5 54l15 1q0 -31 -16 -52t-41.5 -31.5t-53.5 -10.5z" />
    <glyph glyph-name="Gcaron" unicode="&#x1e6;" horiz-adv-x="759" 
d="M390 -5q-95 0 -165 38.5t-108 115t-38 188.5q0 115 39.5 195.5t111.5 123t170 42.5q50 0 106.5 -11.5t114.5 -36.5l-5 -134h-15l-10 130l4 -9q-48 18 -102.5 29.5t-102.5 11.5q-88 0 -153 -41.5t-100.5 -118t-35.5 -181.5q0 -157 79 -239.5t213 -82.5q49 0 101.5 11.5
t108.5 33.5l-5 -9v243l7 -7l-107 8v15l215 5v-15l-102 -14l7 8v-249q-61 -25 -118 -37.5t-110 -12.5zM519 872l11 -13l-131 -107h-15l-135 107l11 13l136 -95h-9z" />
    <glyph glyph-name="Gcircumflex" unicode="&#x11c;" horiz-adv-x="759" 
d="M390 -5q-95 0 -165 38.5t-108 115t-38 188.5q0 115 39.5 195.5t111.5 123t170 42.5q50 0 106.5 -11.5t114.5 -36.5l-5 -134h-15l-10 130l4 -9q-48 18 -102.5 29.5t-102.5 11.5q-88 0 -153 -41.5t-100.5 -118t-35.5 -181.5q0 -157 79 -239.5t213 -82.5q49 0 101.5 11.5
t108.5 33.5l-5 -9v243l7 -7l-107 8v15l215 5v-15l-102 -14l7 8v-249q-61 -25 -118 -37.5t-110 -12.5zM260 742l-11 13l131 107h15l135 -107l-11 -13l-136 95h9z" />
    <glyph glyph-name="uni0122" unicode="&#x122;" horiz-adv-x="759" 
d="M390 -5q-95 0 -165 38.5t-108 115t-38 188.5q0 115 39.5 195.5t111.5 123t170 42.5q50 0 106.5 -11.5t114.5 -36.5l-5 -134h-15l-10 130l4 -9q-48 18 -102.5 29.5t-102.5 11.5q-88 0 -153 -41.5t-100.5 -118t-35.5 -181.5q0 -157 79 -239.5t213 -82.5q49 0 101.5 11.5
t108.5 33.5l-5 -9v243l7 -7l-107 8v15l215 5v-15l-102 -14l7 8v-249q-61 -25 -118 -37.5t-110 -12.5zM366 -230l-12 8q15 26 20 46.5t5 27.5q0 9 -4 14l-8 10t-4 15q0 13 8 20t18 7t18 -7.5t8 -23.5q0 -17 -12.5 -48t-36.5 -69z" />
    <glyph glyph-name="Gdotaccent" unicode="&#x120;" horiz-adv-x="759" 
d="M390 -5q-95 0 -165 38.5t-108 115t-38 188.5q0 115 39.5 195.5t111.5 123t170 42.5q50 0 106.5 -11.5t114.5 -36.5l-5 -134h-15l-10 130l4 -9q-48 18 -102.5 29.5t-102.5 11.5q-88 0 -153 -41.5t-100.5 -118t-35.5 -181.5q0 -157 79 -239.5t213 -82.5q49 0 101.5 11.5
t108.5 33.5l-5 -9v243l7 -7l-107 8v15l215 5v-15l-102 -14l7 8v-249q-61 -25 -118 -37.5t-110 -12.5zM389 772q-11 0 -18 8t-7 21q0 14 7.5 22t18.5 8q12 0 19 -8t7 -22t-8 -21.5t-19 -7.5z" />
    <glyph glyph-name="Hbar" unicode="&#x126;" horiz-adv-x="814" 
d="M66 509v19h683v-19h-683zM66 0v15l107 14l-7 -8v650l7 -8l-107 9v15l220 5v-15l-107 -14l7 8v-317l-7 7h457l-7 -7v317l7 -7l-107 8v15l220 5v-15l-107 -14l7 8v-650l-7 8l107 -14v-15h-220v15l107 14l-7 -8v328l7 -7h-457l7 7v-328l-7 8l107 -14v-15h-220z" />
    <glyph glyph-name="Hcircumflex" unicode="&#x124;" horiz-adv-x="804" 
d="M61 0v15l107 14l-7 -8v650l7 -8l-107 9v15l220 5v-15l-107 -14l7 8v-317l-7 7h457l-7 -7v317l7 -7l-107 8v15l220 5v-15l-107 -14l7 8v-650l-7 8l107 -14v-15h-220v15l107 14l-7 -8v328l7 -7h-457l7 7v-328l-7 8l107 -14v-15h-220zM273 742l-11 13l131 107h15l135 -107
l-11 -13l-136 95h9z" />
    <glyph glyph-name="Iacute" unicode="&#xcd;" horiz-adv-x="341" 
d="M281 677l-107 -14l7 8v-650l-7 8l107 -14v-15h-220v15l107 14l-7 -8v650l7 -8l-107 9v15l220 5v-15zM94 747l-10 15l170 106l17 -28z" />
    <glyph glyph-name="Ibreve" unicode="&#x12c;" horiz-adv-x="341" 
d="M281 677l-107 -14l7 8v-650l-7 8l107 -14v-15h-220v15l107 14l-7 -8v650l7 -8l-107 9v15l220 5v-15zM172 756q-27 0 -53 10.5t-42.5 31t-17.5 50.5l15 2q5 -37 35 -55t64 -18q35 0 63.5 18t31.5 54l15 1q0 -31 -16 -52t-41.5 -31.5t-53.5 -10.5z" />
    <glyph glyph-name="Icircumflex" unicode="&#xce;" horiz-adv-x="341" 
d="M281 677l-107 -14l7 8v-650l-7 8l107 -14v-15h-220v15l107 14l-7 -8v650l7 -8l-107 9v15l220 5v-15zM41 742l-11 13l131 107h15l135 -107l-11 -13l-136 95h9z" />
    <glyph glyph-name="uni0208" unicode="&#x208;" horiz-adv-x="341" 
d="M281 677l-107 -14l7 8v-650l-7 8l107 -14v-15h-220v15l107 14l-7 -8v650l7 -8l-107 9v15l220 5v-15zM121 745l16 9l-61 129l-25 -14zM232 745l16 8l-58 130l-26 -13z" />
    <glyph glyph-name="Idieresis" unicode="&#xcf;" horiz-adv-x="341" 
d="M281 677l-107 -14l7 8v-650l-7 8l107 -14v-15h-220v15l107 14l-7 -8v650l7 -8l-107 9v15l220 5v-15zM259 772q-11 0 -18 8t-7 21q0 14 7.5 22t17.5 8q11 0 18 -8t7 -22q0 -13 -7.5 -21t-17.5 -8zM82 772q-11 0 -18 8t-7 21q0 14 7.5 22t17.5 8q11 0 18 -8t7 -22
q0 -13 -7.5 -21t-17.5 -8z" />
    <glyph glyph-name="Idotaccent" unicode="&#x130;" horiz-adv-x="341" 
d="M281 677l-107 -14l7 8v-650l-7 8l107 -14v-15h-220v15l107 14l-7 -8v650l7 -8l-107 9v15l220 5v-15zM170 772q-11 0 -18 8t-7 21q0 14 7.5 22t18.5 8q12 0 19 -8t7 -22t-8 -21.5t-19 -7.5z" />
    <glyph glyph-name="uni1ECA" unicode="&#x1eca;" horiz-adv-x="341" 
d="M281 677l-107 -14l7 8v-650l-7 8l107 -14v-15h-220v15l107 14l-7 -8v650l7 -8l-107 9v15l220 5v-15zM170 -143q-11 0 -18 8t-7 21q0 14 7.5 22t18.5 8q12 0 19 -8t7 -22t-8 -21.5t-19 -7.5z" />
    <glyph glyph-name="Igrave" unicode="&#xcc;" horiz-adv-x="341" 
d="M281 677l-107 -14l7 8v-650l-7 8l107 -14v-15h-220v15l107 14l-7 -8v650l7 -8l-107 9v15l220 5v-15zM254 747l-180 92l19 29l170 -106z" />
    <glyph glyph-name="uni1EC8" unicode="&#x1ec8;" horiz-adv-x="341" 
d="M281 677l-107 -14l7 8v-650l-7 8l107 -14v-15h-220v15l107 14l-7 -8v650l7 -8l-107 9v15l220 5v-15zM160 730v46q33 2 51.5 14t18.5 37q0 24 -15.5 34t-38.5 10q-12 0 -26 -2t-28 -7l-5 16q14 6 29.5 9t30.5 3q31 0 53.5 -14.5t22.5 -47.5q0 -27 -18.5 -44.5t-54.5 -22.5
v-31h-20z" />
    <glyph glyph-name="uni020A" unicode="&#x20a;" horiz-adv-x="341" 
d="M281 677l-107 -14l7 8v-650l-7 8l107 -14v-15h-220v15l107 14l-7 -8v650l7 -8l-107 9v15l220 5v-15zM170 847q32 0 55.5 -12t37.5 -34t15 -51l-18 -2q-4 35 -29 56t-62 21t-60.5 -20.5t-26.5 -55.5l-18 -1q0 30 13 52t37 34.5t56 12.5z" />
    <glyph glyph-name="Imacron" unicode="&#x12a;" horiz-adv-x="341" 
d="M281 677l-107 -14l7 8v-650l-7 8l107 -14v-15h-220v15l107 14l-7 -8v650l7 -8l-107 9v15l220 5v-15zM286 809v-21h-230v21h230z" />
    <glyph glyph-name="Iogonek" unicode="&#x12e;" horiz-adv-x="341" 
d="M281 677l-107 -14l7 8v-650l-7 8l107 -14v-15h-220v15l107 14l-7 -8v650l7 -8l-107 9v15l220 5v-15zM215 -216q-54 0 -82 25.5t-28 60.5q0 26 15.5 53t46.5 51t77 40l7 -14q-63 -25 -94 -60t-31 -68q0 -28 24 -48.5t70 -20.5q9 0 18.5 1t19.5 3l4 -18q-13 -2 -24.5 -3.5
t-22.5 -1.5z" />
    <glyph glyph-name="Itilde" unicode="&#x128;" horiz-adv-x="341" 
d="M281 677l-107 -14l7 8v-650l-7 8l107 -14v-15h-220v15l107 14l-7 -8v650l7 -8l-107 9v15l220 5v-15zM45 773l-14 7q15 32 34.5 45.5t42.5 13.5q24 0 46.5 -10.5t43 -21t38.5 -10.5q17 0 32 9.5t29 34.5l14 -7q-16 -32 -35 -45t-42 -13q-24 0 -44.5 10.5t-40.5 21
t-44 10.5q-18 0 -32 -10.5t-28 -34.5z" />
    <glyph glyph-name="Jcircumflex" unicode="&#x134;" horiz-adv-x="319" 
d="M41 687l230 5v-15l-107 -14l7 8v-668q0 -35 -9 -59t-26 -39t-41 -22t-55 -7q-10 0 -19.5 0.5t-19.5 1.5l2 19q9 -1 17.5 -1.5t18.5 -0.5q58 0 85 25.5t27 82.5v668l7 -7l-117 8v15zM31 742l-11 13l131 107h15l135 -107l-11 -13l-136 95h9z" />
    <glyph glyph-name="uni0136" unicode="&#x136;" horiz-adv-x="701" 
d="M591 23l-11 5l103 -13v-15h-215v15l103 13l-4 -5l-234 327l13 -5h-172l7 7v-331l-7 8l107 -14v-15h-220v15l107 14l-7 -8v650l7 -8l-107 9v15l220 5v-15l-107 -14l7 8v-314l-7 7h166l-11 -6l193 312l4 -6l-107 8v15l216 5v-15l-103 -14l11 7l-196 -317v11zM322 -230
l-12 8q15 26 20 46.5t5 27.5q0 9 -4 14l-8 10t-4 15q0 13 8 20t18 7t18 -7.5t8 -23.5q0 -17 -12.5 -48t-36.5 -69z" />
    <glyph glyph-name="Lacute" unicode="&#x139;" horiz-adv-x="547" 
d="M499 145h15v-145h-453v15l107 14l-7 -8v649l7 -8l-107 10v15l235 5v-15l-122 -15l7 8v-658l-7 7h318l-8 -7zM94 747l-10 15l170 106l17 -28z" />
    <glyph glyph-name="Lcaron" unicode="&#x13d;" horiz-adv-x="547" 
d="M499 145h15v-145h-453v15l107 14l-7 -8v649l7 -8l-107 10v15l235 5v-15l-122 -15l7 8v-658l-7 7h318l-8 -7zM407 516l-14 4q12 56 21 100.5t11 75.5l30 -3q-4 -29 -16.5 -73.5t-31.5 -103.5z" />
    <glyph glyph-name="uni013B" unicode="&#x13b;" horiz-adv-x="547" 
d="M499 145h15v-145h-453v15l107 14l-7 -8v649l7 -8l-107 10v15l235 5v-15l-122 -15l7 8v-658l-7 7h318l-8 -7zM292 -230l-12 8q15 26 20 46.5t5 27.5q0 9 -4 14l-8 10t-4 15q0 13 8 20t18 7t18 -7.5t8 -23.5q0 -17 -12.5 -48t-36.5 -69z" />
    <glyph glyph-name="Ldot" unicode="&#x13f;" horiz-adv-x="552" 
d="M499 145h15v-145h-453v15l107 14l-7 -8v649l7 -8l-107 10v15l235 5v-15l-122 -15l7 8v-658l-7 7h318l-8 -7zM416 376q0 12 7.5 19t17.5 7q11 0 18 -7t7 -19t-7.5 -19t-17.5 -7q-11 0 -18 7t-7 19z" />
    <glyph glyph-name="Lslash" unicode="&#x141;" horiz-adv-x="558" 
d="M69 262l317 203l9 -17l-317 -203zM510 145h15v-145h-453v15l107 14l-7 -8v649l7 -8l-107 10v15l235 5v-15l-122 -15l7 8v-658l-7 7h318l-8 -7z" />
    <glyph glyph-name="Nacute" unicode="&#x143;" horiz-adv-x="812" 
d="M544 687l220 5v-15l-107 -14l7 8v-671h-20l-467 669l4 1v-649l-7 8l107 -14v-15h-220v15l107 14l-7 -8v650l7 -8l-107 9v15l125 5l462 -661l-4 -1v642l7 -7l-107 7v15zM343 747l-10 15l170 106l17 -28z" />
    <glyph glyph-name="Ncaron" unicode="&#x147;" horiz-adv-x="812" 
d="M544 687l220 5v-15l-107 -14l7 8v-671h-20l-467 669l4 1v-649l-7 8l107 -14v-15h-220v15l107 14l-7 -8v650l7 -8l-107 9v15l125 5l462 -661l-4 -1v642l7 -7l-107 7v15zM549 872l11 -13l-131 -107h-15l-135 107l11 13l136 -95h-9z" />
    <glyph glyph-name="uni0145" unicode="&#x145;" horiz-adv-x="812" 
d="M544 687l220 5v-15l-107 -14l7 8v-671h-20l-467 669l4 1v-649l-7 8l107 -14v-15h-220v15l107 14l-7 -8v650l7 -8l-107 9v15l125 5l462 -661l-4 -1v642l7 -7l-107 7v15zM387 -230l-12 8q15 26 20 46.5t5 27.5q0 9 -4 14l-8 10t-4 15q0 13 8 20t18 7t18 -7.5t8 -23.5
q0 -17 -12.5 -48t-36.5 -69z" />
    <glyph glyph-name="Ntilde" unicode="&#xd1;" horiz-adv-x="812" 
d="M544 687l220 5v-15l-107 -14l7 8v-671h-20l-467 669l4 1v-649l-7 8l107 -14v-15h-220v15l107 14l-7 -8v650l7 -8l-107 9v15l125 5l462 -661l-4 -1v642l7 -7l-107 7v15zM294 773l-14 7q15 32 34.5 45.5t42.5 13.5q24 0 46.5 -10.5t43 -21t38.5 -10.5q17 0 32 9.5t29 34.5
l14 -7q-16 -32 -35 -45t-42 -13q-24 0 -44.5 10.5t-40.5 21t-44 10.5q-18 0 -32 -10.5t-28 -34.5z" />
    <glyph glyph-name="Oacute" unicode="&#xd3;" horiz-adv-x="757" 
d="M371 -6q-77 0 -143.5 38t-107.5 115t-41 194q0 90 25 157t68 111.5t97.5 66.5t113.5 22q56 0 109 -20.5t95 -62.5t67 -106.5t25 -152.5q0 -117 -42.5 -197.5t-112.5 -122.5t-153 -42zM372 14q74 0 139 38t105.5 113.5t40.5 187.5q0 109 -38.5 181t-101 108t-135.5 36
t-137.5 -37t-104 -111.5t-39.5 -187.5q0 -111 38 -183.5t100 -108.5t133 -36zM306 747l-10 15l170 106l17 -28z" />
    <glyph glyph-name="Obreve" unicode="&#x14e;" horiz-adv-x="757" 
d="M371 -6q-77 0 -143.5 38t-107.5 115t-41 194q0 90 25 157t68 111.5t97.5 66.5t113.5 22q56 0 109 -20.5t95 -62.5t67 -106.5t25 -152.5q0 -117 -42.5 -197.5t-112.5 -122.5t-153 -42zM372 14q74 0 139 38t105.5 113.5t40.5 187.5q0 109 -38.5 181t-101 108t-135.5 36
t-137.5 -37t-104 -111.5t-39.5 -187.5q0 -111 38 -183.5t100 -108.5t133 -36zM384 756q-27 0 -53 10.5t-42.5 31t-17.5 50.5l15 2q5 -37 35 -55t64 -18q35 0 63.5 18t31.5 54l15 1q0 -31 -16 -52t-41.5 -31.5t-53.5 -10.5z" />
    <glyph glyph-name="Ocircumflex" unicode="&#xd4;" horiz-adv-x="757" 
d="M371 -6q-77 0 -143.5 38t-107.5 115t-41 194q0 90 25 157t68 111.5t97.5 66.5t113.5 22q56 0 109 -20.5t95 -62.5t67 -106.5t25 -152.5q0 -117 -42.5 -197.5t-112.5 -122.5t-153 -42zM372 14q74 0 139 38t105.5 113.5t40.5 187.5q0 109 -38.5 181t-101 108t-135.5 36
t-137.5 -37t-104 -111.5t-39.5 -187.5q0 -111 38 -183.5t100 -108.5t133 -36zM253 742l-11 13l131 107h15l135 -107l-11 -13l-136 95h9z" />
    <glyph glyph-name="uni1ED0" unicode="&#x1ed0;" horiz-adv-x="757" 
d="M371 -6q-77 0 -143.5 38t-107.5 115t-41 194q0 90 25 157t68 111.5t97.5 66.5t113.5 22q56 0 109 -20.5t95 -62.5t67 -106.5t25 -152.5q0 -117 -42.5 -197.5t-112.5 -122.5t-153 -42zM372 14q74 0 139 38t105.5 113.5t40.5 187.5q0 109 -38.5 181t-101 108t-135.5 36
t-137.5 -37t-104 -111.5t-39.5 -187.5q0 -111 38 -183.5t100 -108.5t133 -36zM468 828l-12 14l108 103l22 -22zM255 732l-11 13l131 107h15l135 -107l-11 -13l-136 95h9z" />
    <glyph glyph-name="uni1ED8" unicode="&#x1ed8;" horiz-adv-x="757" 
d="M371 -6q-77 0 -143.5 38t-107.5 115t-41 194q0 90 25 157t68 111.5t97.5 66.5t113.5 22q56 0 109 -20.5t95 -62.5t67 -106.5t25 -152.5q0 -117 -42.5 -197.5t-112.5 -122.5t-153 -42zM372 14q74 0 139 38t105.5 113.5t40.5 187.5q0 109 -38.5 181t-101 108t-135.5 36
t-137.5 -37t-104 -111.5t-39.5 -187.5q0 -111 38 -183.5t100 -108.5t133 -36zM253 742l-11 13l131 107h15l135 -107l-11 -13l-136 95h9zM377 -143q-11 0 -18 8t-7 21q0 14 7.5 22t18.5 8q12 0 19 -8t7 -22t-8 -21.5t-19 -7.5z" />
    <glyph glyph-name="uni1ED2" unicode="&#x1ed2;" horiz-adv-x="757" 
d="M371 -6q-77 0 -143.5 38t-107.5 115t-41 194q0 90 25 157t68 111.5t97.5 66.5t113.5 22q56 0 109 -20.5t95 -62.5t67 -106.5t25 -152.5q0 -117 -42.5 -197.5t-112.5 -122.5t-153 -42zM372 14q74 0 139 38t105.5 113.5t40.5 187.5q0 109 -38.5 181t-101 108t-135.5 36
t-137.5 -37t-104 -111.5t-39.5 -187.5q0 -111 38 -183.5t100 -108.5t133 -36zM522 822l-110 101l22 22l101 -111zM255 732l-11 13l131 107h15l135 -107l-11 -13l-136 95h9z" />
    <glyph glyph-name="uni1ED4" unicode="&#x1ed4;" horiz-adv-x="757" 
d="M371 -6q-77 0 -143.5 38t-107.5 115t-41 194q0 90 25 157t68 111.5t97.5 66.5t113.5 22q56 0 109 -20.5t95 -62.5t67 -106.5t25 -152.5q0 -117 -42.5 -197.5t-112.5 -122.5t-153 -42zM372 14q74 0 139 38t105.5 113.5t40.5 187.5q0 109 -38.5 181t-101 108t-135.5 36
t-137.5 -37t-104 -111.5t-39.5 -187.5q0 -111 38 -183.5t100 -108.5t133 -36zM255 727l-11 13l131 107h15l135 -107l-11 -13l-136 95h9zM468 814v46q33 2 51.5 14t18.5 37q0 24 -15.5 34t-38.5 10q-12 0 -26 -2t-28 -7l-5 16q14 6 29.5 9t30.5 3q31 0 53.5 -14.5t22.5 -47.5
q0 -27 -18.5 -44.5t-54.5 -22.5v-31h-20z" />
    <glyph glyph-name="uni1ED6" unicode="&#x1ed6;" horiz-adv-x="757" 
d="M371 -6q-77 0 -143.5 38t-107.5 115t-41 194q0 90 25 157t68 111.5t97.5 66.5t113.5 22q56 0 109 -20.5t95 -62.5t67 -106.5t25 -152.5q0 -117 -42.5 -197.5t-112.5 -122.5t-153 -42zM372 14q74 0 139 38t105.5 113.5t40.5 187.5q0 109 -38.5 181t-101 108t-135.5 36
t-137.5 -37t-104 -111.5t-39.5 -187.5q0 -111 38 -183.5t100 -108.5t133 -36zM262 863l-13 7q14 32 32.5 45.5t40.5 13.5q23 0 44.5 -10.5t41 -21t36.5 -10.5t31 9.5t27 34.5l13 -7q-15 -32 -33.5 -45t-39.5 -13q-23 0 -42 10.5t-38.5 21t-42.5 10.5q-16 0 -30 -10.5
t-27 -34.5zM255 732l-11 13l131 107h15l135 -107l-11 -13l-136 95h9z" />
    <glyph glyph-name="uni020C" unicode="&#x20c;" horiz-adv-x="757" 
d="M371 -6q-77 0 -143.5 38t-107.5 115t-41 194q0 90 25 157t68 111.5t97.5 66.5t113.5 22q56 0 109 -20.5t95 -62.5t67 -106.5t25 -152.5q0 -117 -42.5 -197.5t-112.5 -122.5t-153 -42zM372 14q74 0 139 38t105.5 113.5t40.5 187.5q0 109 -38.5 181t-101 108t-135.5 36
t-137.5 -37t-104 -111.5t-39.5 -187.5q0 -111 38 -183.5t100 -108.5t133 -36zM333 745l16 9l-61 129l-25 -14zM444 745l16 8l-58 130l-26 -13z" />
    <glyph glyph-name="Odieresis" unicode="&#xd6;" horiz-adv-x="757" 
d="M371 -6q-77 0 -143.5 38t-107.5 115t-41 194q0 90 25 157t68 111.5t97.5 66.5t113.5 22q56 0 109 -20.5t95 -62.5t67 -106.5t25 -152.5q0 -117 -42.5 -197.5t-112.5 -122.5t-153 -42zM372 14q74 0 139 38t105.5 113.5t40.5 187.5q0 109 -38.5 181t-101 108t-135.5 36
t-137.5 -37t-104 -111.5t-39.5 -187.5q0 -111 38 -183.5t100 -108.5t133 -36zM471 772q-11 0 -18 8t-7 21q0 14 7.5 22t17.5 8q11 0 18 -8t7 -22q0 -13 -7.5 -21t-17.5 -8zM294 772q-11 0 -18 8t-7 21q0 14 7.5 22t17.5 8q11 0 18 -8t7 -22q0 -13 -7.5 -21t-17.5 -8z" />
    <glyph glyph-name="uni022A" unicode="&#x22a;" horiz-adv-x="757" 
d="M371 -6q-77 0 -143.5 38t-107.5 115t-41 194q0 90 25 157t68 111.5t97.5 66.5t113.5 22q56 0 109 -20.5t95 -62.5t67 -106.5t25 -152.5q0 -117 -42.5 -197.5t-112.5 -122.5t-153 -42zM372 14q74 0 139 38t105.5 113.5t40.5 187.5q0 109 -38.5 181t-101 108t-135.5 36
t-137.5 -37t-104 -111.5t-39.5 -187.5q0 -111 38 -183.5t100 -108.5t133 -36zM471 744q-11 0 -18 8t-7 21q0 14 7.5 22t17.5 8q11 0 18 -8t7 -22q0 -13 -7.5 -21t-17.5 -8zM294 744q-11 0 -18 8t-7 21q0 14 7.5 22t17.5 8q11 0 18 -8t7 -22q0 -13 -7.5 -21t-17.5 -8z
M498 879v-21h-230v21h230z" />
    <glyph glyph-name="uni0230" unicode="&#x230;" horiz-adv-x="757" 
d="M371 -6q-77 0 -143.5 38t-107.5 115t-41 194q0 90 25 157t68 111.5t97.5 66.5t113.5 22q56 0 109 -20.5t95 -62.5t67 -106.5t25 -152.5q0 -117 -42.5 -197.5t-112.5 -122.5t-153 -42zM372 14q74 0 139 38t105.5 113.5t40.5 187.5q0 109 -38.5 181t-101 108t-135.5 36
t-137.5 -37t-104 -111.5t-39.5 -187.5q0 -111 38 -183.5t100 -108.5t133 -36zM382 744q-11 0 -18 8t-7 21q0 14 7.5 22t18.5 8q12 0 19 -8t7 -22t-8 -21.5t-19 -7.5zM498 879v-21h-230v21h230z" />
    <glyph glyph-name="uni1ECC" unicode="&#x1ecc;" horiz-adv-x="757" 
d="M371 -6q-77 0 -143.5 38t-107.5 115t-41 194q0 90 25 157t68 111.5t97.5 66.5t113.5 22q56 0 109 -20.5t95 -62.5t67 -106.5t25 -152.5q0 -117 -42.5 -197.5t-112.5 -122.5t-153 -42zM372 14q74 0 139 38t105.5 113.5t40.5 187.5q0 109 -38.5 181t-101 108t-135.5 36
t-137.5 -37t-104 -111.5t-39.5 -187.5q0 -111 38 -183.5t100 -108.5t133 -36zM378 -143q-11 0 -18 8t-7 21q0 14 7.5 22t18.5 8q12 0 19 -8t7 -22t-8 -21.5t-19 -7.5z" />
    <glyph glyph-name="Ograve" unicode="&#xd2;" horiz-adv-x="757" 
d="M371 -6q-77 0 -143.5 38t-107.5 115t-41 194q0 90 25 157t68 111.5t97.5 66.5t113.5 22q56 0 109 -20.5t95 -62.5t67 -106.5t25 -152.5q0 -117 -42.5 -197.5t-112.5 -122.5t-153 -42zM372 14q74 0 139 38t105.5 113.5t40.5 187.5q0 109 -38.5 181t-101 108t-135.5 36
t-137.5 -37t-104 -111.5t-39.5 -187.5q0 -111 38 -183.5t100 -108.5t133 -36zM466 747l-180 92l19 29l170 -106z" />
    <glyph glyph-name="uni1ECE" unicode="&#x1ece;" horiz-adv-x="757" 
d="M371 -6q-77 0 -143.5 38t-107.5 115t-41 194q0 90 25 157t68 111.5t97.5 66.5t113.5 22q56 0 109 -20.5t95 -62.5t67 -106.5t25 -152.5q0 -117 -42.5 -197.5t-112.5 -122.5t-153 -42zM372 14q74 0 139 38t105.5 113.5t40.5 187.5q0 109 -38.5 181t-101 108t-135.5 36
t-137.5 -37t-104 -111.5t-39.5 -187.5q0 -111 38 -183.5t100 -108.5t133 -36zM372 730v46q33 2 51.5 14t18.5 37q0 24 -15.5 34t-38.5 10q-12 0 -26 -2t-28 -7l-5 16q14 6 29.5 9t30.5 3q31 0 53.5 -14.5t22.5 -47.5q0 -27 -18.5 -44.5t-54.5 -22.5v-31h-20z" />
    <glyph glyph-name="Ohorn" unicode="&#x1a0;" horiz-adv-x="769" 
d="M371 -6q-77 0 -143.5 38t-107.5 115t-41 194q0 90 25 157t68 111.5t97.5 66.5t113.5 22q56 0 109 -20.5t95 -62.5t67 -106.5t25 -152.5q0 -117 -42.5 -197.5t-112.5 -122.5t-153 -42zM372 14q74 0 139 38t105.5 113.5t40.5 187.5q0 109 -38.5 181t-101 108t-135.5 36
t-137.5 -37t-104 -111.5t-39.5 -187.5q0 -111 38 -183.5t100 -108.5t133 -36zM527 648l-30 19q75 1 120 23t45 64q0 10 -3 26t-9 34l20 7q8 -21 11 -39t3 -31q0 -46 -44 -73.5t-113 -29.5z" />
    <glyph glyph-name="uni1EDA" unicode="&#x1eda;" horiz-adv-x="769" 
d="M371 -6q-77 0 -143.5 38t-107.5 115t-41 194q0 90 25 157t68 111.5t97.5 66.5t113.5 22q56 0 109 -20.5t95 -62.5t67 -106.5t25 -152.5q0 -117 -42.5 -197.5t-112.5 -122.5t-153 -42zM372 14q74 0 139 38t105.5 113.5t40.5 187.5q0 109 -38.5 181t-101 108t-135.5 36
t-137.5 -37t-104 -111.5t-39.5 -187.5q0 -111 38 -183.5t100 -108.5t133 -36zM527 648l-30 19q75 1 120 23t45 64q0 10 -3 26t-9 34l20 7q8 -21 11 -39t3 -31q0 -46 -44 -73.5t-113 -29.5zM306 747l-10 15l170 106l17 -28z" />
    <glyph glyph-name="uni1EE2" unicode="&#x1ee2;" horiz-adv-x="769" 
d="M371 -6q-77 0 -143.5 38t-107.5 115t-41 194q0 90 25 157t68 111.5t97.5 66.5t113.5 22q56 0 109 -20.5t95 -62.5t67 -106.5t25 -152.5q0 -117 -42.5 -197.5t-112.5 -122.5t-153 -42zM372 14q74 0 139 38t105.5 113.5t40.5 187.5q0 109 -38.5 181t-101 108t-135.5 36
t-137.5 -37t-104 -111.5t-39.5 -187.5q0 -111 38 -183.5t100 -108.5t133 -36zM527 648l-30 19q75 1 120 23t45 64q0 10 -3 26t-9 34l20 7q8 -21 11 -39t3 -31q0 -46 -44 -73.5t-113 -29.5zM378 -143q-11 0 -18 8t-7 21q0 14 7.5 22t18.5 8q12 0 19 -8t7 -22t-8 -21.5
t-19 -7.5z" />
    <glyph glyph-name="uni1EDC" unicode="&#x1edc;" horiz-adv-x="769" 
d="M371 -6q-77 0 -143.5 38t-107.5 115t-41 194q0 90 25 157t68 111.5t97.5 66.5t113.5 22q56 0 109 -20.5t95 -62.5t67 -106.5t25 -152.5q0 -117 -42.5 -197.5t-112.5 -122.5t-153 -42zM372 14q74 0 139 38t105.5 113.5t40.5 187.5q0 109 -38.5 181t-101 108t-135.5 36
t-137.5 -37t-104 -111.5t-39.5 -187.5q0 -111 38 -183.5t100 -108.5t133 -36zM527 648l-30 19q75 1 120 23t45 64q0 10 -3 26t-9 34l20 7q8 -21 11 -39t3 -31q0 -46 -44 -73.5t-113 -29.5zM466 747l-180 92l19 29l170 -106z" />
    <glyph glyph-name="uni1EDE" unicode="&#x1ede;" horiz-adv-x="769" 
d="M371 -6q-77 0 -143.5 38t-107.5 115t-41 194q0 90 25 157t68 111.5t97.5 66.5t113.5 22q56 0 109 -20.5t95 -62.5t67 -106.5t25 -152.5q0 -117 -42.5 -197.5t-112.5 -122.5t-153 -42zM372 14q74 0 139 38t105.5 113.5t40.5 187.5q0 109 -38.5 181t-101 108t-135.5 36
t-137.5 -37t-104 -111.5t-39.5 -187.5q0 -111 38 -183.5t100 -108.5t133 -36zM527 648l-30 19q75 1 120 23t45 64q0 10 -3 26t-9 34l20 7q8 -21 11 -39t3 -31q0 -46 -44 -73.5t-113 -29.5zM372 730v46q33 2 51.5 14t18.5 37q0 24 -15.5 34t-38.5 10q-12 0 -26 -2t-28 -7
l-5 16q14 6 29.5 9t30.5 3q31 0 53.5 -14.5t22.5 -47.5q0 -27 -18.5 -44.5t-54.5 -22.5v-31h-20z" />
    <glyph glyph-name="uni1EE0" unicode="&#x1ee0;" horiz-adv-x="769" 
d="M371 -6q-77 0 -143.5 38t-107.5 115t-41 194q0 90 25 157t68 111.5t97.5 66.5t113.5 22q56 0 109 -20.5t95 -62.5t67 -106.5t25 -152.5q0 -117 -42.5 -197.5t-112.5 -122.5t-153 -42zM372 14q74 0 139 38t105.5 113.5t40.5 187.5q0 109 -38.5 181t-101 108t-135.5 36
t-137.5 -37t-104 -111.5t-39.5 -187.5q0 -111 38 -183.5t100 -108.5t133 -36zM527 648l-30 19q75 1 120 23t45 64q0 10 -3 26t-9 34l20 7q8 -21 11 -39t3 -31q0 -46 -44 -73.5t-113 -29.5zM257 773l-14 7q15 32 34.5 45.5t42.5 13.5q24 0 46.5 -10.5t43 -21t38.5 -10.5
q17 0 32 9.5t29 34.5l14 -7q-16 -32 -35 -45t-42 -13q-24 0 -44.5 10.5t-40.5 21t-44 10.5q-18 0 -32 -10.5t-28 -34.5z" />
    <glyph glyph-name="Ohungarumlaut" unicode="&#x150;" horiz-adv-x="757" 
d="M371 -6q-77 0 -143.5 38t-107.5 115t-41 194q0 90 25 157t68 111.5t97.5 66.5t113.5 22q56 0 109 -20.5t95 -62.5t67 -106.5t25 -152.5q0 -117 -42.5 -197.5t-112.5 -122.5t-153 -42zM372 14q74 0 139 38t105.5 113.5t40.5 187.5q0 109 -38.5 181t-101 108t-135.5 36
t-137.5 -37t-104 -111.5t-39.5 -187.5q0 -111 38 -183.5t100 -108.5t133 -36zM445 745l-16 9l61 129l25 -14zM334 745l-16 8l58 130l26 -13z" />
    <glyph glyph-name="uni020E" unicode="&#x20e;" horiz-adv-x="757" 
d="M371 -6q-77 0 -143.5 38t-107.5 115t-41 194q0 90 25 157t68 111.5t97.5 66.5t113.5 22q56 0 109 -20.5t95 -62.5t67 -106.5t25 -152.5q0 -117 -42.5 -197.5t-112.5 -122.5t-153 -42zM372 14q74 0 139 38t105.5 113.5t40.5 187.5q0 109 -38.5 181t-101 108t-135.5 36
t-137.5 -37t-104 -111.5t-39.5 -187.5q0 -111 38 -183.5t100 -108.5t133 -36zM382 847q32 0 55.5 -12t37.5 -34t15 -51l-18 -2q-4 35 -29 56t-62 21t-60.5 -20.5t-26.5 -55.5l-18 -1q0 30 13 52t37 34.5t56 12.5z" />
    <glyph glyph-name="Omacron" unicode="&#x14c;" horiz-adv-x="757" 
d="M371 -6q-77 0 -143.5 38t-107.5 115t-41 194q0 90 25 157t68 111.5t97.5 66.5t113.5 22q56 0 109 -20.5t95 -62.5t67 -106.5t25 -152.5q0 -117 -42.5 -197.5t-112.5 -122.5t-153 -42zM372 14q74 0 139 38t105.5 113.5t40.5 187.5q0 109 -38.5 181t-101 108t-135.5 36
t-137.5 -37t-104 -111.5t-39.5 -187.5q0 -111 38 -183.5t100 -108.5t133 -36zM498 809v-21h-230v21h230z" />
    <glyph glyph-name="uni01EA" unicode="&#x1ea;" horiz-adv-x="757" 
d="M371 -6q-77 0 -143.5 38t-107.5 115t-41 194q0 90 25 157t68 111.5t97.5 66.5t113.5 22q56 0 109 -20.5t95 -62.5t67 -106.5t25 -152.5q0 -117 -42.5 -197.5t-112.5 -122.5t-153 -42zM372 14q74 0 139 38t105.5 113.5t40.5 187.5q0 109 -38.5 181t-101 108t-135.5 36
t-137.5 -37t-104 -111.5t-39.5 -187.5q0 -111 38 -183.5t100 -108.5t133 -36zM395 -216q-54 0 -82 25.5t-28 60.5q0 26 15.5 53t46.5 51t77 40l7 -14q-63 -25 -94 -60t-31 -68q0 -28 24 -48.5t70 -20.5q9 0 18.5 1t19.5 3l4 -18q-13 -2 -24.5 -3.5t-22.5 -1.5z" />
    <glyph glyph-name="Oslash" unicode="&#xd8;" horiz-adv-x="757" 
d="M630 762l17 -10l-80 -126l-5 -7l-352 -557l-4 -7l-79 -125l-17 11l80 127l5 8l351 553l5 9zM371 -6q-77 0 -143.5 38t-107.5 115t-41 194q0 90 25 157t68 111.5t97.5 66.5t113.5 22q56 0 109 -20.5t95 -62.5t67 -106.5t25 -152.5q0 -117 -42.5 -197.5t-112.5 -122.5
t-153 -42zM372 14q74 0 139 38t105.5 113.5t40.5 187.5q0 109 -38.5 181t-101 108t-135.5 36t-137.5 -37t-104 -111.5t-39.5 -187.5q0 -111 38 -183.5t100 -108.5t133 -36z" />
    <glyph glyph-name="Oslashacute" unicode="&#x1fe;" horiz-adv-x="757" 
d="M630 762l17 -10l-80 -126l-5 -7l-352 -557l-4 -7l-79 -125l-17 11l80 127l5 8l351 553l5 9zM371 -6q-77 0 -143.5 38t-107.5 115t-41 194q0 90 25 157t68 111.5t97.5 66.5t113.5 22q56 0 109 -20.5t95 -62.5t67 -106.5t25 -152.5q0 -117 -42.5 -197.5t-112.5 -122.5
t-153 -42zM372 14q74 0 139 38t105.5 113.5t40.5 187.5q0 109 -38.5 181t-101 108t-135.5 36t-137.5 -37t-104 -111.5t-39.5 -187.5q0 -111 38 -183.5t100 -108.5t133 -36zM306 747l-10 15l170 106l17 -28z" />
    <glyph glyph-name="Otilde" unicode="&#xd5;" horiz-adv-x="757" 
d="M371 -6q-77 0 -143.5 38t-107.5 115t-41 194q0 90 25 157t68 111.5t97.5 66.5t113.5 22q56 0 109 -20.5t95 -62.5t67 -106.5t25 -152.5q0 -117 -42.5 -197.5t-112.5 -122.5t-153 -42zM372 14q74 0 139 38t105.5 113.5t40.5 187.5q0 109 -38.5 181t-101 108t-135.5 36
t-137.5 -37t-104 -111.5t-39.5 -187.5q0 -111 38 -183.5t100 -108.5t133 -36zM257 773l-14 7q15 32 34.5 45.5t42.5 13.5q24 0 46.5 -10.5t43 -21t38.5 -10.5q17 0 32 9.5t29 34.5l14 -7q-16 -32 -35 -45t-42 -13q-24 0 -44.5 10.5t-40.5 21t-44 10.5q-18 0 -32 -10.5
t-28 -34.5z" />
    <glyph glyph-name="uni022C" unicode="&#x22c;" horiz-adv-x="757" 
d="M371 -6q-77 0 -143.5 38t-107.5 115t-41 194q0 90 25 157t68 111.5t97.5 66.5t113.5 22q56 0 109 -20.5t95 -62.5t67 -106.5t25 -152.5q0 -117 -42.5 -197.5t-112.5 -122.5t-153 -42zM372 14q74 0 139 38t105.5 113.5t40.5 187.5q0 109 -38.5 181t-101 108t-135.5 36
t-137.5 -37t-104 -111.5t-39.5 -187.5q0 -111 38 -183.5t100 -108.5t133 -36zM255 737l-14 7q15 32 34.5 45.5t42.5 13.5q24 0 46.5 -10.5t43 -21t38.5 -10.5q17 0 32 9.5t29 34.5l14 -7q-16 -32 -35 -45t-42 -13q-24 0 -44.5 10.5t-40.5 21t-44 10.5q-18 0 -32 -10.5
t-28 -34.5zM498 879v-21h-230v21h230z" />
    <glyph glyph-name="Racute" unicode="&#x154;" horiz-adv-x="648" 
d="M61 0v15l107 14l-7 -8v650l7 -8l-107 9v15l121 5h136q106 0 160.5 -44t54.5 -128q0 -80 -51.5 -129.5t-151.5 -57.5l-2 3q39 -6 63 -22t41 -42t35 -64l89 -186l-10 7l78 -14v-15h-83l-93 202q-21 46 -42.5 73t-54.5 39.5t-91 12.5h-86l7 7v-313l-7 8l132 -14v-15h-245z
M181 339l-7 7h108q109 0 169 44t60 129q0 76 -49.5 115t-145.5 39h-142l7 7v-341zM228 747l-10 15l170 106l17 -28z" />
    <glyph glyph-name="Rcaron" unicode="&#x158;" horiz-adv-x="648" 
d="M61 0v15l107 14l-7 -8v650l7 -8l-107 9v15l121 5h136q106 0 160.5 -44t54.5 -128q0 -80 -51.5 -129.5t-151.5 -57.5l-2 3q39 -6 63 -22t41 -42t35 -64l89 -186l-10 7l78 -14v-15h-83l-93 202q-21 46 -42.5 73t-54.5 39.5t-91 12.5h-86l7 7v-313l-7 8l132 -14v-15h-245z
M181 339l-7 7h108q109 0 169 44t60 129q0 76 -49.5 115t-145.5 39h-142l7 7v-341zM434 872l11 -13l-131 -107h-15l-135 107l11 13l136 -95h-9z" />
    <glyph glyph-name="uni0156" unicode="&#x156;" horiz-adv-x="648" 
d="M61 0v15l107 14l-7 -8v650l7 -8l-107 9v15l121 5h136q106 0 160.5 -44t54.5 -128q0 -80 -51.5 -129.5t-151.5 -57.5l-2 3q39 -6 63 -22t41 -42t35 -64l89 -186l-10 7l78 -14v-15h-83l-93 202q-21 46 -42.5 73t-54.5 39.5t-91 12.5h-86l7 7v-313l-7 8l132 -14v-15h-245z
M181 339l-7 7h108q109 0 169 44t60 129q0 76 -49.5 115t-145.5 39h-142l7 7v-341zM319 -230l-12 8q15 26 20 46.5t5 27.5q0 9 -4 14l-8 10t-4 15q0 13 8 20t18 7t18 -7.5t8 -23.5q0 -17 -12.5 -48t-36.5 -69z" />
    <glyph glyph-name="uni0210" unicode="&#x210;" horiz-adv-x="648" 
d="M61 0v15l107 14l-7 -8v650l7 -8l-107 9v15l121 5h136q106 0 160.5 -44t54.5 -128q0 -80 -51.5 -129.5t-151.5 -57.5l-2 3q39 -6 63 -22t41 -42t35 -64l89 -186l-10 7l78 -14v-15h-83l-93 202q-21 46 -42.5 73t-54.5 39.5t-91 12.5h-86l7 7v-313l-7 8l132 -14v-15h-245z
M181 339l-7 7h108q109 0 169 44t60 129q0 76 -49.5 115t-145.5 39h-142l7 7v-341zM255 745l16 9l-61 129l-25 -14zM366 745l16 8l-58 130l-26 -13z" />
    <glyph glyph-name="uni0212" unicode="&#x212;" horiz-adv-x="648" 
d="M61 0v15l107 14l-7 -8v650l7 -8l-107 9v15l121 5h136q106 0 160.5 -44t54.5 -128q0 -80 -51.5 -129.5t-151.5 -57.5l-2 3q39 -6 63 -22t41 -42t35 -64l89 -186l-10 7l78 -14v-15h-83l-93 202q-21 46 -42.5 73t-54.5 39.5t-91 12.5h-86l7 7v-313l-7 8l132 -14v-15h-245z
M181 339l-7 7h108q109 0 169 44t60 129q0 76 -49.5 115t-145.5 39h-142l7 7v-341zM304 847q32 0 55.5 -12t37.5 -34t15 -51l-18 -2q-4 35 -29 56t-62 21t-60.5 -20.5t-26.5 -55.5l-18 -1q0 30 13 52t37 34.5t56 12.5z" />
    <glyph glyph-name="Sacute" unicode="&#x15a;" horiz-adv-x="598" 
d="M122 528q0 -46 21 -74.5t55.5 -46t76 -30t82.5 -25.5t75.5 -32.5t55.5 -52t21 -84.5q0 -64 -32.5 -106t-86 -62.5t-117.5 -20.5q-46 0 -94 10.5t-94 31.5l6 139h15l12 -134l-5 10q40 -18 81.5 -27t81.5 -9q57 0 105 18.5t77 55.5t29 92q0 47 -21 76.5t-55.5 47.5
t-75.5 30.5t-82.5 25t-76 31.5t-55.5 50.5t-21 81.5q0 58 29 96.5t79 58t112 19.5q43 0 88 -9.5t88 -29.5l-6 -137h-15l-9 131l8 -9q-34 16 -75 25t-82 9q-50 0 -95 -15t-72.5 -48t-27.5 -87zM234 747l-10 15l170 106l17 -28z" />
    <glyph glyph-name="Scaron" unicode="&#x160;" horiz-adv-x="598" 
d="M122 528q0 -46 21 -74.5t55.5 -46t76 -30t82.5 -25.5t75.5 -32.5t55.5 -52t21 -84.5q0 -64 -32.5 -106t-86 -62.5t-117.5 -20.5q-46 0 -94 10.5t-94 31.5l6 139h15l12 -134l-5 10q40 -18 81.5 -27t81.5 -9q57 0 105 18.5t77 55.5t29 92q0 47 -21 76.5t-55.5 47.5
t-75.5 30.5t-82.5 25t-76 31.5t-55.5 50.5t-21 81.5q0 58 29 96.5t79 58t112 19.5q43 0 88 -9.5t88 -29.5l-6 -137h-15l-9 131l8 -9q-34 16 -75 25t-82 9q-50 0 -95 -15t-72.5 -48t-27.5 -87zM440 872l11 -13l-131 -107h-15l-135 107l11 13l136 -95h-9z" />
    <glyph glyph-name="Scedilla" unicode="&#x15e;" horiz-adv-x="598" 
d="M122 528q0 -46 21 -74.5t55.5 -46t76 -30t82.5 -25.5t75.5 -32.5t55.5 -52t21 -84.5q0 -64 -32.5 -106t-86 -62.5t-117.5 -20.5q-46 0 -94 10.5t-94 31.5l6 139h15l12 -134l-5 10q40 -18 81.5 -27t81.5 -9q57 0 105 18.5t77 55.5t29 92q0 47 -21 76.5t-55.5 47.5
t-75.5 30.5t-82.5 25t-76 31.5t-55.5 50.5t-21 81.5q0 58 29 96.5t79 58t112 19.5q43 0 88 -9.5t88 -29.5l-6 -137h-15l-9 131l8 -9q-34 16 -75 25t-82 9q-50 0 -95 -15t-72.5 -48t-27.5 -87zM320 -212q-17 0 -36 4t-37 12l8 17q15 -6 32 -9.5t33 -3.5q29 0 49.5 13t20.5 38
q0 17 -10.5 29t-32 18.5t-55.5 6.5l4 87h19v-68q56 -4 76 -23.5t20 -46.5q0 -25 -12 -41.5t-32.5 -24.5t-46.5 -8z" />
    <glyph glyph-name="Scircumflex" unicode="&#x15c;" horiz-adv-x="598" 
d="M122 528q0 -46 21 -74.5t55.5 -46t76 -30t82.5 -25.5t75.5 -32.5t55.5 -52t21 -84.5q0 -64 -32.5 -106t-86 -62.5t-117.5 -20.5q-46 0 -94 10.5t-94 31.5l6 139h15l12 -134l-5 10q40 -18 81.5 -27t81.5 -9q57 0 105 18.5t77 55.5t29 92q0 47 -21 76.5t-55.5 47.5
t-75.5 30.5t-82.5 25t-76 31.5t-55.5 50.5t-21 81.5q0 58 29 96.5t79 58t112 19.5q43 0 88 -9.5t88 -29.5l-6 -137h-15l-9 131l8 -9q-34 16 -75 25t-82 9q-50 0 -95 -15t-72.5 -48t-27.5 -87zM181 742l-11 13l131 107h15l135 -107l-11 -13l-136 95h9z" />
    <glyph glyph-name="uni0218" unicode="&#x218;" horiz-adv-x="598" 
d="M122 528q0 -46 21 -74.5t55.5 -46t76 -30t82.5 -25.5t75.5 -32.5t55.5 -52t21 -84.5q0 -64 -32.5 -106t-86 -62.5t-117.5 -20.5q-46 0 -94 10.5t-94 31.5l6 139h15l12 -134l-5 10q40 -18 81.5 -27t81.5 -9q57 0 105 18.5t77 55.5t29 92q0 47 -21 76.5t-55.5 47.5
t-75.5 30.5t-82.5 25t-76 31.5t-55.5 50.5t-21 81.5q0 58 29 96.5t79 58t112 19.5q43 0 88 -9.5t88 -29.5l-6 -137h-15l-9 131l8 -9q-34 16 -75 25t-82 9q-50 0 -95 -15t-72.5 -48t-27.5 -87zM279 -230l-12 8q15 26 20 46.5t5 27.5q0 9 -4 14l-8 10t-4 15q0 13 8 20t18 7
t18 -7.5t8 -23.5q0 -17 -12.5 -48t-36.5 -69z" />
    <glyph glyph-name="Tbar" unicode="&#x166;" horiz-adv-x="558" 
d="M119 345v19h320v-19h-320zM154 0v15l122 14l-7 -8v659l7 -7h-221l8 7l-15 -128h-15v140h492v-140h-15l-15 128l8 -7h-221l7 7v-659l-7 8l122 -14v-15h-250z" />
    <glyph glyph-name="Tcaron" unicode="&#x164;" horiz-adv-x="558" 
d="M154 0v15l122 14l-7 -8v659l7 -7h-221l8 7l-15 -128h-15v140h492v-140h-15l-15 128l8 -7h-221l7 7v-659l-7 8l122 -14v-15h-250zM408 872l11 -13l-131 -107h-15l-135 107l11 13l136 -95h-9z" />
    <glyph glyph-name="uni0162" unicode="&#x162;" horiz-adv-x="558" 
d="M154 0v15l122 14l-7 -8v659l7 -7h-221l8 7l-15 -128h-15v140h492v-140h-15l-15 128l8 -7h-221l7 7v-659l-7 8l122 -14v-15h-250zM294 -212q-17 0 -36 4t-37 12l8 17q15 -6 32 -9.5t33 -3.5q29 0 49.5 13t20.5 38q0 17 -10.5 29t-32 18.5t-55.5 6.5l4 87h19v-68
q56 -4 76 -23.5t20 -46.5q0 -25 -12 -41.5t-32.5 -24.5t-46.5 -8z" />
    <glyph glyph-name="uni021A" unicode="&#x21a;" horiz-adv-x="558" 
d="M154 0v15l122 14l-7 -8v659l7 -7h-221l8 7l-15 -128h-15v140h492v-140h-15l-15 128l8 -7h-221l7 7v-659l-7 8l122 -14v-15h-250zM253 -230l-12 8q15 26 20 46.5t5 27.5q0 9 -4 14l-8 10t-4 15q0 13 8 20t18 7t18 -7.5t8 -23.5q0 -17 -12.5 -48t-36.5 -69z" />
    <glyph glyph-name="Uacute" unicode="&#xda;" horiz-adv-x="755" 
d="M497 687l220 5v-15l-107 -14l7 8v-417q0 -25 -2.5 -58.5t-13.5 -68.5t-36 -65.5t-71 -49t-118 -18.5q-71 0 -116 18t-70 47.5t-35.5 63.5t-13 66t-2.5 56v426l7 -8l-107 9v15l220 5v-15l-107 -14l7 8v-426q0 -24 2 -55t12 -62t33 -57t64 -42t106 -16q66 0 108 16.5
t65.5 44t33.5 60t12 64t2 56.5v417l7 -7l-107 8v15zM301 747l-10 15l170 106l17 -28z" />
    <glyph glyph-name="Ubreve" unicode="&#x16c;" horiz-adv-x="755" 
d="M497 687l220 5v-15l-107 -14l7 8v-417q0 -25 -2.5 -58.5t-13.5 -68.5t-36 -65.5t-71 -49t-118 -18.5q-71 0 -116 18t-70 47.5t-35.5 63.5t-13 66t-2.5 56v426l7 -8l-107 9v15l220 5v-15l-107 -14l7 8v-426q0 -24 2 -55t12 -62t33 -57t64 -42t106 -16q66 0 108 16.5
t65.5 44t33.5 60t12 64t2 56.5v417l7 -7l-107 8v15zM379 756q-27 0 -53 10.5t-42.5 31t-17.5 50.5l15 2q5 -37 35 -55t64 -18q35 0 63.5 18t31.5 54l15 1q0 -31 -16 -52t-41.5 -31.5t-53.5 -10.5z" />
    <glyph glyph-name="Ucircumflex" unicode="&#xdb;" horiz-adv-x="755" 
d="M497 687l220 5v-15l-107 -14l7 8v-417q0 -25 -2.5 -58.5t-13.5 -68.5t-36 -65.5t-71 -49t-118 -18.5q-71 0 -116 18t-70 47.5t-35.5 63.5t-13 66t-2.5 56v426l7 -8l-107 9v15l220 5v-15l-107 -14l7 8v-426q0 -24 2 -55t12 -62t33 -57t64 -42t106 -16q66 0 108 16.5
t65.5 44t33.5 60t12 64t2 56.5v417l7 -7l-107 8v15zM248 742l-11 13l131 107h15l135 -107l-11 -13l-136 95h9z" />
    <glyph glyph-name="uni0214" unicode="&#x214;" horiz-adv-x="755" 
d="M497 687l220 5v-15l-107 -14l7 8v-417q0 -25 -2.5 -58.5t-13.5 -68.5t-36 -65.5t-71 -49t-118 -18.5q-71 0 -116 18t-70 47.5t-35.5 63.5t-13 66t-2.5 56v426l7 -8l-107 9v15l220 5v-15l-107 -14l7 8v-426q0 -24 2 -55t12 -62t33 -57t64 -42t106 -16q66 0 108 16.5
t65.5 44t33.5 60t12 64t2 56.5v417l7 -7l-107 8v15zM328 745l16 9l-61 129l-25 -14zM439 745l16 8l-58 130l-26 -13z" />
    <glyph glyph-name="Udieresis" unicode="&#xdc;" horiz-adv-x="755" 
d="M497 687l220 5v-15l-107 -14l7 8v-417q0 -25 -2.5 -58.5t-13.5 -68.5t-36 -65.5t-71 -49t-118 -18.5q-71 0 -116 18t-70 47.5t-35.5 63.5t-13 66t-2.5 56v426l7 -8l-107 9v15l220 5v-15l-107 -14l7 8v-426q0 -24 2 -55t12 -62t33 -57t64 -42t106 -16q66 0 108 16.5
t65.5 44t33.5 60t12 64t2 56.5v417l7 -7l-107 8v15zM466 772q-11 0 -18 8t-7 21q0 14 7.5 22t17.5 8q11 0 18 -8t7 -22q0 -13 -7.5 -21t-17.5 -8zM289 772q-11 0 -18 8t-7 21q0 14 7.5 22t17.5 8q11 0 18 -8t7 -22q0 -13 -7.5 -21t-17.5 -8z" />
    <glyph glyph-name="uni1EE4" unicode="&#x1ee4;" horiz-adv-x="755" 
d="M497 687l220 5v-15l-107 -14l7 8v-417q0 -25 -2.5 -58.5t-13.5 -68.5t-36 -65.5t-71 -49t-118 -18.5q-71 0 -116 18t-70 47.5t-35.5 63.5t-13 66t-2.5 56v426l7 -8l-107 9v15l220 5v-15l-107 -14l7 8v-426q0 -24 2 -55t12 -62t33 -57t64 -42t106 -16q66 0 108 16.5
t65.5 44t33.5 60t12 64t2 56.5v417l7 -7l-107 8v15zM377 -143q-11 0 -18 8t-7 21q0 14 7.5 22t18.5 8q12 0 19 -8t7 -22t-8 -21.5t-19 -7.5z" />
    <glyph glyph-name="Ugrave" unicode="&#xd9;" horiz-adv-x="755" 
d="M497 687l220 5v-15l-107 -14l7 8v-417q0 -25 -2.5 -58.5t-13.5 -68.5t-36 -65.5t-71 -49t-118 -18.5q-71 0 -116 18t-70 47.5t-35.5 63.5t-13 66t-2.5 56v426l7 -8l-107 9v15l220 5v-15l-107 -14l7 8v-426q0 -24 2 -55t12 -62t33 -57t64 -42t106 -16q66 0 108 16.5
t65.5 44t33.5 60t12 64t2 56.5v417l7 -7l-107 8v15zM461 747l-180 92l19 29l170 -106z" />
    <glyph glyph-name="uni1EE6" unicode="&#x1ee6;" horiz-adv-x="755" 
d="M497 687l220 5v-15l-107 -14l7 8v-417q0 -25 -2.5 -58.5t-13.5 -68.5t-36 -65.5t-71 -49t-118 -18.5q-71 0 -116 18t-70 47.5t-35.5 63.5t-13 66t-2.5 56v426l7 -8l-107 9v15l220 5v-15l-107 -14l7 8v-426q0 -24 2 -55t12 -62t33 -57t64 -42t106 -16q66 0 108 16.5
t65.5 44t33.5 60t12 64t2 56.5v417l7 -7l-107 8v15zM367 730v46q33 2 51.5 14t18.5 37q0 24 -15.5 34t-38.5 10q-12 0 -26 -2t-28 -7l-5 16q14 6 29.5 9t30.5 3q31 0 53.5 -14.5t22.5 -47.5q0 -27 -18.5 -44.5t-54.5 -22.5v-31h-20z" />
    <glyph glyph-name="Uhorn" unicode="&#x1af;" horiz-adv-x="741" 
d="M611 670l6 10v-426q0 -82 -21.5 -140t-74 -89t-146.5 -31q-130 0 -183 63t-53 188v426l7 -8l-107 9v15l220 5v-15l-107 -14l7 8v-426q0 -118 47 -175t168 -57q88 0 136.5 28.5t67.5 82.5t19 130v417l7 -7l-107 8v15l119 3q41 1 58.5 16t17.5 45q0 26 -12 63l20 7
q8 -19 12 -36t4 -33q0 -38 -26 -60.5t-79 -21.5z" />
    <glyph glyph-name="uni1EE8" unicode="&#x1ee8;" horiz-adv-x="741" 
d="M611 670l6 10v-426q0 -82 -21.5 -140t-74 -89t-146.5 -31q-130 0 -183 63t-53 188v426l7 -8l-107 9v15l220 5v-15l-107 -14l7 8v-426q0 -118 47 -175t168 -57q88 0 136.5 28.5t67.5 82.5t19 130v417l7 -7l-107 8v15l119 3q41 1 58.5 16t17.5 45q0 26 -12 63l20 7
q8 -19 12 -36t4 -33q0 -38 -26 -60.5t-79 -21.5zM301 747l-10 15l170 106l17 -28z" />
    <glyph glyph-name="uni1EF0" unicode="&#x1ef0;" horiz-adv-x="741" 
d="M611 670l6 10v-426q0 -82 -21.5 -140t-74 -89t-146.5 -31q-130 0 -183 63t-53 188v426l7 -8l-107 9v15l220 5v-15l-107 -14l7 8v-426q0 -118 47 -175t168 -57q88 0 136.5 28.5t67.5 82.5t19 130v417l7 -7l-107 8v15l119 3q41 1 58.5 16t17.5 45q0 26 -12 63l20 7
q8 -19 12 -36t4 -33q0 -38 -26 -60.5t-79 -21.5zM377 -143q-11 0 -18 8t-7 21q0 14 7.5 22t18.5 8q12 0 19 -8t7 -22t-8 -21.5t-19 -7.5z" />
    <glyph glyph-name="uni1EEA" unicode="&#x1eea;" horiz-adv-x="741" 
d="M611 670l6 10v-426q0 -82 -21.5 -140t-74 -89t-146.5 -31q-130 0 -183 63t-53 188v426l7 -8l-107 9v15l220 5v-15l-107 -14l7 8v-426q0 -118 47 -175t168 -57q88 0 136.5 28.5t67.5 82.5t19 130v417l7 -7l-107 8v15l119 3q41 1 58.5 16t17.5 45q0 26 -12 63l20 7
q8 -19 12 -36t4 -33q0 -38 -26 -60.5t-79 -21.5zM461 747l-180 92l19 29l170 -106z" />
    <glyph glyph-name="uni1EEC" unicode="&#x1eec;" horiz-adv-x="741" 
d="M611 670l6 10v-426q0 -82 -21.5 -140t-74 -89t-146.5 -31q-130 0 -183 63t-53 188v426l7 -8l-107 9v15l220 5v-15l-107 -14l7 8v-426q0 -118 47 -175t168 -57q88 0 136.5 28.5t67.5 82.5t19 130v417l7 -7l-107 8v15l119 3q41 1 58.5 16t17.5 45q0 26 -12 63l20 7
q8 -19 12 -36t4 -33q0 -38 -26 -60.5t-79 -21.5zM367 730v46q33 2 51.5 14t18.5 37q0 24 -15.5 34t-38.5 10q-12 0 -26 -2t-28 -7l-5 16q14 6 29.5 9t30.5 3q31 0 53.5 -14.5t22.5 -47.5q0 -27 -18.5 -44.5t-54.5 -22.5v-31h-20z" />
    <glyph glyph-name="uni1EEE" unicode="&#x1eee;" horiz-adv-x="741" 
d="M611 670l6 10v-426q0 -82 -21.5 -140t-74 -89t-146.5 -31q-130 0 -183 63t-53 188v426l7 -8l-107 9v15l220 5v-15l-107 -14l7 8v-426q0 -118 47 -175t168 -57q88 0 136.5 28.5t67.5 82.5t19 130v417l7 -7l-107 8v15l119 3q41 1 58.5 16t17.5 45q0 26 -12 63l20 7
q8 -19 12 -36t4 -33q0 -38 -26 -60.5t-79 -21.5zM252 773l-14 7q15 32 34.5 45.5t42.5 13.5q24 0 46.5 -10.5t43 -21t38.5 -10.5q17 0 32 9.5t29 34.5l14 -7q-16 -32 -35 -45t-42 -13q-24 0 -44.5 10.5t-40.5 21t-44 10.5q-18 0 -32 -10.5t-28 -34.5z" />
    <glyph glyph-name="Uhungarumlaut" unicode="&#x170;" horiz-adv-x="755" 
d="M497 687l220 5v-15l-107 -14l7 8v-417q0 -25 -2.5 -58.5t-13.5 -68.5t-36 -65.5t-71 -49t-118 -18.5q-71 0 -116 18t-70 47.5t-35.5 63.5t-13 66t-2.5 56v426l7 -8l-107 9v15l220 5v-15l-107 -14l7 8v-426q0 -24 2 -55t12 -62t33 -57t64 -42t106 -16q66 0 108 16.5
t65.5 44t33.5 60t12 64t2 56.5v417l7 -7l-107 8v15zM440 745l-16 9l61 129l25 -14zM329 745l-16 8l58 130l26 -13z" />
    <glyph glyph-name="uni0216" unicode="&#x216;" horiz-adv-x="755" 
d="M497 687l220 5v-15l-107 -14l7 8v-417q0 -25 -2.5 -58.5t-13.5 -68.5t-36 -65.5t-71 -49t-118 -18.5q-71 0 -116 18t-70 47.5t-35.5 63.5t-13 66t-2.5 56v426l7 -8l-107 9v15l220 5v-15l-107 -14l7 8v-426q0 -24 2 -55t12 -62t33 -57t64 -42t106 -16q66 0 108 16.5
t65.5 44t33.5 60t12 64t2 56.5v417l7 -7l-107 8v15zM377 847q32 0 55.5 -12t37.5 -34t15 -51l-18 -2q-4 35 -29 56t-62 21t-60.5 -20.5t-26.5 -55.5l-18 -1q0 30 13 52t37 34.5t56 12.5z" />
    <glyph glyph-name="Umacron" unicode="&#x16a;" horiz-adv-x="755" 
d="M497 687l220 5v-15l-107 -14l7 8v-417q0 -25 -2.5 -58.5t-13.5 -68.5t-36 -65.5t-71 -49t-118 -18.5q-71 0 -116 18t-70 47.5t-35.5 63.5t-13 66t-2.5 56v426l7 -8l-107 9v15l220 5v-15l-107 -14l7 8v-426q0 -24 2 -55t12 -62t33 -57t64 -42t106 -16q66 0 108 16.5
t65.5 44t33.5 60t12 64t2 56.5v417l7 -7l-107 8v15zM493 809v-21h-230v21h230z" />
    <glyph glyph-name="Uogonek" unicode="&#x172;" horiz-adv-x="755" 
d="M497 687l220 5v-15l-107 -14l7 8v-417q0 -25 -2.5 -58.5t-13.5 -68.5t-36 -65.5t-71 -49t-118 -18.5q-71 0 -116 18t-70 47.5t-35.5 63.5t-13 66t-2.5 56v426l7 -8l-107 9v15l220 5v-15l-107 -14l7 8v-426q0 -24 2 -55t12 -62t33 -57t64 -42t106 -16q66 0 108 16.5
t65.5 44t33.5 60t12 64t2 56.5v417l7 -7l-107 8v15zM410 -216q-54 0 -82 25.5t-28 60.5q0 26 15.5 53t46.5 51t77 40l7 -14q-63 -25 -94 -60t-31 -68q0 -28 24 -48.5t70 -20.5q9 0 18.5 1t19.5 3l4 -18q-13 -2 -24.5 -3.5t-22.5 -1.5z" />
    <glyph glyph-name="Uring" unicode="&#x16e;" horiz-adv-x="755" 
d="M497 687l220 5v-15l-107 -14l7 8v-417q0 -25 -2.5 -58.5t-13.5 -68.5t-36 -65.5t-71 -49t-118 -18.5q-71 0 -116 18t-70 47.5t-35.5 63.5t-13 66t-2.5 56v426l7 -8l-107 9v15l220 5v-15l-107 -14l7 8v-426q0 -24 2 -55t12 -62t33 -57t64 -42t106 -16q66 0 108 16.5
t65.5 44t33.5 60t12 64t2 56.5v417l7 -7l-107 8v15zM377 734q-18 0 -35.5 7.5t-29 23t-11.5 39.5t11 40t29 24.5t38 8.5q19 0 36 -7.5t28.5 -23t11.5 -39.5q0 -23 -11 -39.5t-28.5 -25t-38.5 -8.5zM378 752q26 0 41 15.5t15 38.5t-15 38t-41 15t-41 -15.5t-15 -38.5t15 -38
t41 -15z" />
    <glyph glyph-name="Utilde" unicode="&#x168;" horiz-adv-x="755" 
d="M497 687l220 5v-15l-107 -14l7 8v-417q0 -25 -2.5 -58.5t-13.5 -68.5t-36 -65.5t-71 -49t-118 -18.5q-71 0 -116 18t-70 47.5t-35.5 63.5t-13 66t-2.5 56v426l7 -8l-107 9v15l220 5v-15l-107 -14l7 8v-426q0 -24 2 -55t12 -62t33 -57t64 -42t106 -16q66 0 108 16.5
t65.5 44t33.5 60t12 64t2 56.5v417l7 -7l-107 8v15zM252 773l-14 7q15 32 34.5 45.5t42.5 13.5q24 0 46.5 -10.5t43 -21t38.5 -10.5q17 0 32 9.5t29 34.5l14 -7q-16 -32 -35 -45t-42 -13q-24 0 -44.5 10.5t-40.5 21t-44 10.5q-18 0 -32 -10.5t-28 -34.5z" />
    <glyph glyph-name="Wacute" unicode="&#x1e82;" horiz-adv-x="1027" 
d="M791 687l229 5v-15l-101 -14l9 7l-192 -672h-21l-202 664h4l-213 -664h-23l-179 673l9 -8l-104 9v15l234 5v-15l-123 -14l5 8l173 -650l-4 1l214 667l19 3l203 -668h-4l184 646l5 -6l-122 8v15zM439 747l-10 15l170 106l17 -28z" />
    <glyph glyph-name="Wcircumflex" unicode="&#x174;" horiz-adv-x="1027" 
d="M791 687l229 5v-15l-101 -14l9 7l-192 -672h-21l-202 664h4l-213 -664h-23l-179 673l9 -8l-104 9v15l234 5v-15l-123 -14l5 8l173 -650l-4 1l214 667l19 3l203 -668h-4l184 646l5 -6l-122 8v15zM386 742l-11 13l131 107h15l135 -107l-11 -13l-136 95h9z" />
    <glyph glyph-name="Wdieresis" unicode="&#x1e84;" horiz-adv-x="1027" 
d="M791 687l229 5v-15l-101 -14l9 7l-192 -672h-21l-202 664h4l-213 -664h-23l-179 673l9 -8l-104 9v15l234 5v-15l-123 -14l5 8l173 -650l-4 1l214 667l19 3l203 -668h-4l184 646l5 -6l-122 8v15zM604 772q-11 0 -18 8t-7 21q0 14 7.5 22t17.5 8q11 0 18 -8t7 -22
q0 -13 -7.5 -21t-17.5 -8zM427 772q-11 0 -18 8t-7 21q0 14 7.5 22t17.5 8q11 0 18 -8t7 -22q0 -13 -7.5 -21t-17.5 -8z" />
    <glyph glyph-name="Wgrave" unicode="&#x1e80;" horiz-adv-x="1027" 
d="M791 687l229 5v-15l-101 -14l9 7l-192 -672h-21l-202 664h4l-213 -664h-23l-179 673l9 -8l-104 9v15l234 5v-15l-123 -14l5 8l173 -650l-4 1l214 667l19 3l203 -668h-4l184 646l5 -6l-122 8v15zM599 747l-180 92l19 29l170 -106z" />
    <glyph glyph-name="Yacute" unicode="&#xdd;" horiz-adv-x="635" 
d="M207 0v15l107 14l-7 -8v247l4 -17l-213 419l10 -7l-103 9v15l235 5v-15l-125 -14l4 7l202 -395h-6l203 395l4 -6l-124 8v15l232 5v-15l-102 -14l10 7l-215 -419l4 17v-247l-7 8l107 -14v-15h-220zM240 747l-10 15l170 106l17 -28z" />
    <glyph glyph-name="Ycircumflex" unicode="&#x176;" horiz-adv-x="635" 
d="M207 0v15l107 14l-7 -8v247l4 -17l-213 419l10 -7l-103 9v15l235 5v-15l-125 -14l4 7l202 -395h-6l203 395l4 -6l-124 8v15l232 5v-15l-102 -14l10 7l-215 -419l4 17v-247l-7 8l107 -14v-15h-220zM187 742l-11 13l131 107h15l135 -107l-11 -13l-136 95h9z" />
    <glyph glyph-name="Ydieresis" unicode="&#x178;" horiz-adv-x="635" 
d="M207 0v15l107 14l-7 -8v247l4 -17l-213 419l10 -7l-103 9v15l235 5v-15l-125 -14l4 7l202 -395h-6l203 395l4 -6l-124 8v15l232 5v-15l-102 -14l10 7l-215 -419l4 17v-247l-7 8l107 -14v-15h-220zM405 772q-11 0 -18 8t-7 21q0 14 7.5 22t17.5 8q11 0 18 -8t7 -22
q0 -13 -7.5 -21t-17.5 -8zM228 772q-11 0 -18 8t-7 21q0 14 7.5 22t17.5 8q11 0 18 -8t7 -22q0 -13 -7.5 -21t-17.5 -8z" />
    <glyph glyph-name="uni1EF4" unicode="&#x1ef4;" horiz-adv-x="635" 
d="M207 0v15l107 14l-7 -8v247l4 -17l-213 419l10 -7l-103 9v15l235 5v-15l-125 -14l4 7l202 -395h-6l203 395l4 -6l-124 8v15l232 5v-15l-102 -14l10 7l-215 -419l4 17v-247l-7 8l107 -14v-15h-220zM316 -143q-11 0 -18 8t-7 21q0 14 7.5 22t18.5 8q12 0 19 -8t7 -22
t-8 -21.5t-19 -7.5z" />
    <glyph glyph-name="Ygrave" unicode="&#x1ef2;" horiz-adv-x="635" 
d="M207 0v15l107 14l-7 -8v247l4 -17l-213 419l10 -7l-103 9v15l235 5v-15l-125 -14l4 7l202 -395h-6l203 395l4 -6l-124 8v15l232 5v-15l-102 -14l10 7l-215 -419l4 17v-247l-7 8l107 -14v-15h-220zM400 747l-180 92l19 29l170 -106z" />
    <glyph glyph-name="uni1EF6" unicode="&#x1ef6;" horiz-adv-x="635" 
d="M207 0v15l107 14l-7 -8v247l4 -17l-213 419l10 -7l-103 9v15l235 5v-15l-125 -14l4 7l202 -395h-6l203 395l4 -6l-124 8v15l232 5v-15l-102 -14l10 7l-215 -419l4 17v-247l-7 8l107 -14v-15h-220zM306 730v46q33 2 51.5 14t18.5 37q0 24 -15.5 34t-38.5 10q-12 0 -26 -2
t-28 -7l-5 16q14 6 29.5 9t30.5 3q31 0 53.5 -14.5t22.5 -47.5q0 -27 -18.5 -44.5t-54.5 -22.5v-31h-20z" />
    <glyph glyph-name="uni0232" unicode="&#x232;" horiz-adv-x="635" 
d="M207 0v15l107 14l-7 -8v247l4 -17l-213 419l10 -7l-103 9v15l235 5v-15l-125 -14l4 7l202 -395h-6l203 395l4 -6l-124 8v15l232 5v-15l-102 -14l10 7l-215 -419l4 17v-247l-7 8l107 -14v-15h-220zM432 809v-21h-230v21h230z" />
    <glyph glyph-name="uni1EF8" unicode="&#x1ef8;" horiz-adv-x="635" 
d="M207 0v15l107 14l-7 -8v247l4 -17l-213 419l10 -7l-103 9v15l235 5v-15l-125 -14l4 7l202 -395h-6l203 395l4 -6l-124 8v15l232 5v-15l-102 -14l10 7l-215 -419l4 17v-247l-7 8l107 -14v-15h-220zM191 773l-14 7q15 32 34.5 45.5t42.5 13.5q24 0 46.5 -10.5t43 -21
t38.5 -10.5q17 0 32 9.5t29 34.5l14 -7q-16 -32 -35 -45t-42 -13q-24 0 -44.5 10.5t-40.5 21t-44 10.5q-18 0 -32 -10.5t-28 -34.5z" />
    <glyph glyph-name="Zacute" unicode="&#x179;" horiz-adv-x="610" 
d="M54 0v16l465 662l3 -6h-423l9 7l-16 -132h-15v145h465v-16l-463 -662l-3 6h451l-12 -7l19 132h15l-4 -145h-491zM230 747l-10 15l170 106l17 -28z" />
    <glyph glyph-name="Zcaron" unicode="&#x17d;" horiz-adv-x="610" 
d="M54 0v16l465 662l3 -6h-423l9 7l-16 -132h-15v145h465v-16l-463 -662l-3 6h451l-12 -7l19 132h15l-4 -145h-491zM436 872l11 -13l-131 -107h-15l-135 107l11 13l136 -95h-9z" />
    <glyph glyph-name="Zdotaccent" unicode="&#x17b;" horiz-adv-x="610" 
d="M54 0v16l465 662l3 -6h-423l9 7l-16 -132h-15v145h465v-16l-463 -662l-3 6h451l-12 -7l19 132h15l-4 -145h-491zM306 772q-11 0 -18 8t-7 21q0 14 7.5 22t18.5 8q12 0 19 -8t7 -22t-8 -21.5t-19 -7.5z" />
    <glyph glyph-name="aacute" unicode="&#xe1;" horiz-adv-x="534" 
d="M419 19l-7 8l97 -10v-15l-105 -4l-4 96l4 -3q-46 -46 -100.5 -71.5t-105.5 -25.5q-57 0 -92.5 35t-35.5 107q0 59 24 89t64.5 40t89.5 10h158l-7 -7v123q0 63 -36 90.5t-96 27.5q-33 0 -71 -7.5t-78 -22.5l7 11l-7 -98h-17l-8 99q47 18 91.5 27.5t83.5 9.5
q68 0 109.5 -31t41.5 -103v-375zM91 140q0 -65 31 -96t79 -31q45 0 99 25.5t104 71.5l-5 -11v164l7 -7h-156q-85 0 -122 -25.5t-37 -90.5zM211 634l-11 14l157 124l19 -26z" />
    <glyph glyph-name="abreve" unicode="&#x103;" horiz-adv-x="534" 
d="M419 19l-7 8l97 -10v-15l-105 -4l-4 96l4 -3q-46 -46 -100.5 -71.5t-105.5 -25.5q-57 0 -92.5 35t-35.5 107q0 59 24 89t64.5 40t89.5 10h158l-7 -7v123q0 63 -36 90.5t-96 27.5q-33 0 -71 -7.5t-78 -22.5l7 11l-7 -98h-17l-8 99q47 18 91.5 27.5t83.5 9.5
q68 0 109.5 -31t41.5 -103v-375zM91 140q0 -65 31 -96t79 -31q45 0 99 25.5t104 71.5l-5 -11v164l7 -7h-156q-85 0 -122 -25.5t-37 -90.5zM261 640q-31 0 -55 12t-38 34t-15 51l18 2q4 -34 29 -55.5t62 -21.5t60.5 21t26.5 55l18 1q0 -29 -13 -51.5t-37 -35t-56 -12.5z" />
    <glyph glyph-name="uni1EAF" unicode="&#x1eaf;" horiz-adv-x="534" 
d="M419 19l-7 8l97 -10v-15l-105 -4l-4 96l4 -3q-46 -46 -100.5 -71.5t-105.5 -25.5q-57 0 -92.5 35t-35.5 107q0 59 24 89t64.5 40t89.5 10h158l-7 -7v123q0 63 -36 90.5t-96 27.5q-33 0 -71 -7.5t-78 -22.5l7 11l-7 -98h-17l-8 99q47 18 91.5 27.5t83.5 9.5
q68 0 109.5 -31t41.5 -103v-375zM91 140q0 -65 31 -96t79 -31q45 0 99 25.5t104 71.5l-5 -11v164l7 -7h-156q-85 0 -122 -25.5t-37 -90.5zM261 593q-27 0 -53 10.5t-42.5 31t-17.5 50.5l15 2q5 -37 35 -55t64 -18q35 0 63.5 18t31.5 54l15 1q0 -31 -16 -52t-41.5 -31.5
t-53.5 -10.5zM241 697l-13 13l101 110l23 -20z" />
    <glyph glyph-name="uni1EB7" unicode="&#x1eb7;" horiz-adv-x="534" 
d="M419 19l-7 8l97 -10v-15l-105 -4l-4 96l4 -3q-46 -46 -100.5 -71.5t-105.5 -25.5q-57 0 -92.5 35t-35.5 107q0 59 24 89t64.5 40t89.5 10h158l-7 -7v123q0 63 -36 90.5t-96 27.5q-33 0 -71 -7.5t-78 -22.5l7 11l-7 -98h-17l-8 99q47 18 91.5 27.5t83.5 9.5
q68 0 109.5 -31t41.5 -103v-375zM91 140q0 -65 31 -96t79 -31q45 0 99 25.5t104 71.5l-5 -11v164l7 -7h-156q-85 0 -122 -25.5t-37 -90.5zM261 640q-31 0 -55 12t-38 34t-15 51l18 2q4 -34 29 -55.5t62 -21.5t60.5 21t26.5 55l18 1q0 -29 -13 -51.5t-37 -35t-56 -12.5z
M267 -143q-11 0 -18 8t-7 21q0 14 7.5 22t18.5 8q12 0 19 -8t7 -22t-8 -21.5t-19 -7.5z" />
    <glyph glyph-name="uni1EB1" unicode="&#x1eb1;" horiz-adv-x="534" 
d="M419 19l-7 8l97 -10v-15l-105 -4l-4 96l4 -3q-46 -46 -100.5 -71.5t-105.5 -25.5q-57 0 -92.5 35t-35.5 107q0 59 24 89t64.5 40t89.5 10h158l-7 -7v123q0 63 -36 90.5t-96 27.5q-33 0 -71 -7.5t-78 -22.5l7 11l-7 -98h-17l-8 99q47 18 91.5 27.5t83.5 9.5
q68 0 109.5 -31t41.5 -103v-375zM91 140q0 -65 31 -96t79 -31q45 0 99 25.5t104 71.5l-5 -11v164l7 -7h-156q-85 0 -122 -25.5t-37 -90.5zM290 697l13 13l-101 110l-23 -20zM262 593q-27 0 -53 10.5t-42.5 31t-17.5 50.5l15 2q5 -37 35 -55t64 -18q35 0 63.5 18t31.5 54
l15 1q0 -31 -16 -52t-41.5 -31.5t-53.5 -10.5z" />
    <glyph glyph-name="uni1EB3" unicode="&#x1eb3;" horiz-adv-x="534" 
d="M419 19l-7 8l97 -10v-15l-105 -4l-4 96l4 -3q-46 -46 -100.5 -71.5t-105.5 -25.5q-57 0 -92.5 35t-35.5 107q0 59 24 89t64.5 40t89.5 10h158l-7 -7v123q0 63 -36 90.5t-96 27.5q-33 0 -71 -7.5t-78 -22.5l7 11l-7 -98h-17l-8 99q47 18 91.5 27.5t83.5 9.5
q68 0 109.5 -31t41.5 -103v-375zM91 140q0 -65 31 -96t79 -31q45 0 99 25.5t104 71.5l-5 -11v164l7 -7h-156q-85 0 -122 -25.5t-37 -90.5zM261 593q-27 0 -53 10.5t-42.5 31t-17.5 50.5l15 2q5 -37 35 -55t64 -18q35 0 63.5 18t31.5 54l15 1q0 -31 -16 -52t-41.5 -31.5
t-53.5 -10.5zM242 680v46q33 2 51.5 14t18.5 37q0 24 -15.5 34t-38.5 10q-12 0 -26 -2t-28 -7l-5 16q14 6 29.5 9t30.5 3q31 0 53.5 -14.5t22.5 -47.5q0 -27 -18.5 -44.5t-54.5 -22.5v-31h-20z" />
    <glyph glyph-name="uni1EB5" unicode="&#x1eb5;" horiz-adv-x="534" 
d="M419 19l-7 8l97 -10v-15l-105 -4l-4 96l4 -3q-46 -46 -100.5 -71.5t-105.5 -25.5q-57 0 -92.5 35t-35.5 107q0 59 24 89t64.5 40t89.5 10h158l-7 -7v123q0 63 -36 90.5t-96 27.5q-33 0 -71 -7.5t-78 -22.5l7 11l-7 -98h-17l-8 99q47 18 91.5 27.5t83.5 9.5
q68 0 109.5 -31t41.5 -103v-375zM91 140q0 -65 31 -96t79 -31q45 0 99 25.5t104 71.5l-5 -11v164l7 -7h-156q-85 0 -122 -25.5t-37 -90.5zM147 723l-13 7q14 32 31 45.5t38 13.5q22 0 42 -10.5t38.5 -21t35.5 -10.5q15 0 28 9.5t26 34.5l13 -7q-14 -32 -31.5 -45t-37.5 -13
q-21 0 -39.5 10.5t-36.5 21t-40 10.5q-16 0 -29 -10.5t-25 -34.5zM262 593q-27 0 -53 10.5t-42.5 31t-17.5 50.5l15 2q5 -37 35 -55t64 -18q35 0 63.5 18t31.5 54l15 1q0 -31 -16 -52t-41.5 -31.5t-53.5 -10.5z" />
    <glyph glyph-name="acircumflex" unicode="&#xe2;" horiz-adv-x="534" 
d="M419 19l-7 8l97 -10v-15l-105 -4l-4 96l4 -3q-46 -46 -100.5 -71.5t-105.5 -25.5q-57 0 -92.5 35t-35.5 107q0 59 24 89t64.5 40t89.5 10h158l-7 -7v123q0 63 -36 90.5t-96 27.5q-33 0 -71 -7.5t-78 -22.5l7 11l-7 -98h-17l-8 99q47 18 91.5 27.5t83.5 9.5
q68 0 109.5 -31t41.5 -103v-375zM91 140q0 -65 31 -96t79 -31q45 0 99 25.5t104 71.5l-5 -11v164l7 -7h-156q-85 0 -122 -25.5t-37 -90.5zM138 637l-12 13l127 114h15l131 -114l-12 -13l-131 104h9z" />
    <glyph glyph-name="uni1EA5" unicode="&#x1ea5;" horiz-adv-x="534" 
d="M419 19l-7 8l97 -10v-15l-105 -4l-4 96l4 -3q-46 -46 -100.5 -71.5t-105.5 -25.5q-57 0 -92.5 35t-35.5 107q0 59 24 89t64.5 40t89.5 10h158l-7 -7v123q0 63 -36 90.5t-96 27.5q-33 0 -71 -7.5t-78 -22.5l7 11l-7 -98h-17l-8 99q47 18 91.5 27.5t83.5 9.5
q68 0 109.5 -31t41.5 -103v-375zM91 140q0 -65 31 -96t79 -31q45 0 99 25.5t104 71.5l-5 -11v164l7 -7h-156q-85 0 -122 -25.5t-37 -90.5zM357 689l-14 12l89 120l25 -18zM138 579l-12 13l127 114h15l131 -114l-12 -13l-131 104h9z" />
    <glyph glyph-name="uni1EAD" unicode="&#x1ead;" horiz-adv-x="534" 
d="M419 19l-7 8l97 -10v-15l-105 -4l-4 96l4 -3q-46 -46 -100.5 -71.5t-105.5 -25.5q-57 0 -92.5 35t-35.5 107q0 59 24 89t64.5 40t89.5 10h158l-7 -7v123q0 63 -36 90.5t-96 27.5q-33 0 -71 -7.5t-78 -22.5l7 11l-7 -98h-17l-8 99q47 18 91.5 27.5t83.5 9.5
q68 0 109.5 -31t41.5 -103v-375zM91 140q0 -65 31 -96t79 -31q45 0 99 25.5t104 71.5l-5 -11v164l7 -7h-156q-85 0 -122 -25.5t-37 -90.5zM138 637l-12 13l127 114h15l131 -114l-12 -13l-131 104h9zM267 -143q-11 0 -18 8t-7 21q0 14 7.5 22t18.5 8q12 0 19 -8t7 -22
t-8 -21.5t-19 -7.5z" />
    <glyph glyph-name="uni1EA7" unicode="&#x1ea7;" horiz-adv-x="534" 
d="M419 19l-7 8l97 -10v-15l-105 -4l-4 96l4 -3q-46 -46 -100.5 -71.5t-105.5 -25.5q-57 0 -92.5 35t-35.5 107q0 59 24 89t64.5 40t89.5 10h158l-7 -7v123q0 63 -36 90.5t-96 27.5q-33 0 -71 -7.5t-78 -22.5l7 11l-7 -98h-17l-8 99q47 18 91.5 27.5t83.5 9.5
q68 0 109.5 -31t41.5 -103v-375zM91 140q0 -65 31 -96t79 -31q45 0 99 25.5t104 71.5l-5 -11v164l7 -7h-156q-85 0 -122 -25.5t-37 -90.5zM388 690l-100 111l23 20l91 -120zM138 579l-12 13l127 114h15l131 -114l-12 -13l-131 104h9z" />
    <glyph glyph-name="uni1EA9" unicode="&#x1ea9;" horiz-adv-x="534" 
d="M419 19l-7 8l97 -10v-15l-105 -4l-4 96l4 -3q-46 -46 -100.5 -71.5t-105.5 -25.5q-57 0 -92.5 35t-35.5 107q0 59 24 89t64.5 40t89.5 10h158l-7 -7v123q0 63 -36 90.5t-96 27.5q-33 0 -71 -7.5t-78 -22.5l7 11l-7 -98h-17l-8 99q47 18 91.5 27.5t83.5 9.5
q68 0 109.5 -31t41.5 -103v-375zM91 140q0 -65 31 -96t79 -31q45 0 99 25.5t104 71.5l-5 -11v164l7 -7h-156q-85 0 -122 -25.5t-37 -90.5zM356 675v46q33 2 51.5 14t18.5 37q0 24 -15.5 34t-38.5 10q-12 0 -26 -2t-28 -7l-5 16q14 6 29.5 9t30.5 3q31 0 53.5 -14.5
t22.5 -47.5q0 -27 -18.5 -44.5t-54.5 -22.5v-31h-20zM143 579l-12 13l127 114h15l131 -114l-12 -13l-131 104h9z" />
    <glyph glyph-name="uni1EAB" unicode="&#x1eab;" horiz-adv-x="534" 
d="M419 19l-7 8l97 -10v-15l-105 -4l-4 96l4 -3q-46 -46 -100.5 -71.5t-105.5 -25.5q-57 0 -92.5 35t-35.5 107q0 59 24 89t64.5 40t89.5 10h158l-7 -7v123q0 63 -36 90.5t-96 27.5q-33 0 -71 -7.5t-78 -22.5l7 11l-7 -98h-17l-8 99q47 18 91.5 27.5t83.5 9.5
q68 0 109.5 -31t41.5 -103v-375zM91 140q0 -65 31 -96t79 -31q45 0 99 25.5t104 71.5l-5 -11v164l7 -7h-156q-85 0 -122 -25.5t-37 -90.5zM135 579l-12 13l127 114h15l131 -114l-12 -13l-131 104h9zM130 726l-14 7q15 32 34.5 45.5t42.5 13.5q24 0 46.5 -10.5t43 -21
t38.5 -10.5q17 0 32 9.5t29 34.5l14 -7q-16 -32 -35 -45t-42 -13q-24 0 -44.5 10.5t-40.5 21t-44 10.5q-18 0 -32 -10.5t-28 -34.5z" />
    <glyph glyph-name="uni0201" unicode="&#x201;" horiz-adv-x="534" 
d="M419 19l-7 8l97 -10v-15l-105 -4l-4 96l4 -3q-46 -46 -100.5 -71.5t-105.5 -25.5q-57 0 -92.5 35t-35.5 107q0 59 24 89t64.5 40t89.5 10h158l-7 -7v123q0 63 -36 90.5t-96 27.5q-33 0 -71 -7.5t-78 -22.5l7 11l-7 -98h-17l-8 99q47 18 91.5 27.5t83.5 9.5
q68 0 109.5 -31t41.5 -103v-375zM91 140q0 -65 31 -96t79 -31q45 0 99 25.5t104 71.5l-5 -11v164l7 -7h-156q-85 0 -122 -25.5t-37 -90.5zM194 634l16 9l-61 129l-25 -14zM305 634l16 8l-58 130l-26 -13z" />
    <glyph glyph-name="adieresis" unicode="&#xe4;" horiz-adv-x="534" 
d="M419 19l-7 8l97 -10v-15l-105 -4l-4 96l4 -3q-46 -46 -100.5 -71.5t-105.5 -25.5q-57 0 -92.5 35t-35.5 107q0 59 24 89t64.5 40t89.5 10h158l-7 -7v123q0 63 -36 90.5t-96 27.5q-33 0 -71 -7.5t-78 -22.5l7 11l-7 -98h-17l-8 99q47 18 91.5 27.5t83.5 9.5
q68 0 109.5 -31t41.5 -103v-375zM91 140q0 -65 31 -96t79 -31q45 0 99 25.5t104 71.5l-5 -11v164l7 -7h-156q-85 0 -122 -25.5t-37 -90.5zM348 663q-11 0 -18 8t-7 21q0 14 7.5 22t17.5 8q11 0 18 -8t7 -22q0 -13 -7.5 -21t-17.5 -8zM171 663q-11 0 -18 8t-7 21q0 14 7.5 22
t17.5 8q11 0 18 -8t7 -22q0 -13 -7.5 -21t-17.5 -8z" />
    <glyph glyph-name="uni1EA1" unicode="&#x1ea1;" horiz-adv-x="534" 
d="M419 19l-7 8l97 -10v-15l-105 -4l-4 96l4 -3q-46 -46 -100.5 -71.5t-105.5 -25.5q-57 0 -92.5 35t-35.5 107q0 59 24 89t64.5 40t89.5 10h158l-7 -7v123q0 63 -36 90.5t-96 27.5q-33 0 -71 -7.5t-78 -22.5l7 11l-7 -98h-17l-8 99q47 18 91.5 27.5t83.5 9.5
q68 0 109.5 -31t41.5 -103v-375zM91 140q0 -65 31 -96t79 -31q45 0 99 25.5t104 71.5l-5 -11v164l7 -7h-156q-85 0 -122 -25.5t-37 -90.5zM267 -143q-11 0 -18 8t-7 21q0 14 7.5 22t18.5 8q12 0 19 -8t7 -22t-8 -21.5t-19 -7.5z" />
    <glyph glyph-name="agrave" unicode="&#xe0;" horiz-adv-x="534" 
d="M419 19l-7 8l97 -10v-15l-105 -4l-4 96l4 -3q-46 -46 -100.5 -71.5t-105.5 -25.5q-57 0 -92.5 35t-35.5 107q0 59 24 89t64.5 40t89.5 10h158l-7 -7v123q0 63 -36 90.5t-96 27.5q-33 0 -71 -7.5t-78 -22.5l7 11l-7 -98h-17l-8 99q47 18 91.5 27.5t83.5 9.5
q68 0 109.5 -31t41.5 -103v-375zM91 140q0 -65 31 -96t79 -31q45 0 99 25.5t104 71.5l-5 -11v164l7 -7h-156q-85 0 -122 -25.5t-37 -90.5zM191 772l149 -125l-10 -13l-158 115z" />
    <glyph glyph-name="uni1EA3" unicode="&#x1ea3;" horiz-adv-x="534" 
d="M419 19l-7 8l97 -10v-15l-105 -4l-4 96l4 -3q-46 -46 -100.5 -71.5t-105.5 -25.5q-57 0 -92.5 35t-35.5 107q0 59 24 89t64.5 40t89.5 10h158l-7 -7v123q0 63 -36 90.5t-96 27.5q-33 0 -71 -7.5t-78 -22.5l7 11l-7 -98h-17l-8 99q47 18 91.5 27.5t83.5 9.5
q68 0 109.5 -31t41.5 -103v-375zM91 140q0 -65 31 -96t79 -31q45 0 99 25.5t104 71.5l-5 -11v164l7 -7h-156q-85 0 -122 -25.5t-37 -90.5zM249 613v56q32 2 51 13t19 36q0 23 -15 33t-39 10q-12 0 -26 -2t-28 -7l-5 16q14 6 29.5 9t30.5 3q32 0 54 -14.5t22 -45.5
q0 -27 -18.5 -44t-54.5 -22v-41h-20z" />
    <glyph glyph-name="uni0203" unicode="&#x203;" horiz-adv-x="534" 
d="M419 19l-7 8l97 -10v-15l-105 -4l-4 96l4 -3q-46 -46 -100.5 -71.5t-105.5 -25.5q-57 0 -92.5 35t-35.5 107q0 59 24 89t64.5 40t89.5 10h158l-7 -7v123q0 63 -36 90.5t-96 27.5q-33 0 -71 -7.5t-78 -22.5l7 11l-7 -98h-17l-8 99q47 18 91.5 27.5t83.5 9.5
q68 0 109.5 -31t41.5 -103v-375zM91 140q0 -65 31 -96t79 -31q45 0 99 25.5t104 71.5l-5 -11v164l7 -7h-156q-85 0 -122 -25.5t-37 -90.5zM259 727q32 0 55.5 -12t37.5 -34t15 -51l-18 -2q-4 35 -29 56t-62 21t-60.5 -20.5t-26.5 -55.5l-18 -1q0 30 13 52t37 34.5t56 12.5z
" />
    <glyph glyph-name="amacron" unicode="&#x101;" horiz-adv-x="534" 
d="M419 19l-7 8l97 -10v-15l-105 -4l-4 96l4 -3q-46 -46 -100.5 -71.5t-105.5 -25.5q-57 0 -92.5 35t-35.5 107q0 59 24 89t64.5 40t89.5 10h158l-7 -7v123q0 63 -36 90.5t-96 27.5q-33 0 -71 -7.5t-78 -22.5l7 11l-7 -98h-17l-8 99q47 18 91.5 27.5t83.5 9.5
q68 0 109.5 -31t41.5 -103v-375zM91 140q0 -65 31 -96t79 -31q45 0 99 25.5t104 71.5l-5 -11v164l7 -7h-156q-85 0 -122 -25.5t-37 -90.5zM375 702v-21h-230v21h230z" />
    <glyph glyph-name="aogonek" unicode="&#x105;" horiz-adv-x="534" 
d="M419 19l-7 8l97 -10v-15l-105 -4l-4 96l4 -3q-46 -46 -100.5 -71.5t-105.5 -25.5q-57 0 -92.5 35t-35.5 107q0 59 24 89t64.5 40t89.5 10h158l-7 -7v123q0 63 -36 90.5t-96 27.5q-33 0 -71 -7.5t-78 -22.5l7 11l-7 -98h-17l-8 99q47 18 91.5 27.5t83.5 9.5
q68 0 109.5 -31t41.5 -103v-375zM91 140q0 -65 31 -96t79 -31q45 0 99 25.5t104 71.5l-5 -11v164l7 -7h-156q-85 0 -122 -25.5t-37 -90.5zM393 -216q-54 0 -82 25.5t-28 60.5q0 26 15.5 53t46.5 51t77 40l7 -14q-63 -25 -94 -60t-31 -68q0 -28 24 -48.5t70 -20.5q9 0 18.5 1
t19.5 3l4 -18q-13 -2 -24.5 -3.5t-22.5 -1.5z" />
    <glyph glyph-name="aring" unicode="&#xe5;" horiz-adv-x="534" 
d="M419 19l-7 8l97 -10v-15l-105 -4l-4 96l4 -3q-46 -46 -100.5 -71.5t-105.5 -25.5q-57 0 -92.5 35t-35.5 107q0 59 24 89t64.5 40t89.5 10h158l-7 -7v123q0 63 -36 90.5t-96 27.5q-33 0 -71 -7.5t-78 -22.5l7 11l-7 -98h-17l-8 99q47 18 91.5 27.5t83.5 9.5
q68 0 109.5 -31t41.5 -103v-375zM91 140q0 -65 31 -96t79 -31q45 0 99 25.5t104 71.5l-5 -11v164l7 -7h-156q-85 0 -122 -25.5t-37 -90.5zM259 632q-18 0 -35.5 7.5t-29 23t-11.5 39.5t11 40t29 24.5t38 8.5q19 0 36 -7.5t28.5 -23t11.5 -39.5q0 -23 -11 -39.5t-28.5 -25
t-38.5 -8.5zM260 650q26 0 41 15.5t15 38.5t-15 38t-41 15t-41 -15.5t-15 -38.5t15 -38t41 -15z" />
    <glyph glyph-name="aringacute" unicode="&#x1fb;" horiz-adv-x="534" 
d="M419 19l-7 8l97 -10v-15l-105 -4l-4 96l4 -3q-46 -46 -100.5 -71.5t-105.5 -25.5q-57 0 -92.5 35t-35.5 107q0 59 24 89t64.5 40t89.5 10h158l-7 -7v123q0 63 -36 90.5t-96 27.5q-33 0 -71 -7.5t-78 -22.5l7 11l-7 -98h-17l-8 99q47 18 91.5 27.5t83.5 9.5
q68 0 109.5 -31t41.5 -103v-375zM91 140q0 -65 31 -96t79 -31q45 0 99 25.5t104 71.5l-5 -11v164l7 -7h-156q-85 0 -122 -25.5t-37 -90.5zM168 734l-9 16l177 93l15 -29zM259 589q-18 0 -35.5 7.5t-29 23t-11.5 39.5t11 40t29 24.5t38 8.5q19 0 36 -7.5t28.5 -23t11.5 -39.5
q0 -23 -11 -39.5t-28.5 -25t-38.5 -8.5zM260 607q26 0 41 15.5t15 38.5t-15 38t-41 15t-41 -15.5t-15 -38.5t15 -38t41 -15z" />
    <glyph glyph-name="atilde" unicode="&#xe3;" horiz-adv-x="534" 
d="M419 19l-7 8l97 -10v-15l-105 -4l-4 96l4 -3q-46 -46 -100.5 -71.5t-105.5 -25.5q-57 0 -92.5 35t-35.5 107q0 59 24 89t64.5 40t89.5 10h158l-7 -7v123q0 63 -36 90.5t-96 27.5q-33 0 -71 -7.5t-78 -22.5l7 11l-7 -98h-17l-8 99q47 18 91.5 27.5t83.5 9.5
q68 0 109.5 -31t41.5 -103v-375zM91 140q0 -65 31 -96t79 -31q45 0 99 25.5t104 71.5l-5 -11v164l7 -7h-156q-85 0 -122 -25.5t-37 -90.5zM325 657q-26 0 -47.5 13t-42 26t-43.5 13q-18 0 -32.5 -11.5t-28.5 -37.5l-15 7q16 34 35.5 48.5t42.5 14.5q26 0 48 -13t43 -26
t42 -13q18 0 33 11.5t29 38.5l15 -7q-16 -34 -35.5 -49t-43.5 -15z" />
    <glyph glyph-name="aeacute" unicode="&#x1fd;" horiz-adv-x="881" 
d="M101 392l-8 99q51 18 95.5 27.5t81.5 9.5q71 0 110 -34t39 -100v-23l-2 3q25 74 79.5 114t127.5 40q91 0 140.5 -61t49.5 -171v-19.5t-1 -12.5h-402l9 9v-17q0 -112 52.5 -177t143.5 -65t188 69l11 -16q-52 -36 -103.5 -54.5t-99.5 -18.5q-63 0 -111.5 31.5t-74.5 88.5
l8 -2q-42 -60 -100 -89t-113 -29q-41 0 -75.5 16t-55 48t-20.5 79q0 76 43 111t136 35h159l-9 -9v117q0 58 -34 87.5t-97 29.5q-31 0 -68.5 -7t-81.5 -22l7 11l-7 -98h-17zM423 120q-13 29 -18.5 65.5t-5.5 87.5l9 -9h-157q-85 0 -122.5 -29t-37.5 -95q0 -63 39 -95t93 -32
q53 0 109 30t95 89zM421 276l-9 7h390l-9 -7q2 114 -41.5 173.5t-128.5 59.5q-89 0 -143.5 -63t-58.5 -170zM397 634l-11 14l157 124l19 -26z" />
    <glyph glyph-name="cacute" unicode="&#x107;" horiz-adv-x="509" 
d="M271 -6q-59 0 -106.5 31t-75 89t-27.5 139q0 67 18 118t49.5 86t74 53t90.5 18q31 0 73.5 -9.5t79.5 -32.5l-3 -104h-19l-12 106l5 -9q-34 17 -69 23.5t-59 6.5q-61 0 -107.5 -31t-73 -87.5t-26.5 -135.5q0 -76 25.5 -130t69 -82.5t97.5 -28.5q40 0 84 17t88 51l11 -16
q-49 -37 -96.5 -54.5t-90.5 -17.5zM236 634l-11 14l157 124l19 -26z" />
    <glyph glyph-name="ccaron" unicode="&#x10d;" horiz-adv-x="509" 
d="M271 -6q-59 0 -106.5 31t-75 89t-27.5 139q0 67 18 118t49.5 86t74 53t90.5 18q31 0 73.5 -9.5t79.5 -32.5l-3 -104h-19l-12 106l5 -9q-34 17 -69 23.5t-59 6.5q-61 0 -107.5 -31t-73 -87.5t-26.5 -135.5q0 -76 25.5 -130t69 -82.5t97.5 -28.5q40 0 84 17t88 51l11 -16
q-49 -37 -96.5 -54.5t-90.5 -17.5zM403 768l12 -13l-122 -114h-15l-126 114l12 13l126 -104h-9z" />
    <glyph glyph-name="ccedilla" unicode="&#xe7;" horiz-adv-x="509" 
d="M271 -6q-59 0 -106.5 31t-75 89t-27.5 139q0 67 18 118t49.5 86t74 53t90.5 18q31 0 73.5 -9.5t79.5 -32.5l-3 -104h-19l-12 106l5 -9q-34 17 -69 23.5t-59 6.5q-61 0 -107.5 -31t-73 -87.5t-26.5 -135.5q0 -76 25.5 -130t69 -82.5t97.5 -28.5q40 0 84 17t88 51l11 -16
q-49 -37 -96.5 -54.5t-90.5 -17.5zM286 -212q-17 0 -36 4t-37 12l8 17q15 -6 32 -9.5t33 -3.5q29 0 49.5 13t20.5 38q0 17 -10.5 29t-32 18.5t-55.5 6.5l4 87h19v-68q56 -4 76 -23.5t20 -46.5q0 -25 -12 -41.5t-32.5 -24.5t-46.5 -8z" />
    <glyph glyph-name="ccircumflex" unicode="&#x109;" horiz-adv-x="509" 
d="M271 -6q-59 0 -106.5 31t-75 89t-27.5 139q0 67 18 118t49.5 86t74 53t90.5 18q31 0 73.5 -9.5t79.5 -32.5l-3 -104h-19l-12 106l5 -9q-34 17 -69 23.5t-59 6.5q-61 0 -107.5 -31t-73 -87.5t-26.5 -135.5q0 -76 25.5 -130t69 -82.5t97.5 -28.5q40 0 84 17t88 51l11 -16
q-49 -37 -96.5 -54.5t-90.5 -17.5zM163 637l-12 13l127 114h15l131 -114l-12 -13l-131 104h9z" />
    <glyph glyph-name="cdotaccent" unicode="&#x10b;" horiz-adv-x="509" 
d="M271 -6q-59 0 -106.5 31t-75 89t-27.5 139q0 67 18 118t49.5 86t74 53t90.5 18q31 0 73.5 -9.5t79.5 -32.5l-3 -104h-19l-12 106l5 -9q-34 17 -69 23.5t-59 6.5q-61 0 -107.5 -31t-73 -87.5t-26.5 -135.5q0 -76 25.5 -130t69 -82.5t97.5 -28.5q40 0 84 17t88 51l11 -16
q-49 -37 -96.5 -54.5t-90.5 -17.5zM284 663q-11 0 -18 8t-7 21q0 14 7.5 22t18.5 8q12 0 19 -8t7 -22t-8 -21.5t-19 -7.5z" />
    <glyph glyph-name="dcaron" unicode="&#x10f;" horiz-adv-x="582" 
d="M261 -6q-54 0 -99 30.5t-71.5 89.5t-26.5 142q0 131 66.5 201.5t178.5 70.5q32 0 66.5 -5.5t71.5 -16.5l-7 -4v237l7 -8l-102 15v14l115 5v-746l-7 8l97 -10v-15l-105 -4l-5 85l4 -3q-46 -43 -92.5 -64.5t-90.5 -21.5zM263 13q43 0 89.5 22.5t91.5 68.5l-4 -12v399l5 -7
q-74 25 -137 25q-105 0 -164 -66t-59 -186q0 -77 24 -132t64.5 -83.5t89.5 -28.5zM541 586l-14 4q12 56 21 100.5t11 75.5l30 -3q-4 -29 -16.5 -73.5t-31.5 -103.5z" />
    <glyph glyph-name="dcroat" unicode="&#x111;" horiz-adv-x="583" 
d="M241 641h310v-19h-310v19zM261 -6q-54 0 -99 30.5t-71.5 89t-26.5 141.5q0 131 66 201.5t178 70.5q32 0 67 -5.5t72 -16.5l-7 -4v237l7 -8l-102 15v14l115 5v-746l-7 8l97 -10v-15l-105 -4l-5 85l4 -3q-46 -43 -92.5 -64t-90.5 -21zM263 13q43 0 89.5 22t91.5 68l-4 -12
v399l5 -7q-74 25 -137 25q-105 0 -164 -66t-59 -186q0 -77 24 -131.5t64.5 -83t89.5 -28.5z" />
    <glyph glyph-name="eacute" unicode="&#xe9;" horiz-adv-x="546" 
d="M276 -6q-61 0 -109 30t-75.5 88.5t-27.5 141.5t27.5 144.5t78 95.5t118.5 34q63 0 105.5 -28.5t64 -78.5t21.5 -116v-11t-1 -17h-405v19h394l-9 -6q1 59 -15 109t-53.5 80t-101.5 30q-63 0 -108.5 -31.5t-70 -88.5t-24.5 -133q0 -78 25 -132t69 -82.5t100 -28.5
q43 0 91.5 17t98.5 52l11 -15q-54 -37 -105.5 -55t-98.5 -18zM237 634l-11 14l157 124l19 -26z" />
    <glyph glyph-name="ebreve" unicode="&#x115;" horiz-adv-x="546" 
d="M276 -6q-61 0 -109 30t-75.5 88.5t-27.5 141.5t27.5 144.5t78 95.5t118.5 34q63 0 105.5 -28.5t64 -78.5t21.5 -116v-11t-1 -17h-405v19h394l-9 -6q1 59 -15 109t-53.5 80t-101.5 30q-63 0 -108.5 -31.5t-70 -88.5t-24.5 -133q0 -78 25 -132t69 -82.5t100 -28.5
q43 0 91.5 17t98.5 52l11 -15q-54 -37 -105.5 -55t-98.5 -18zM287 640q-31 0 -55 12t-38 34t-15 51l18 2q4 -34 29 -55.5t62 -21.5t60.5 21t26.5 55l18 1q0 -29 -13 -51.5t-37 -35t-56 -12.5z" />
    <glyph glyph-name="ecaron" unicode="&#x11b;" horiz-adv-x="546" 
d="M276 -6q-61 0 -109 30t-75.5 88.5t-27.5 141.5t27.5 144.5t78 95.5t118.5 34q63 0 105.5 -28.5t64 -78.5t21.5 -116v-11t-1 -17h-405v19h394l-9 -6q1 59 -15 109t-53.5 80t-101.5 30q-63 0 -108.5 -31.5t-70 -88.5t-24.5 -133q0 -78 25 -132t69 -82.5t100 -28.5
q43 0 91.5 17t98.5 52l11 -15q-54 -37 -105.5 -55t-98.5 -18zM404 768l12 -13l-122 -114h-15l-126 114l12 13l126 -104h-9z" />
    <glyph glyph-name="ecircumflex" unicode="&#xea;" horiz-adv-x="546" 
d="M276 -6q-61 0 -109 30t-75.5 88.5t-27.5 141.5t27.5 144.5t78 95.5t118.5 34q63 0 105.5 -28.5t64 -78.5t21.5 -116v-11t-1 -17h-405v19h394l-9 -6q1 59 -15 109t-53.5 80t-101.5 30q-63 0 -108.5 -31.5t-70 -88.5t-24.5 -133q0 -78 25 -132t69 -82.5t100 -28.5
q43 0 91.5 17t98.5 52l11 -15q-54 -37 -105.5 -55t-98.5 -18zM164 637l-12 13l127 114h15l131 -114l-12 -13l-131 104h9z" />
    <glyph glyph-name="uni1EBF" unicode="&#x1ebf;" horiz-adv-x="546" 
d="M276 -6q-61 0 -109 30t-75.5 88.5t-27.5 141.5t27.5 144.5t78 95.5t118.5 34q63 0 105.5 -28.5t64 -78.5t21.5 -116v-11t-1 -17h-405v19h394l-9 -6q1 59 -15 109t-53.5 80t-101.5 30q-63 0 -108.5 -31.5t-70 -88.5t-24.5 -133q0 -78 25 -132t69 -82.5t100 -28.5
q43 0 91.5 17t98.5 52l11 -15q-54 -37 -105.5 -55t-98.5 -18zM383 689l-14 12l89 120l25 -18zM164 579l-12 13l127 114h15l131 -114l-12 -13l-131 104h9z" />
    <glyph glyph-name="uni1EC7" unicode="&#x1ec7;" horiz-adv-x="546" 
d="M276 -6q-61 0 -109 30t-75.5 88.5t-27.5 141.5t27.5 144.5t78 95.5t118.5 34q63 0 105.5 -28.5t64 -78.5t21.5 -116v-11t-1 -17h-405v19h394l-9 -6q1 59 -15 109t-53.5 80t-101.5 30q-63 0 -108.5 -31.5t-70 -88.5t-24.5 -133q0 -78 25 -132t69 -82.5t100 -28.5
q43 0 91.5 17t98.5 52l11 -15q-54 -37 -105.5 -55t-98.5 -18zM164 637l-12 13l127 114h15l131 -114l-12 -13l-131 104h9zM275 -143q-11 0 -18 8t-7 21q0 14 7.5 22t18.5 8q12 0 19 -8t7 -22t-8 -21.5t-19 -7.5z" />
    <glyph glyph-name="uni1EC1" unicode="&#x1ec1;" horiz-adv-x="546" 
d="M276 -6q-61 0 -109 30t-75.5 88.5t-27.5 141.5t27.5 144.5t78 95.5t118.5 34q63 0 105.5 -28.5t64 -78.5t21.5 -116v-11t-1 -17h-405v19h394l-9 -6q1 59 -15 109t-53.5 80t-101.5 30q-63 0 -108.5 -31.5t-70 -88.5t-24.5 -133q0 -78 25 -132t69 -82.5t100 -28.5
q43 0 91.5 17t98.5 52l11 -15q-54 -37 -105.5 -55t-98.5 -18zM414 690l-100 111l23 20l91 -120zM164 579l-12 13l127 114h15l131 -114l-12 -13l-131 104h9z" />
    <glyph glyph-name="uni1EC3" unicode="&#x1ec3;" horiz-adv-x="546" 
d="M276 -6q-61 0 -109 30t-75.5 88.5t-27.5 141.5t27.5 144.5t78 95.5t118.5 34q63 0 105.5 -28.5t64 -78.5t21.5 -116v-11t-1 -17h-405v19h394l-9 -6q1 59 -15 109t-53.5 80t-101.5 30q-63 0 -108.5 -31.5t-70 -88.5t-24.5 -133q0 -78 25 -132t69 -82.5t100 -28.5
q43 0 91.5 17t98.5 52l11 -15q-54 -37 -105.5 -55t-98.5 -18zM382 675v46q33 2 51.5 14t18.5 37q0 24 -15.5 34t-38.5 10q-12 0 -26 -2t-28 -7l-5 16q14 6 29.5 9t30.5 3q31 0 53.5 -14.5t22.5 -47.5q0 -27 -18.5 -44.5t-54.5 -22.5v-31h-20zM169 579l-12 13l127 114h15
l131 -114l-12 -13l-131 104h9z" />
    <glyph glyph-name="uni1EC5" unicode="&#x1ec5;" horiz-adv-x="546" 
d="M276 -6q-61 0 -109 30t-75.5 88.5t-27.5 141.5t27.5 144.5t78 95.5t118.5 34q63 0 105.5 -28.5t64 -78.5t21.5 -116v-11t-1 -17h-405v19h394l-9 -6q1 59 -15 109t-53.5 80t-101.5 30q-63 0 -108.5 -31.5t-70 -88.5t-24.5 -133q0 -78 25 -132t69 -82.5t100 -28.5
q43 0 91.5 17t98.5 52l11 -15q-54 -37 -105.5 -55t-98.5 -18zM161 579l-12 13l127 114h15l131 -114l-12 -13l-131 104h9zM156 726l-14 7q15 32 34.5 45.5t42.5 13.5q24 0 46.5 -10.5t43 -21t38.5 -10.5q17 0 32 9.5t29 34.5l14 -7q-16 -32 -35 -45t-42 -13q-24 0 -44.5 10.5
t-40.5 21t-44 10.5q-18 0 -32 -10.5t-28 -34.5z" />
    <glyph glyph-name="uni0205" unicode="&#x205;" horiz-adv-x="546" 
d="M276 -6q-61 0 -109 30t-75.5 88.5t-27.5 141.5t27.5 144.5t78 95.5t118.5 34q63 0 105.5 -28.5t64 -78.5t21.5 -116v-11t-1 -17h-405v19h394l-9 -6q1 59 -15 109t-53.5 80t-101.5 30q-63 0 -108.5 -31.5t-70 -88.5t-24.5 -133q0 -78 25 -132t69 -82.5t100 -28.5
q43 0 91.5 17t98.5 52l11 -15q-54 -37 -105.5 -55t-98.5 -18zM220 634l16 9l-61 129l-25 -14zM331 634l16 8l-58 130l-26 -13z" />
    <glyph glyph-name="edieresis" unicode="&#xeb;" horiz-adv-x="546" 
d="M276 -6q-61 0 -109 30t-75.5 88.5t-27.5 141.5t27.5 144.5t78 95.5t118.5 34q63 0 105.5 -28.5t64 -78.5t21.5 -116v-11t-1 -17h-405v19h394l-9 -6q1 59 -15 109t-53.5 80t-101.5 30q-63 0 -108.5 -31.5t-70 -88.5t-24.5 -133q0 -78 25 -132t69 -82.5t100 -28.5
q43 0 91.5 17t98.5 52l11 -15q-54 -37 -105.5 -55t-98.5 -18zM374 663q-11 0 -18 8t-7 21q0 14 7.5 22t17.5 8q11 0 18 -8t7 -22q0 -13 -7.5 -21t-17.5 -8zM197 663q-11 0 -18 8t-7 21q0 14 7.5 22t17.5 8q11 0 18 -8t7 -22q0 -13 -7.5 -21t-17.5 -8z" />
    <glyph glyph-name="edotaccent" unicode="&#x117;" horiz-adv-x="546" 
d="M276 -6q-61 0 -109 30t-75.5 88.5t-27.5 141.5t27.5 144.5t78 95.5t118.5 34q63 0 105.5 -28.5t64 -78.5t21.5 -116v-11t-1 -17h-405v19h394l-9 -6q1 59 -15 109t-53.5 80t-101.5 30q-63 0 -108.5 -31.5t-70 -88.5t-24.5 -133q0 -78 25 -132t69 -82.5t100 -28.5
q43 0 91.5 17t98.5 52l11 -15q-54 -37 -105.5 -55t-98.5 -18zM285 663q-11 0 -18 8t-7 21q0 14 7.5 22t18.5 8q12 0 19 -8t7 -22t-8 -21.5t-19 -7.5z" />
    <glyph glyph-name="uni1EB9" unicode="&#x1eb9;" horiz-adv-x="546" 
d="M276 -6q-61 0 -109 30t-75.5 88.5t-27.5 141.5t27.5 144.5t78 95.5t118.5 34q63 0 105.5 -28.5t64 -78.5t21.5 -116v-11t-1 -17h-405v19h394l-9 -6q1 59 -15 109t-53.5 80t-101.5 30q-63 0 -108.5 -31.5t-70 -88.5t-24.5 -133q0 -78 25 -132t69 -82.5t100 -28.5
q43 0 91.5 17t98.5 52l11 -15q-54 -37 -105.5 -55t-98.5 -18zM275 -143q-11 0 -18 8t-7 21q0 14 7.5 22t18.5 8q12 0 19 -8t7 -22t-8 -21.5t-19 -7.5z" />
    <glyph glyph-name="egrave" unicode="&#xe8;" horiz-adv-x="546" 
d="M276 -6q-61 0 -109 30t-75.5 88.5t-27.5 141.5t27.5 144.5t78 95.5t118.5 34q63 0 105.5 -28.5t64 -78.5t21.5 -116v-11t-1 -17h-405v19h394l-9 -6q1 59 -15 109t-53.5 80t-101.5 30q-63 0 -108.5 -31.5t-70 -88.5t-24.5 -133q0 -78 25 -132t69 -82.5t100 -28.5
q43 0 91.5 17t98.5 52l11 -15q-54 -37 -105.5 -55t-98.5 -18zM217 772l149 -125l-10 -13l-158 115z" />
    <glyph glyph-name="uni1EBB" unicode="&#x1ebb;" horiz-adv-x="546" 
d="M276 -6q-61 0 -109 30t-75.5 88.5t-27.5 141.5t27.5 144.5t78 95.5t118.5 34q63 0 105.5 -28.5t64 -78.5t21.5 -116v-11t-1 -17h-405v19h394l-9 -6q1 59 -15 109t-53.5 80t-101.5 30q-63 0 -108.5 -31.5t-70 -88.5t-24.5 -133q0 -78 25 -132t69 -82.5t100 -28.5
q43 0 91.5 17t98.5 52l11 -15q-54 -37 -105.5 -55t-98.5 -18zM275 613v56q32 2 51 13t19 36q0 23 -15 33t-39 10q-12 0 -26 -2t-28 -7l-5 16q14 6 29.5 9t30.5 3q32 0 54 -14.5t22 -45.5q0 -27 -18.5 -44t-54.5 -22v-41h-20z" />
    <glyph glyph-name="uni0207" unicode="&#x207;" horiz-adv-x="546" 
d="M276 -6q-61 0 -109 30t-75.5 88.5t-27.5 141.5t27.5 144.5t78 95.5t118.5 34q63 0 105.5 -28.5t64 -78.5t21.5 -116v-11t-1 -17h-405v19h394l-9 -6q1 59 -15 109t-53.5 80t-101.5 30q-63 0 -108.5 -31.5t-70 -88.5t-24.5 -133q0 -78 25 -132t69 -82.5t100 -28.5
q43 0 91.5 17t98.5 52l11 -15q-54 -37 -105.5 -55t-98.5 -18zM285 727q32 0 55.5 -12t37.5 -34t15 -51l-18 -2q-4 35 -29 56t-62 21t-60.5 -20.5t-26.5 -55.5l-18 -1q0 30 13 52t37 34.5t56 12.5z" />
    <glyph glyph-name="emacron" unicode="&#x113;" horiz-adv-x="546" 
d="M276 -6q-61 0 -109 30t-75.5 88.5t-27.5 141.5t27.5 144.5t78 95.5t118.5 34q63 0 105.5 -28.5t64 -78.5t21.5 -116v-11t-1 -17h-405v19h394l-9 -6q1 59 -15 109t-53.5 80t-101.5 30q-63 0 -108.5 -31.5t-70 -88.5t-24.5 -133q0 -78 25 -132t69 -82.5t100 -28.5
q43 0 91.5 17t98.5 52l11 -15q-54 -37 -105.5 -55t-98.5 -18zM401 702v-21h-230v21h230z" />
    <glyph glyph-name="eng" unicode="&#x14b;" horiz-adv-x="609" 
d="M374 -236q-7 0 -15.5 0.5t-17.5 1.5l2 19q9 -1 17.5 -1.5t15.5 -0.5q61 0 87 32t26 108v440q0 75 -35 110.5t-94 35.5q-46 0 -101 -25.5t-107 -80.5l4 11v-393l-7 8l97 -14v-15h-200v15l97 14l-7 -8v478l7 -8l-97 14v15l105 5l5 -101l-4 3q50 53 105 77t104 24
q66 0 107 -39t41 -121v-436q0 -36 -4.5 -66.5t-18 -53t-40.5 -35.5t-72 -13z" />
    <glyph glyph-name="eogonek" unicode="&#x119;" horiz-adv-x="546" 
d="M276 -6q-61 0 -109 30t-75.5 88.5t-27.5 141.5t27.5 144.5t78 95.5t118.5 34q63 0 105.5 -28.5t64 -78.5t21.5 -116v-11t-1 -17h-405v19h394l-9 -6q1 59 -15 109t-53.5 80t-101.5 30q-63 0 -108.5 -31.5t-70 -88.5t-24.5 -133q0 -78 25 -132t69 -82.5t100 -28.5
q43 0 91.5 17t98.5 52l11 -15q-54 -37 -105.5 -55t-98.5 -18zM295 -216q-54 0 -82 25.5t-28 60.5q0 26 15.5 53t46.5 51t77 40l7 -14q-63 -25 -94 -60t-31 -68q0 -28 24 -48.5t70 -20.5q9 0 18.5 1t19.5 3l4 -18q-13 -2 -24.5 -3.5t-22.5 -1.5z" />
    <glyph glyph-name="uni1EBD" unicode="&#x1ebd;" horiz-adv-x="546" 
d="M276 -6q-61 0 -109 30t-75.5 88.5t-27.5 141.5t27.5 144.5t78 95.5t118.5 34q63 0 105.5 -28.5t64 -78.5t21.5 -116v-11t-1 -17h-405v19h394l-9 -6q1 59 -15 109t-53.5 80t-101.5 30q-63 0 -108.5 -31.5t-70 -88.5t-24.5 -133q0 -78 25 -132t69 -82.5t100 -28.5
q43 0 91.5 17t98.5 52l11 -15q-54 -37 -105.5 -55t-98.5 -18zM351 657q-26 0 -47.5 13t-42 26t-43.5 13q-18 0 -32.5 -11.5t-28.5 -37.5l-15 7q16 34 35.5 48.5t42.5 14.5q26 0 48 -13t43 -26t42 -13q18 0 33 11.5t29 38.5l15 -7q-16 -34 -35.5 -49t-43.5 -15z" />
    <glyph glyph-name="gbreve" unicode="&#x11f;" horiz-adv-x="544" 
d="M270 -236q-110 0 -166 34.5t-56 98.5q0 40 26.5 76t75.5 67l3 -3q-25 0 -36 6t-11 20q0 7 1 13.5t4.5 19.5t12 39t23.5 71l3 -5q-37 22 -56.5 59.5t-19.5 86.5q0 84 52 132.5t141 48.5q54 0 95 -19l-11 2l146 10v-17l-105 -20l4 4q27 -23 41 -56.5t14 -75.5
q0 -84 -51.5 -133t-140.5 -49q-60 0 -105 24l5 5l-36 -154l-5 8h191q92 0 140.5 -35.5t48.5 -103.5q0 -75 -58.5 -114.5t-169.5 -39.5zM270 -217q102 0 154.5 34t52.5 101q0 59 -43 89t-129 30h-143l13 3q-106 -67 -106 -141q0 -57 50.5 -86.5t150.5 -29.5zM260 193
q80 0 125 42.5t45 118.5q0 74 -43 114.5t-122 40.5q-80 0 -124.5 -42t-44.5 -119q0 -73 43 -114t121 -41zM268 640q-31 0 -55 12t-38 34t-15 51l18 2q4 -34 29 -55.5t62 -21.5t60.5 21t26.5 55l18 1q0 -29 -13 -51.5t-37 -35t-56 -12.5z" />
    <glyph glyph-name="gcaron" unicode="&#x1e7;" horiz-adv-x="544" 
d="M270 -236q-110 0 -166 34.5t-56 98.5q0 40 26.5 76t75.5 67l3 -3q-25 0 -36 6t-11 20q0 7 1 13.5t4.5 19.5t12 39t23.5 71l3 -5q-37 22 -56.5 59.5t-19.5 86.5q0 84 52 132.5t141 48.5q54 0 95 -19l-11 2l146 10v-17l-105 -20l4 4q27 -23 41 -56.5t14 -75.5
q0 -84 -51.5 -133t-140.5 -49q-60 0 -105 24l5 5l-36 -154l-5 8h191q92 0 140.5 -35.5t48.5 -103.5q0 -75 -58.5 -114.5t-169.5 -39.5zM270 -217q102 0 154.5 34t52.5 101q0 59 -43 89t-129 30h-143l13 3q-106 -67 -106 -141q0 -57 50.5 -86.5t150.5 -29.5zM260 193
q80 0 125 42.5t45 118.5q0 74 -43 114.5t-122 40.5q-80 0 -124.5 -42t-44.5 -119q0 -73 43 -114t121 -41zM385 768l12 -13l-122 -114h-15l-126 114l12 13l126 -104h-9z" />
    <glyph glyph-name="gcircumflex" unicode="&#x11d;" horiz-adv-x="544" 
d="M270 -236q-110 0 -166 34.5t-56 98.5q0 40 26.5 76t75.5 67l3 -3q-25 0 -36 6t-11 20q0 7 1 13.5t4.5 19.5t12 39t23.5 71l3 -5q-37 22 -56.5 59.5t-19.5 86.5q0 84 52 132.5t141 48.5q54 0 95 -19l-11 2l146 10v-17l-105 -20l4 4q27 -23 41 -56.5t14 -75.5
q0 -84 -51.5 -133t-140.5 -49q-60 0 -105 24l5 5l-36 -154l-5 8h191q92 0 140.5 -35.5t48.5 -103.5q0 -75 -58.5 -114.5t-169.5 -39.5zM270 -217q102 0 154.5 34t52.5 101q0 59 -43 89t-129 30h-143l13 3q-106 -67 -106 -141q0 -57 50.5 -86.5t150.5 -29.5zM260 193
q80 0 125 42.5t45 118.5q0 74 -43 114.5t-122 40.5q-80 0 -124.5 -42t-44.5 -119q0 -73 43 -114t121 -41zM145 637l-12 13l127 114h15l131 -114l-12 -13l-131 104h9z" />
    <glyph glyph-name="uni0123" unicode="&#x123;" horiz-adv-x="544" 
d="M270 -236q-110 0 -166 34.5t-56 98.5q0 40 26.5 76t75.5 67l3 -3q-25 0 -36 6t-11 20q0 7 1 13.5t4.5 19.5t12 39t23.5 71l3 -5q-37 22 -56.5 59.5t-19.5 86.5q0 84 52 132.5t141 48.5q54 0 95 -19l-11 2l146 10v-17l-105 -20l4 4q27 -23 41 -56.5t14 -75.5
q0 -84 -51.5 -133t-140.5 -49q-60 0 -105 24l5 5l-36 -154l-5 8h191q92 0 140.5 -35.5t48.5 -103.5q0 -75 -58.5 -114.5t-169.5 -39.5zM270 -217q102 0 154.5 34t52.5 101q0 59 -43 89t-129 30h-143l13 3q-106 -67 -106 -141q0 -57 50.5 -86.5t150.5 -29.5zM260 193
q80 0 125 42.5t45 118.5q0 74 -43 114.5t-122 40.5q-80 0 -124.5 -42t-44.5 -119q0 -73 43 -114t121 -41zM290 811l12 -8q-15 -26 -20 -46t-5 -28q0 -9 4 -14l8 -10t4 -15q0 -13 -8 -20t-18 -7t-18 7.5t-8 23.5q0 17 12.5 48.5t36.5 68.5z" />
    <glyph glyph-name="gdotaccent" unicode="&#x121;" horiz-adv-x="544" 
d="M270 -236q-110 0 -166 34.5t-56 98.5q0 40 26.5 76t75.5 67l3 -3q-25 0 -36 6t-11 20q0 7 1 13.5t4.5 19.5t12 39t23.5 71l3 -5q-37 22 -56.5 59.5t-19.5 86.5q0 84 52 132.5t141 48.5q54 0 95 -19l-11 2l146 10v-17l-105 -20l4 4q27 -23 41 -56.5t14 -75.5
q0 -84 -51.5 -133t-140.5 -49q-60 0 -105 24l5 5l-36 -154l-5 8h191q92 0 140.5 -35.5t48.5 -103.5q0 -75 -58.5 -114.5t-169.5 -39.5zM270 -217q102 0 154.5 34t52.5 101q0 59 -43 89t-129 30h-143l13 3q-106 -67 -106 -141q0 -57 50.5 -86.5t150.5 -29.5zM260 193
q80 0 125 42.5t45 118.5q0 74 -43 114.5t-122 40.5q-80 0 -124.5 -42t-44.5 -119q0 -73 43 -114t121 -41zM266 663q-11 0 -18 8t-7 21q0 14 7.5 22t18.5 8q12 0 19 -8t7 -22t-8 -21.5t-19 -7.5z" />
    <glyph glyph-name="hbar" unicode="&#x127;" horiz-adv-x="610" 
d="M33 641h315v-19h-315v19zM33 0v15l97 14l-7 -8v718l7 -8l-97 14v15l110 5v-341l-4 3q50 53 105 77t104 24q44 0 78 -17.5t52.5 -52.5t17.5 -90v-347l-7 8l97 -14v-15h-200v15l97 14l-7 -8v342q2 75 -34 110.5t-95 35.5q-46 0 -101 -25.5t-107 -80.5l4 11v-393l-7 8
l97 -14v-15h-200z" />
    <glyph glyph-name="hcircumflex" unicode="&#x125;" horiz-adv-x="610" 
d="M33 0v15l97 14l-7 -8v718l7 -8l-97 14v15l110 5v-341l-4 3q50 53 105 77t104 24q44 0 78 -17.5t52.5 -52.5t17.5 -90v-347l-7 8l97 -14v-15h-200v15l97 14l-7 -8v342q2 75 -34 110.5t-95 35.5q-46 0 -101 -25.5t-107 -80.5l4 11v-393l-7 8l97 -14v-15h-200zM-1 807
l-11 13l131 107h15l135 -107l-11 -13l-136 95h9z" />
    <glyph glyph-name="iacute" unicode="&#xed;" horiz-adv-x="278" 
d="M156 21l-7 8l97 -14v-15h-200v15l97 14l-7 -8v478l7 -8l-97 14v15l110 5v-504zM90 634l-11 14l157 124l19 -26z" />
    <glyph glyph-name="ibreve" unicode="&#x12d;" horiz-adv-x="278" 
d="M156 21l-7 8l97 -14v-15h-200v15l97 14l-7 -8v478l7 -8l-97 14v15l110 5v-504zM140 640q-31 0 -55 12t-38 34t-15 51l18 2q4 -34 29 -55.5t62 -21.5t60.5 21t26.5 55l18 1q0 -29 -13 -51.5t-37 -35t-56 -12.5z" />
    <glyph glyph-name="icircumflex" unicode="&#xee;" horiz-adv-x="278" 
d="M33 637l-12 13l109 114h15l113 -114l-12 -13l-113 104h9zM156 21l-7 8l97 -14v-15h-200v15l97 14l-7 -8v478l7 -8l-97 14v15l110 5v-504z" />
    <glyph glyph-name="uni0209" unicode="&#x209;" horiz-adv-x="278" 
d="M156 21l-7 8l97 -14v-15h-200v15l97 14l-7 -8v478l7 -8l-97 14v15l110 5v-504zM73 634l16 9l-61 129l-25 -14zM184 634l16 8l-58 130l-26 -13z" />
    <glyph glyph-name="idieresis" unicode="&#xef;" horiz-adv-x="278" 
d="M223 663q-11 0 -18 8t-7 21q0 14 7.5 22t17.5 8q11 0 18 -8t7 -22q0 -13 -7.5 -21t-17.5 -8zM51 663q-11 0 -18 8t-7 21q0 14 7.5 22t17.5 8q11 0 18 -8t7 -22q0 -13 -7.5 -21t-17.5 -8zM156 21l-7 8l97 -14v-15h-200v15l97 14l-7 -8v478l7 -8l-97 14v15l110 5v-504z" />
    <glyph glyph-name="i.loclTRK" horiz-adv-x="278" 
d="M156 21l-7 8l97 -14v-15h-200v15l97 14l-7 -8v478l7 -8l-97 14v15l110 5v-504zM138 663q-11 0 -18 8t-7 21q0 14 7.5 22t18.5 8q12 0 19 -8t7 -22t-8 -21.5t-19 -7.5z" />
    <glyph glyph-name="uni1ECB" unicode="&#x1ecb;" horiz-adv-x="278" 
d="M156 21l-7 8l97 -14v-15h-200v15l97 14l-7 -8v478l7 -8l-97 14v15l110 5v-504zM138 663q-11 0 -18 8t-7 21q0 14 7.5 22t18.5 8q12 0 19 -8t7 -22t-8 -21.5t-19 -7.5zM145 -143q-11 0 -18 8t-7 21q0 14 7.5 22t18.5 8q12 0 19 -8t7 -22t-8 -21.5t-19 -7.5z" />
    <glyph glyph-name="igrave" unicode="&#xec;" horiz-adv-x="278" 
d="M156 21l-7 8l97 -14v-15h-200v15l97 14l-7 -8v478l7 -8l-97 14v15l110 5v-504zM45 772l149 -125l-10 -13l-158 115z" />
    <glyph glyph-name="uni1EC9" unicode="&#x1ec9;" horiz-adv-x="278" 
d="M156 21l-7 8l97 -14v-15h-200v15l97 14l-7 -8v478l7 -8l-97 14v15l110 5v-504zM128 613v56q32 2 51 13t19 36q0 23 -15 33t-39 10q-12 0 -26 -2t-28 -7l-5 16q14 6 29.5 9t30.5 3q32 0 54 -14.5t22 -45.5q0 -27 -18.5 -44t-54.5 -22v-41h-20z" />
    <glyph glyph-name="uni020B" unicode="&#x20b;" horiz-adv-x="278" 
d="M156 21l-7 8l97 -14v-15h-200v15l97 14l-7 -8v478l7 -8l-97 14v15l110 5v-504zM138 727q32 0 55.5 -12t37.5 -34t15 -51l-18 -2q-4 35 -29 56t-62 21t-60.5 -20.5t-26.5 -55.5l-18 -1q0 30 13 52t37 34.5t56 12.5z" />
    <glyph glyph-name="imacron" unicode="&#x12b;" horiz-adv-x="278" 
d="M243 702v-21h-191v21h191zM156 21l-7 8l97 -14v-15h-200v15l97 14l-7 -8v478l7 -8l-97 14v15l110 5v-504z" />
    <glyph glyph-name="iogonek" unicode="&#x12f;" horiz-adv-x="278" 
d="M156 21l-7 8l97 -14v-15h-200v15l97 14l-7 -8v478l7 -8l-97 14v15l110 5v-504zM138 663q-11 0 -18 8t-7 21q0 14 7.5 22t18.5 8q12 0 19 -8t7 -22t-8 -21.5t-19 -7.5zM180 -216q-54 0 -82 25.5t-28 60.5q0 26 15.5 53t46.5 51t77 40l7 -14q-63 -25 -94 -60t-31 -68
q0 -28 24 -48.5t70 -20.5q9 0 18.5 1t19.5 3l4 -18q-13 -2 -24.5 -3.5t-22.5 -1.5z" />
    <glyph glyph-name="itilde" unicode="&#x129;" horiz-adv-x="278" 
d="M156 21l-7 8l97 -14v-15h-200v15l97 14l-7 -8v478l7 -8l-97 14v15l110 5v-504zM190 657q-24 0 -41 13t-33.5 26t-37.5 13q-16 0 -30.5 -11.5t-28.5 -37.5l-15 7q16 34 35 48.5t40 14.5q24 0 41.5 -13t34.5 -26t37 -13q16 0 30.5 11.5t28.5 38.5l15 -7q-16 -34 -35 -49
t-41 -15z" />
    <glyph glyph-name="jcircumflex" unicode="&#x135;" horiz-adv-x="251" 
d="M21 637l-12 13l109 114h15l113 -114l-12 -13l-113 104h9zM10 -236q-6 0 -14.5 0.5t-17.5 1.5l2 19q9 -1 17 -1.5t15 -0.5q60 0 85 32t25 108v576l7 -8l-97 14v15l110 5v-593q0 -36 -4.5 -66.5t-17.5 -53t-39.5 -35.5t-70.5 -13z" />
    <glyph glyph-name="uni0137" unicode="&#x137;" horiz-adv-x="541" 
d="M33 0v15l97 14l-7 -8v718l7 -8l-97 14v15l110 5v-470l-7 7h148l-8 -6l123 206l3 -7l-94 11v14l196 5v-14l-96 -16l10 7l-123 -210l-3 12l166 -280l-10 7l89 -17v-14h-88l-170 289l10 -6h-153l7 7v-269l-7 8l97 -14v-15h-200zM274 -230l-12 8q15 26 20 46.5t5 27.5
q0 9 -4 14l-8 10t-4 15q0 13 8 20t18 7t18 -7.5t8 -23.5q0 -17 -12.5 -48t-36.5 -69z" />
    <glyph glyph-name="lacute" unicode="&#x13a;" horiz-adv-x="266" 
d="M143 21l-7 8l97 -14v-15h-200v15l97 14l-7 -8v718l7 -8l-97 14v15l110 5v-744zM43 795l-10 15l170 106l17 -28z" />
    <glyph glyph-name="lcaron" unicode="&#x13e;" horiz-adv-x="266" 
d="M143 21l-7 8l97 -14v-15h-200v15l97 14l-7 -8v718l7 -8l-97 14v15l110 5v-744zM224 586l-14 4q12 56 21 100.5t11 75.5l30 -3q-4 -29 -16.5 -73.5t-31.5 -103.5z" />
    <glyph glyph-name="uni013C" unicode="&#x13c;" horiz-adv-x="266" 
d="M143 21l-7 8l97 -14v-15h-200v15l97 14l-7 -8v718l7 -8l-97 14v15l110 5v-744zM107 -230l-12 8q15 26 20 46.5t5 27.5q0 9 -4 14l-8 10t-4 15q0 13 8 20t18 7t18 -7.5t8 -23.5q0 -17 -12.5 -48t-36.5 -69z" />
    <glyph glyph-name="ldot" unicode="&#x140;" horiz-adv-x="335" 
d="M143 21l-7 8l97 -14v-15h-200v15l97 14l-7 -8v718l7 -8l-97 14v15l110 5v-744zM299 356q-11 0 -18 8t-7 21q0 14 7.5 22t18.5 8q12 0 19 -8t7 -22t-8 -21.5t-19 -7.5z" />
    <glyph glyph-name="lslash" unicode="&#x142;" horiz-adv-x="301" 
d="M54 334l-7 17l206 104l7 -17zM159 21l-7 8l97 -14v-15h-200v15l97 14l-7 -8v718l7 -8l-97 14v15l110 5v-744z" />
    <glyph glyph-name="nacute" unicode="&#x144;" horiz-adv-x="623" 
d="M46 0v15l97 14l-7 -8v478l7 -8l-97 14v15l105 5l5 -101l-4 3q50 53 105 77t104 24q66 0 108 -39t40 -121v-347l-7 8l97 -14v-15h-200v15l97 14l-7 -8v342q0 75 -35 110.5t-94 35.5q-46 0 -101 -25.5t-107 -80.5l4 11v-393l-7 8l97 -14v-15h-200zM273 634l-11 14l157 124
l19 -26z" />
    <glyph glyph-name="ncaron" unicode="&#x148;" horiz-adv-x="623" 
d="M46 0v15l97 14l-7 -8v478l7 -8l-97 14v15l105 5l5 -101l-4 3q50 53 105 77t104 24q66 0 108 -39t40 -121v-347l-7 8l97 -14v-15h-200v15l97 14l-7 -8v342q0 75 -35 110.5t-94 35.5q-46 0 -101 -25.5t-107 -80.5l4 11v-393l-7 8l97 -14v-15h-200zM440 768l12 -13
l-122 -114h-15l-126 114l12 13l126 -104h-9z" />
    <glyph glyph-name="uni0146" unicode="&#x146;" horiz-adv-x="623" 
d="M46 0v15l97 14l-7 -8v478l7 -8l-97 14v15l105 5l5 -101l-4 3q50 53 105 77t104 24q66 0 108 -39t40 -121v-347l-7 8l97 -14v-15h-200v15l97 14l-7 -8v342q0 75 -35 110.5t-94 35.5q-46 0 -101 -25.5t-107 -80.5l4 11v-393l-7 8l97 -14v-15h-200zM296 -230l-12 8
q15 26 20 46.5t5 27.5q0 9 -4 14l-8 10t-4 15q0 13 8 20t18 7t18 -7.5t8 -23.5q0 -17 -12.5 -48t-36.5 -69z" />
    <glyph glyph-name="ntilde" unicode="&#xf1;" horiz-adv-x="623" 
d="M46 0v15l97 14l-7 -8v478l7 -8l-97 14v15l105 5l5 -101l-4 3q50 53 105 77t104 24q66 0 108 -39t40 -121v-347l-7 8l97 -14v-15h-200v15l97 14l-7 -8v342q0 75 -35 110.5t-94 35.5q-46 0 -101 -25.5t-107 -80.5l4 11v-393l-7 8l97 -14v-15h-200zM387 657q-26 0 -47.5 13
t-42 26t-43.5 13q-18 0 -32.5 -11.5t-28.5 -37.5l-15 7q16 34 35.5 48.5t42.5 14.5q26 0 48 -13t43 -26t42 -13q18 0 33 11.5t29 38.5l15 -7q-16 -34 -35.5 -49t-43.5 -15z" />
    <glyph glyph-name="oacute" unicode="&#xf3;" horiz-adv-x="574" 
d="M293 528q100 0 159 -68t59 -190q0 -82 -28 -144t-80 -97t-126 -35q-98 0 -155.5 65.5t-57.5 189.5q0 85 27.5 147.5t79 97t122.5 34.5zM291 509q-97 0 -151.5 -70.5t-54.5 -187.5q0 -115 51.5 -176.5t142.5 -61.5q67 0 114 32t72 89.5t25 132.5q0 113 -53.5 177.5
t-145.5 64.5zM238 634l-11 14l157 124l19 -26z" />
    <glyph glyph-name="obreve" unicode="&#x14f;" horiz-adv-x="574" 
d="M293 528q100 0 159 -68t59 -190q0 -82 -28 -144t-80 -97t-126 -35q-98 0 -155.5 65.5t-57.5 189.5q0 85 27.5 147.5t79 97t122.5 34.5zM291 509q-97 0 -151.5 -70.5t-54.5 -187.5q0 -115 51.5 -176.5t142.5 -61.5q67 0 114 32t72 89.5t25 132.5q0 113 -53.5 177.5
t-145.5 64.5zM288 640q-31 0 -55 12t-38 34t-15 51l18 2q4 -34 29 -55.5t62 -21.5t60.5 21t26.5 55l18 1q0 -29 -13 -51.5t-37 -35t-56 -12.5z" />
    <glyph glyph-name="ocircumflex" unicode="&#xf4;" horiz-adv-x="574" 
d="M293 528q100 0 159 -68t59 -190q0 -82 -28 -144t-80 -97t-126 -35q-98 0 -155.5 65.5t-57.5 189.5q0 85 27.5 147.5t79 97t122.5 34.5zM291 509q-97 0 -151.5 -70.5t-54.5 -187.5q0 -115 51.5 -176.5t142.5 -61.5q67 0 114 32t72 89.5t25 132.5q0 113 -53.5 177.5
t-145.5 64.5zM165 637l-12 13l127 114h15l131 -114l-12 -13l-131 104h9z" />
    <glyph glyph-name="uni1ED1" unicode="&#x1ed1;" horiz-adv-x="574" 
d="M293 528q100 0 159 -68t59 -190q0 -82 -28 -144t-80 -97t-126 -35q-98 0 -155.5 65.5t-57.5 189.5q0 85 27.5 147.5t79 97t122.5 34.5zM291 509q-97 0 -151.5 -70.5t-54.5 -187.5q0 -115 51.5 -176.5t142.5 -61.5q67 0 114 32t72 89.5t25 132.5q0 113 -53.5 177.5
t-145.5 64.5zM384 689l-14 12l89 120l25 -18zM165 579l-12 13l127 114h15l131 -114l-12 -13l-131 104h9z" />
    <glyph glyph-name="uni1ED9" unicode="&#x1ed9;" horiz-adv-x="574" 
d="M293 528q100 0 159 -68t59 -190q0 -82 -28 -144t-80 -97t-126 -35q-98 0 -155.5 65.5t-57.5 189.5q0 85 27.5 147.5t79 97t122.5 34.5zM291 509q-97 0 -151.5 -70.5t-54.5 -187.5q0 -115 51.5 -176.5t142.5 -61.5q67 0 114 32t72 89.5t25 132.5q0 113 -53.5 177.5
t-145.5 64.5zM165 637l-12 13l127 114h15l131 -114l-12 -13l-131 104h9zM286 -143q-11 0 -18 8t-7 21q0 14 7.5 22t18.5 8q12 0 19 -8t7 -22t-8 -21.5t-19 -7.5z" />
    <glyph glyph-name="uni1ED3" unicode="&#x1ed3;" horiz-adv-x="574" 
d="M293 528q100 0 159 -68t59 -190q0 -82 -28 -144t-80 -97t-126 -35q-98 0 -155.5 65.5t-57.5 189.5q0 85 27.5 147.5t79 97t122.5 34.5zM291 509q-97 0 -151.5 -70.5t-54.5 -187.5q0 -115 51.5 -176.5t142.5 -61.5q67 0 114 32t72 89.5t25 132.5q0 113 -53.5 177.5
t-145.5 64.5zM415 690l-100 111l23 20l91 -120zM165 579l-12 13l127 114h15l131 -114l-12 -13l-131 104h9z" />
    <glyph glyph-name="uni1ED5" unicode="&#x1ed5;" horiz-adv-x="574" 
d="M293 528q100 0 159 -68t59 -190q0 -82 -28 -144t-80 -97t-126 -35q-98 0 -155.5 65.5t-57.5 189.5q0 85 27.5 147.5t79 97t122.5 34.5zM291 509q-97 0 -151.5 -70.5t-54.5 -187.5q0 -115 51.5 -176.5t142.5 -61.5q67 0 114 32t72 89.5t25 132.5q0 113 -53.5 177.5
t-145.5 64.5zM383 675v46q33 2 51.5 14t18.5 37q0 24 -15.5 34t-38.5 10q-12 0 -26 -2t-28 -7l-5 16q14 6 29.5 9t30.5 3q31 0 53.5 -14.5t22.5 -47.5q0 -27 -18.5 -44.5t-54.5 -22.5v-31h-20zM170 579l-12 13l127 114h15l131 -114l-12 -13l-131 104h9z" />
    <glyph glyph-name="uni1ED7" unicode="&#x1ed7;" horiz-adv-x="574" 
d="M293 528q100 0 159 -68t59 -190q0 -82 -28 -144t-80 -97t-126 -35q-98 0 -155.5 65.5t-57.5 189.5q0 85 27.5 147.5t79 97t122.5 34.5zM291 509q-97 0 -151.5 -70.5t-54.5 -187.5q0 -115 51.5 -176.5t142.5 -61.5q67 0 114 32t72 89.5t25 132.5q0 113 -53.5 177.5
t-145.5 64.5zM162 579l-12 13l127 114h15l131 -114l-12 -13l-131 104h9zM157 726l-14 7q15 32 34.5 45.5t42.5 13.5q24 0 46.5 -10.5t43 -21t38.5 -10.5q17 0 32 9.5t29 34.5l14 -7q-16 -32 -35 -45t-42 -13q-24 0 -44.5 10.5t-40.5 21t-44 10.5q-18 0 -32 -10.5t-28 -34.5z
" />
    <glyph glyph-name="uni020D" unicode="&#x20d;" horiz-adv-x="574" 
d="M293 528q100 0 159 -68t59 -190q0 -82 -28 -144t-80 -97t-126 -35q-98 0 -155.5 65.5t-57.5 189.5q0 85 27.5 147.5t79 97t122.5 34.5zM291 509q-97 0 -151.5 -70.5t-54.5 -187.5q0 -115 51.5 -176.5t142.5 -61.5q67 0 114 32t72 89.5t25 132.5q0 113 -53.5 177.5
t-145.5 64.5zM221 634l16 9l-61 129l-25 -14zM332 634l16 8l-58 130l-26 -13z" />
    <glyph glyph-name="odieresis" unicode="&#xf6;" horiz-adv-x="574" 
d="M293 528q100 0 159 -68t59 -190q0 -82 -28 -144t-80 -97t-126 -35q-98 0 -155.5 65.5t-57.5 189.5q0 85 27.5 147.5t79 97t122.5 34.5zM291 509q-97 0 -151.5 -70.5t-54.5 -187.5q0 -115 51.5 -176.5t142.5 -61.5q67 0 114 32t72 89.5t25 132.5q0 113 -53.5 177.5
t-145.5 64.5zM375 663q-11 0 -18 8t-7 21q0 14 7.5 22t17.5 8q11 0 18 -8t7 -22q0 -13 -7.5 -21t-17.5 -8zM198 663q-11 0 -18 8t-7 21q0 14 7.5 22t17.5 8q11 0 18 -8t7 -22q0 -13 -7.5 -21t-17.5 -8z" />
    <glyph glyph-name="uni022B" unicode="&#x22b;" horiz-adv-x="574" 
d="M293 528q100 0 159 -68t59 -190q0 -82 -28 -144t-80 -97t-126 -35q-98 0 -155.5 65.5t-57.5 189.5q0 85 27.5 147.5t79 97t122.5 34.5zM291 509q-97 0 -151.5 -70.5t-54.5 -187.5q0 -115 51.5 -176.5t142.5 -61.5q67 0 114 32t72 89.5t25 132.5q0 113 -53.5 177.5
t-145.5 64.5zM375 624q-11 0 -18 8t-7 21q0 14 7.5 22t17.5 8q11 0 18 -8t7 -22q0 -13 -7.5 -21t-17.5 -8zM198 624q-11 0 -18 8t-7 21q0 14 7.5 22t17.5 8q11 0 18 -8t7 -22q0 -13 -7.5 -21t-17.5 -8zM403 773v-21h-230v21h230z" />
    <glyph glyph-name="uni0231" unicode="&#x231;" horiz-adv-x="574" 
d="M293 528q100 0 159 -68t59 -190q0 -82 -28 -144t-80 -97t-126 -35q-98 0 -155.5 65.5t-57.5 189.5q0 85 27.5 147.5t79 97t122.5 34.5zM291 509q-97 0 -151.5 -70.5t-54.5 -187.5q0 -115 51.5 -176.5t142.5 -61.5q67 0 114 32t72 89.5t25 132.5q0 113 -53.5 177.5
t-145.5 64.5zM402 773v-21h-230v21h230zM286 623q-11 0 -18 8t-7 21q0 14 7.5 22t18.5 8q12 0 19 -8t7 -22t-8 -21.5t-19 -7.5z" />
    <glyph glyph-name="uni1ECD" unicode="&#x1ecd;" horiz-adv-x="574" 
d="M293 528q100 0 159 -68t59 -190q0 -82 -28 -144t-80 -97t-126 -35q-98 0 -155.5 65.5t-57.5 189.5q0 85 27.5 147.5t79 97t122.5 34.5zM291 509q-97 0 -151.5 -70.5t-54.5 -187.5q0 -115 51.5 -176.5t142.5 -61.5q67 0 114 32t72 89.5t25 132.5q0 113 -53.5 177.5
t-145.5 64.5zM286 -143q-11 0 -18 8t-7 21q0 14 7.5 22t18.5 8q12 0 19 -8t7 -22t-8 -21.5t-19 -7.5z" />
    <glyph glyph-name="ograve" unicode="&#xf2;" horiz-adv-x="574" 
d="M293 528q100 0 159 -68t59 -190q0 -82 -28 -144t-80 -97t-126 -35q-98 0 -155.5 65.5t-57.5 189.5q0 85 27.5 147.5t79 97t122.5 34.5zM291 509q-97 0 -151.5 -70.5t-54.5 -187.5q0 -115 51.5 -176.5t142.5 -61.5q67 0 114 32t72 89.5t25 132.5q0 113 -53.5 177.5
t-145.5 64.5zM218 772l149 -125l-10 -13l-158 115z" />
    <glyph glyph-name="uni1ECF" unicode="&#x1ecf;" horiz-adv-x="574" 
d="M293 528q100 0 159 -68t59 -190q0 -82 -28 -144t-80 -97t-126 -35q-98 0 -155.5 65.5t-57.5 189.5q0 85 27.5 147.5t79 97t122.5 34.5zM291 509q-97 0 -151.5 -70.5t-54.5 -187.5q0 -115 51.5 -176.5t142.5 -61.5q67 0 114 32t72 89.5t25 132.5q0 113 -53.5 177.5
t-145.5 64.5zM276 613v56q32 2 51 13t19 36q0 23 -15 33t-39 10q-12 0 -26 -2t-28 -7l-5 16q14 6 29.5 9t30.5 3q32 0 54 -14.5t22 -45.5q0 -27 -18.5 -44t-54.5 -22v-41h-20z" />
    <glyph glyph-name="ohorn" unicode="&#x1a1;" horiz-adv-x="574" 
d="M277 -6q-98 0 -155.5 65.5t-57.5 189.5q0 85 27.5 147.5t79 97t122.5 34.5q100 0 159 -68t59 -190q0 -82 -28 -144t-80 -97t-126 -35zM279 13q67 0 114 32t72 89.5t25 132.5q0 113 -53.5 177.5t-145.5 64.5q-97 0 -151.5 -70.5t-54.5 -187.5q0 -115 51.5 -176.5
t142.5 -61.5zM395 494l-30 18q71 1 104 18t33 57q0 13 -3 28.5t-9 33.5l20 7q8 -21 11 -38.5t3 -32.5q0 -44 -32 -66.5t-97 -24.5z" />
    <glyph glyph-name="uni1EDB" unicode="&#x1edb;" horiz-adv-x="574" 
d="M277 -6q-98 0 -155.5 65.5t-57.5 189.5q0 85 27.5 147.5t79 97t122.5 34.5q100 0 159 -68t59 -190q0 -82 -28 -144t-80 -97t-126 -35zM279 13q67 0 114 32t72 89.5t25 132.5q0 113 -53.5 177.5t-145.5 64.5q-97 0 -151.5 -70.5t-54.5 -187.5q0 -115 51.5 -176.5
t142.5 -61.5zM395 494l-30 18q71 1 104 18t33 57q0 13 -3 28.5t-9 33.5l20 7q8 -21 11 -38.5t3 -32.5q0 -44 -32 -66.5t-97 -24.5zM246 634l-11 14l157 124l19 -26z" />
    <glyph glyph-name="uni1EE3" unicode="&#x1ee3;" horiz-adv-x="574" 
d="M277 -6q-98 0 -155.5 65.5t-57.5 189.5q0 85 27.5 147.5t79 97t122.5 34.5q100 0 159 -68t59 -190q0 -82 -28 -144t-80 -97t-126 -35zM279 13q67 0 114 32t72 89.5t25 132.5q0 113 -53.5 177.5t-145.5 64.5q-97 0 -151.5 -70.5t-54.5 -187.5q0 -115 51.5 -176.5
t142.5 -61.5zM395 494l-30 18q71 1 104 18t33 57q0 13 -3 28.5t-9 33.5l20 7q8 -21 11 -38.5t3 -32.5q0 -44 -32 -66.5t-97 -24.5zM286 -143q-11 0 -18 8t-7 21q0 14 7.5 22t18.5 8q12 0 19 -8t7 -22t-8 -21.5t-19 -7.5z" />
    <glyph glyph-name="uni1EDD" unicode="&#x1edd;" horiz-adv-x="574" 
d="M277 -6q-98 0 -155.5 65.5t-57.5 189.5q0 85 27.5 147.5t79 97t122.5 34.5q100 0 159 -68t59 -190q0 -82 -28 -144t-80 -97t-126 -35zM279 13q67 0 114 32t72 89.5t25 132.5q0 113 -53.5 177.5t-145.5 64.5q-97 0 -151.5 -70.5t-54.5 -187.5q0 -115 51.5 -176.5
t142.5 -61.5zM395 494l-30 18q71 1 104 18t33 57q0 13 -3 28.5t-9 33.5l20 7q8 -21 11 -38.5t3 -32.5q0 -44 -32 -66.5t-97 -24.5zM226 772l149 -125l-10 -13l-158 115z" />
    <glyph glyph-name="uni1EDF" unicode="&#x1edf;" horiz-adv-x="574" 
d="M277 -6q-98 0 -155.5 65.5t-57.5 189.5q0 85 27.5 147.5t79 97t122.5 34.5q100 0 159 -68t59 -190q0 -82 -28 -144t-80 -97t-126 -35zM279 13q67 0 114 32t72 89.5t25 132.5q0 113 -53.5 177.5t-145.5 64.5q-97 0 -151.5 -70.5t-54.5 -187.5q0 -115 51.5 -176.5
t142.5 -61.5zM395 494l-30 18q71 1 104 18t33 57q0 13 -3 28.5t-9 33.5l20 7q8 -21 11 -38.5t3 -32.5q0 -44 -32 -66.5t-97 -24.5zM284 613v56q32 2 51 13t19 36q0 23 -15 33t-39 10q-12 0 -26 -2t-28 -7l-5 16q14 6 29.5 9t30.5 3q32 0 54 -14.5t22 -45.5q0 -27 -18.5 -44
t-54.5 -22v-41h-20z" />
    <glyph glyph-name="uni1EE1" unicode="&#x1ee1;" horiz-adv-x="574" 
d="M277 -6q-98 0 -155.5 65.5t-57.5 189.5q0 85 27.5 147.5t79 97t122.5 34.5q100 0 159 -68t59 -190q0 -82 -28 -144t-80 -97t-126 -35zM279 13q67 0 114 32t72 89.5t25 132.5q0 113 -53.5 177.5t-145.5 64.5q-97 0 -151.5 -70.5t-54.5 -187.5q0 -115 51.5 -176.5
t142.5 -61.5zM395 494l-30 18q71 1 104 18t33 57q0 13 -3 28.5t-9 33.5l20 7q8 -21 11 -38.5t3 -32.5q0 -44 -32 -66.5t-97 -24.5zM360 657q-26 0 -47.5 13t-42 26t-43.5 13q-18 0 -32.5 -11.5t-28.5 -37.5l-15 7q16 34 35.5 48.5t42.5 14.5q26 0 48 -13t43 -26t42 -13
q18 0 33 11.5t29 38.5l15 -7q-16 -34 -35.5 -49t-43.5 -15z" />
    <glyph glyph-name="ohungarumlaut" unicode="&#x151;" horiz-adv-x="574" 
d="M293 528q100 0 159 -68t59 -190q0 -82 -28 -144t-80 -97t-126 -35q-98 0 -155.5 65.5t-57.5 189.5q0 85 27.5 147.5t79 97t122.5 34.5zM291 509q-97 0 -151.5 -70.5t-54.5 -187.5q0 -115 51.5 -176.5t142.5 -61.5q67 0 114 32t72 89.5t25 132.5q0 113 -53.5 177.5
t-145.5 64.5zM349 634l-16 9l61 129l25 -14zM238 634l-16 8l58 130l26 -13z" />
    <glyph glyph-name="uni020F" unicode="&#x20f;" horiz-adv-x="574" 
d="M293 528q100 0 159 -68t59 -190q0 -82 -28 -144t-80 -97t-126 -35q-98 0 -155.5 65.5t-57.5 189.5q0 85 27.5 147.5t79 97t122.5 34.5zM291 509q-97 0 -151.5 -70.5t-54.5 -187.5q0 -115 51.5 -176.5t142.5 -61.5q67 0 114 32t72 89.5t25 132.5q0 113 -53.5 177.5
t-145.5 64.5zM286 727q32 0 55.5 -12t37.5 -34t15 -51l-18 -2q-4 35 -29 56t-62 21t-60.5 -20.5t-26.5 -55.5l-18 -1q0 30 13 52t37 34.5t56 12.5z" />
    <glyph glyph-name="omacron" unicode="&#x14d;" horiz-adv-x="574" 
d="M293 528q100 0 159 -68t59 -190q0 -82 -28 -144t-80 -97t-126 -35q-98 0 -155.5 65.5t-57.5 189.5q0 85 27.5 147.5t79 97t122.5 34.5zM291 509q-97 0 -151.5 -70.5t-54.5 -187.5q0 -115 51.5 -176.5t142.5 -61.5q67 0 114 32t72 89.5t25 132.5q0 113 -53.5 177.5
t-145.5 64.5zM402 702v-21h-230v21h230z" />
    <glyph glyph-name="uni01EB" unicode="&#x1eb;" horiz-adv-x="574" 
d="M293 528q100 0 159 -68t59 -190q0 -82 -28 -144t-80 -97t-126 -35q-98 0 -155.5 65.5t-57.5 189.5q0 85 27.5 147.5t79 97t122.5 34.5zM291 509q-97 0 -151.5 -70.5t-54.5 -187.5q0 -115 51.5 -176.5t142.5 -61.5q67 0 114 32t72 89.5t25 132.5q0 113 -53.5 177.5
t-145.5 64.5zM296 -216q-54 0 -82 25.5t-28 60.5q0 26 15.5 53t46.5 51t77 40l7 -14q-63 -25 -94 -60t-31 -68q0 -28 24 -48.5t70 -20.5q9 0 18.5 1t19.5 3l4 -18q-13 -2 -24.5 -3.5t-22.5 -1.5z" />
    <glyph glyph-name="oslash" unicode="&#xf8;" horiz-adv-x="574" 
d="M483 590l17 -10l-66 -109l-3 -4l-261 -429l-3 -5l-63 -104l-17 11l63 103l3 5l263 432l3 5zM293 528q100 0 159 -68t59 -190q0 -82 -28 -144t-80 -97t-126 -35q-98 0 -155.5 65.5t-57.5 189.5q0 85 27.5 147.5t79 97t122.5 34.5zM291 509q-97 0 -151.5 -70.5
t-54.5 -187.5q0 -115 51.5 -176.5t142.5 -61.5q67 0 114 32t72 89.5t25 132.5q0 113 -53.5 177.5t-145.5 64.5z" />
    <glyph glyph-name="oslashacute" unicode="&#x1ff;" horiz-adv-x="574" 
d="M483 590l17 -10l-66 -109l-3 -4l-261 -429l-3 -5l-63 -104l-17 11l63 103l3 5l263 432l3 5zM293 528q100 0 159 -68t59 -190q0 -82 -28 -144t-80 -97t-126 -35q-98 0 -155.5 65.5t-57.5 189.5q0 85 27.5 147.5t79 97t122.5 34.5zM291 509q-97 0 -151.5 -70.5
t-54.5 -187.5q0 -115 51.5 -176.5t142.5 -61.5q67 0 114 32t72 89.5t25 132.5q0 113 -53.5 177.5t-145.5 64.5zM238 634l-11 14l157 124l19 -26z" />
    <glyph glyph-name="otilde" unicode="&#xf5;" horiz-adv-x="574" 
d="M293 528q100 0 159 -68t59 -190q0 -82 -28 -144t-80 -97t-126 -35q-98 0 -155.5 65.5t-57.5 189.5q0 85 27.5 147.5t79 97t122.5 34.5zM291 509q-97 0 -151.5 -70.5t-54.5 -187.5q0 -115 51.5 -176.5t142.5 -61.5q67 0 114 32t72 89.5t25 132.5q0 113 -53.5 177.5
t-145.5 64.5zM352 657q-26 0 -47.5 13t-42 26t-43.5 13q-18 0 -32.5 -11.5t-28.5 -37.5l-15 7q16 34 35.5 48.5t42.5 14.5q26 0 48 -13t43 -26t42 -13q18 0 33 11.5t29 38.5l15 -7q-16 -34 -35.5 -49t-43.5 -15z" />
    <glyph glyph-name="uni022D" unicode="&#x22d;" horiz-adv-x="574" 
d="M293 528q100 0 159 -68t59 -190q0 -82 -28 -144t-80 -97t-126 -35q-98 0 -155.5 65.5t-57.5 189.5q0 85 27.5 147.5t79 97t122.5 34.5zM291 509q-97 0 -151.5 -70.5t-54.5 -187.5q0 -115 51.5 -176.5t142.5 -61.5q67 0 114 32t72 89.5t25 132.5q0 113 -53.5 177.5
t-145.5 64.5zM161 617l-14 7q15 32 34.5 45.5t42.5 13.5q24 0 46.5 -10.5t43 -21t38.5 -10.5q17 0 32 9.5t29 34.5l14 -7q-16 -32 -35 -45t-42 -13q-24 0 -44.5 10.5t-40.5 21t-44 10.5q-18 0 -32 -10.5t-28 -34.5zM402 773v-21h-230v21h230z" />
    <glyph glyph-name="racute" unicode="&#x155;" horiz-adv-x="414" 
d="M46 0v15l97 14l-7 -8v478l7 -8l-97 14v15l105 5l5 -101l-4 3q43 47 86 74t95 27q32 0 66 -10l-5 -107h-17l-10 101l5 -8q-9 2 -18.5 3t-18.5 1q-49 0 -94 -28.5t-89 -76.5l4 11v-393l-7 8l117 -14v-15h-220zM184 634l-11 14l157 124l19 -26z" />
    <glyph glyph-name="rcaron" unicode="&#x159;" horiz-adv-x="414" 
d="M46 0v15l97 14l-7 -8v478l7 -8l-97 14v15l105 5l5 -101l-4 3q43 47 86 74t95 27q32 0 66 -10l-5 -107h-17l-10 101l5 -8q-9 2 -18.5 3t-18.5 1q-49 0 -94 -28.5t-89 -76.5l4 11v-393l-7 8l117 -14v-15h-220zM351 768l12 -13l-122 -114h-15l-126 114l12 13l126 -104h-9z
" />
    <glyph glyph-name="uni0157" unicode="&#x157;" horiz-adv-x="414" 
d="M46 0v15l97 14l-7 -8v478l7 -8l-97 14v15l105 5l5 -101l-4 3q43 47 86 74t95 27q32 0 66 -10l-5 -107h-17l-10 101l5 -8q-9 2 -18.5 3t-18.5 1q-49 0 -94 -28.5t-89 -76.5l4 11v-393l-7 8l117 -14v-15h-220zM120 -230l-12 8q15 26 20 46.5t5 27.5q0 9 -4 14l-8 10t-4 15
q0 13 8 20t18 7t18 -7.5t8 -23.5q0 -17 -12.5 -48t-36.5 -69z" />
    <glyph glyph-name="uni0211" unicode="&#x211;" horiz-adv-x="414" 
d="M46 0v15l97 14l-7 -8v478l7 -8l-97 14v15l105 5l5 -101l-4 3q43 47 86 74t95 27q32 0 66 -10l-5 -107h-17l-10 101l5 -8q-9 2 -18.5 3t-18.5 1q-49 0 -94 -28.5t-89 -76.5l4 11v-393l-7 8l117 -14v-15h-220zM167 634l16 9l-61 129l-25 -14zM278 634l16 8l-58 130l-26 -13
z" />
    <glyph glyph-name="uni0213" unicode="&#x213;" horiz-adv-x="414" 
d="M46 0v15l97 14l-7 -8v478l7 -8l-97 14v15l105 5l5 -101l-4 3q43 47 86 74t95 27q32 0 66 -10l-5 -107h-17l-10 101l5 -8q-9 2 -18.5 3t-18.5 1q-49 0 -94 -28.5t-89 -76.5l4 11v-393l-7 8l117 -14v-15h-220zM232 727q32 0 55.5 -12t37.5 -34t15 -51l-18 -2q-4 35 -29 56
t-62 21t-60.5 -20.5t-26.5 -55.5l-18 -1q0 30 13 52t37 34.5t56 12.5z" />
    <glyph glyph-name="sacute" unicode="&#x15b;" horiz-adv-x="475" 
d="M96 400q0 -41 22.5 -64t58.5 -35.5t75.5 -22.5t75.5 -24.5t58.5 -40.5t22.5 -73q0 -49 -27.5 -81.5t-73 -48.5t-100.5 -16q-37 0 -70 5.5t-68 14.5l7 113h14l9 -108l-6 8q26 -6 57 -11t60 -5q50 0 90.5 14t64.5 42.5t24 69.5q0 43 -22.5 66.5t-58.5 37t-75.5 23.5
t-75.5 24t-58.5 39t-22.5 70t24.5 74t64.5 43t86 14q29 0 65.5 -6.5t73.5 -21.5l-3 -89h-15l-13 89l6 -10q-57 19 -116 19q-64 0 -109 -26t-45 -83zM201 634l-11 14l157 124l19 -26z" />
    <glyph glyph-name="scaron" unicode="&#x161;" horiz-adv-x="475" 
d="M96 400q0 -41 22.5 -64t58.5 -35.5t75.5 -22.5t75.5 -24.5t58.5 -40.5t22.5 -73q0 -49 -27.5 -81.5t-73 -48.5t-100.5 -16q-37 0 -70 5.5t-68 14.5l7 113h14l9 -108l-6 8q26 -6 57 -11t60 -5q50 0 90.5 14t64.5 42.5t24 69.5q0 43 -22.5 66.5t-58.5 37t-75.5 23.5
t-75.5 24t-58.5 39t-22.5 70t24.5 74t64.5 43t86 14q29 0 65.5 -6.5t73.5 -21.5l-3 -89h-15l-13 89l6 -10q-57 19 -116 19q-64 0 -109 -26t-45 -83zM368 768l12 -13l-122 -114h-15l-126 114l12 13l126 -104h-9z" />
    <glyph glyph-name="scedilla" unicode="&#x15f;" horiz-adv-x="475" 
d="M96 400q0 -41 22.5 -64t58.5 -35.5t75.5 -22.5t75.5 -24.5t58.5 -40.5t22.5 -73q0 -49 -27.5 -81.5t-73 -48.5t-100.5 -16q-37 0 -70 5.5t-68 14.5l7 113h14l9 -108l-6 8q26 -6 57 -11t60 -5q50 0 90.5 14t64.5 42.5t24 69.5q0 43 -22.5 66.5t-58.5 37t-75.5 23.5
t-75.5 24t-58.5 39t-22.5 70t24.5 74t64.5 43t86 14q29 0 65.5 -6.5t73.5 -21.5l-3 -89h-15l-13 89l6 -10q-57 19 -116 19q-64 0 -109 -26t-45 -83zM259 -212q-17 0 -36 4t-37 12l8 17q15 -6 32 -9.5t33 -3.5q29 0 49.5 13t20.5 38q0 17 -10.5 29t-32 18.5t-55.5 6.5l4 87
h19v-68q56 -4 76 -23.5t20 -46.5q0 -25 -12 -41.5t-32.5 -24.5t-46.5 -8z" />
    <glyph glyph-name="scircumflex" unicode="&#x15d;" horiz-adv-x="475" 
d="M96 400q0 -41 22.5 -64t58.5 -35.5t75.5 -22.5t75.5 -24.5t58.5 -40.5t22.5 -73q0 -49 -27.5 -81.5t-73 -48.5t-100.5 -16q-37 0 -70 5.5t-68 14.5l7 113h14l9 -108l-6 8q26 -6 57 -11t60 -5q50 0 90.5 14t64.5 42.5t24 69.5q0 43 -22.5 66.5t-58.5 37t-75.5 23.5
t-75.5 24t-58.5 39t-22.5 70t24.5 74t64.5 43t86 14q29 0 65.5 -6.5t73.5 -21.5l-3 -89h-15l-13 89l6 -10q-57 19 -116 19q-64 0 -109 -26t-45 -83zM128 637l-12 13l127 114h15l131 -114l-12 -13l-131 104h9z" />
    <glyph glyph-name="uni0219" unicode="&#x219;" horiz-adv-x="475" 
d="M96 400q0 -41 22.5 -64t58.5 -35.5t75.5 -22.5t75.5 -24.5t58.5 -40.5t22.5 -73q0 -49 -27.5 -81.5t-73 -48.5t-100.5 -16q-37 0 -70 5.5t-68 14.5l7 113h14l9 -108l-6 8q26 -6 57 -11t60 -5q50 0 90.5 14t64.5 42.5t24 69.5q0 43 -22.5 66.5t-58.5 37t-75.5 23.5
t-75.5 24t-58.5 39t-22.5 70t24.5 74t64.5 43t86 14q29 0 65.5 -6.5t73.5 -21.5l-3 -89h-15l-13 89l6 -10q-57 19 -116 19q-64 0 -109 -26t-45 -83zM218 -230l-12 8q15 26 20 46.5t5 27.5q0 9 -4 14l-8 10t-4 15q0 13 8 20t18 7t18 -7.5t8 -23.5q0 -17 -12.5 -48t-36.5 -69z
" />
    <glyph glyph-name="tbar" unicode="&#x167;" horiz-adv-x="340" 
d="M19 291v19h279v-19h-279zM207 -6q-37 0 -61 23.5t-24 73.5v419l7 -7h-110v14l110 5l-7 -7v127l20 1v-128l-7 7h160l-2 -19h-158l7 7v-416q0 -42 19 -61t50 -19q20 0 43 7t48 20l7 -16q-57 -31 -102 -31z" />
    <glyph glyph-name="tcaron" unicode="&#x165;" horiz-adv-x="328" 
d="M207 -6q-37 0 -61 23.5t-24 73.5v419l7 -7h-110v14l110 5l-7 -7v127l20 1v-128l-7 7h160l-2 -19h-158l7 7v-416q0 -42 19 -61t50 -19q20 0 43 7t48 20l7 -16q-57 -31 -102 -31zM243 586l-14 4q12 56 21 100.5t11 75.5l30 -3q-4 -29 -16.5 -73.5t-31.5 -103.5z" />
    <glyph glyph-name="uni0163" unicode="&#x163;" horiz-adv-x="328" 
d="M207 -6q-37 0 -61 23.5t-24 73.5v419l7 -7h-110v14l110 5l-7 -7v127l20 1v-128l-7 7h160l-2 -19h-158l7 7v-416q0 -42 19 -61t50 -19q20 0 43 7t48 20l7 -16q-57 -31 -102 -31zM197 -212q-17 0 -36 4t-37 12l8 17q15 -6 32 -9.5t33 -3.5q29 0 49.5 13t20.5 38
q0 17 -10.5 29t-32 18.5t-55.5 6.5l4 87h19v-68q56 -4 76 -23.5t20 -46.5q0 -25 -12 -41.5t-32.5 -24.5t-46.5 -8z" />
    <glyph glyph-name="uni021B" unicode="&#x21b;" horiz-adv-x="328" 
d="M207 -6q-37 0 -61 23.5t-24 73.5v419l7 -7h-110v14l110 5l-7 -7v127l20 1v-128l-7 7h160l-2 -19h-158l7 7v-416q0 -42 19 -61t50 -19q20 0 43 7t48 20l7 -16q-57 -31 -102 -31zM156 -230l-12 8q15 26 20 46.5t5 27.5q0 9 -4 14l-8 10t-4 15q0 13 8 20t18 7t18 -7.5
t8 -23.5q0 -17 -12.5 -48t-36.5 -69z" />
    <glyph glyph-name="uacute" unicode="&#xfa;" horiz-adv-x="608" 
d="M261 -6q-66 0 -107 39t-41 121v345l7 -8l-97 14v15l110 5v-366q0 -75 35 -110.5t94 -35.5q47 0 101.5 25.5t106.5 80.5l-4 -11v392l7 -9l-97 14v15l110 5v-502l-7 4l97 -10v-15l-105 -4l-5 100l4 -3q-50 -52 -105 -76.5t-104 -24.5zM244 634l-11 14l157 124l19 -26z" />
    <glyph glyph-name="ubreve" unicode="&#x16d;" horiz-adv-x="608" 
d="M261 -6q-66 0 -107 39t-41 121v345l7 -8l-97 14v15l110 5v-366q0 -75 35 -110.5t94 -35.5q47 0 101.5 25.5t106.5 80.5l-4 -11v392l7 -9l-97 14v15l110 5v-502l-7 4l97 -10v-15l-105 -4l-5 100l4 -3q-50 -52 -105 -76.5t-104 -24.5zM294 640q-31 0 -55 12t-38 34t-15 51
l18 2q4 -34 29 -55.5t62 -21.5t60.5 21t26.5 55l18 1q0 -29 -13 -51.5t-37 -35t-56 -12.5z" />
    <glyph glyph-name="ucircumflex" unicode="&#xfb;" horiz-adv-x="608" 
d="M261 -6q-66 0 -107 39t-41 121v345l7 -8l-97 14v15l110 5v-366q0 -75 35 -110.5t94 -35.5q47 0 101.5 25.5t106.5 80.5l-4 -11v392l7 -9l-97 14v15l110 5v-502l-7 4l97 -10v-15l-105 -4l-5 100l4 -3q-50 -52 -105 -76.5t-104 -24.5zM171 637l-12 13l127 114h15l131 -114
l-12 -13l-131 104h9z" />
    <glyph glyph-name="uni0215" unicode="&#x215;" horiz-adv-x="608" 
d="M261 -6q-66 0 -107 39t-41 121v345l7 -8l-97 14v15l110 5v-366q0 -75 35 -110.5t94 -35.5q47 0 101.5 25.5t106.5 80.5l-4 -11v392l7 -9l-97 14v15l110 5v-502l-7 4l97 -10v-15l-105 -4l-5 100l4 -3q-50 -52 -105 -76.5t-104 -24.5zM227 634l16 9l-61 129l-25 -14z
M338 634l16 8l-58 130l-26 -13z" />
    <glyph glyph-name="udieresis" unicode="&#xfc;" horiz-adv-x="608" 
d="M261 -6q-66 0 -107 39t-41 121v345l7 -8l-97 14v15l110 5v-366q0 -75 35 -110.5t94 -35.5q47 0 101.5 25.5t106.5 80.5l-4 -11v392l7 -9l-97 14v15l110 5v-502l-7 4l97 -10v-15l-105 -4l-5 100l4 -3q-50 -52 -105 -76.5t-104 -24.5zM381 663q-11 0 -18 8t-7 21
q0 14 7.5 22t17.5 8q11 0 18 -8t7 -22q0 -13 -7.5 -21t-17.5 -8zM204 663q-11 0 -18 8t-7 21q0 14 7.5 22t17.5 8q11 0 18 -8t7 -22q0 -13 -7.5 -21t-17.5 -8z" />
    <glyph glyph-name="uni1EE5" unicode="&#x1ee5;" horiz-adv-x="608" 
d="M261 -6q-66 0 -107 39t-41 121v345l7 -8l-97 14v15l110 5v-366q0 -75 35 -110.5t94 -35.5q47 0 101.5 25.5t106.5 80.5l-4 -11v392l7 -9l-97 14v15l110 5v-502l-7 4l97 -10v-15l-105 -4l-5 100l4 -3q-50 -52 -105 -76.5t-104 -24.5zM299 -143q-11 0 -18 8t-7 21
q0 14 7.5 22t18.5 8q12 0 19 -8t7 -22t-8 -21.5t-19 -7.5z" />
    <glyph glyph-name="ugrave" unicode="&#xf9;" horiz-adv-x="608" 
d="M261 -6q-66 0 -107 39t-41 121v345l7 -8l-97 14v15l110 5v-366q0 -75 35 -110.5t94 -35.5q47 0 101.5 25.5t106.5 80.5l-4 -11v392l7 -9l-97 14v15l110 5v-502l-7 4l97 -10v-15l-105 -4l-5 100l4 -3q-50 -52 -105 -76.5t-104 -24.5zM224 772l149 -125l-10 -13l-158 115z
" />
    <glyph glyph-name="uni1EE7" unicode="&#x1ee7;" horiz-adv-x="608" 
d="M261 -6q-66 0 -107 39t-41 121v345l7 -8l-97 14v15l110 5v-366q0 -75 35 -110.5t94 -35.5q47 0 101.5 25.5t106.5 80.5l-4 -11v392l7 -9l-97 14v15l110 5v-502l-7 4l97 -10v-15l-105 -4l-5 100l4 -3q-50 -52 -105 -76.5t-104 -24.5zM282 613v56q32 2 51 13t19 36
q0 23 -15 33t-39 10q-12 0 -26 -2t-28 -7l-5 16q14 6 29.5 9t30.5 3q32 0 54 -14.5t22 -45.5q0 -27 -18.5 -44t-54.5 -22v-41h-20z" />
    <glyph glyph-name="uhorn" unicode="&#x1b0;" horiz-adv-x="608" 
d="M261 -6q-66 0 -107 39t-41 121v345l7 -8l-97 14v15l110 5v-366q0 -75 35 -110.5t94 -35.5q47 0 101.5 25.5t106.5 80.5l-4 -11v392l7 -9l-97 14v15l110 5v-502l-7 4l97 -10v-15l-105 -4l-5 100l4 -3q-50 -52 -105 -76.5t-104 -24.5zM465 506v18q38 2 57 15.5t19 46.5
q0 26 -12 63l20 7q8 -20 11 -37.5t3 -32.5q0 -42 -26.5 -62.5t-71.5 -17.5z" />
    <glyph glyph-name="uni1EE9" unicode="&#x1ee9;" horiz-adv-x="608" 
d="M261 -6q-66 0 -107 39t-41 121v345l7 -8l-97 14v15l110 5v-366q0 -75 35 -110.5t94 -35.5q47 0 101.5 25.5t106.5 80.5l-4 -11v392l7 -9l-97 14v15l110 5v-502l-7 4l97 -10v-15l-105 -4l-5 100l4 -3q-50 -52 -105 -76.5t-104 -24.5zM465 506v18q38 2 57 15.5t19 46.5
q0 26 -12 63l20 7q8 -20 11 -37.5t3 -32.5q0 -42 -26.5 -62.5t-71.5 -17.5zM244 634l-11 14l157 124l19 -26z" />
    <glyph glyph-name="uni1EF1" unicode="&#x1ef1;" horiz-adv-x="608" 
d="M261 -6q-66 0 -107 39t-41 121v345l7 -8l-97 14v15l110 5v-366q0 -75 35 -110.5t94 -35.5q47 0 101.5 25.5t106.5 80.5l-4 -11v392l7 -9l-97 14v15l110 5v-502l-7 4l97 -10v-15l-105 -4l-5 100l4 -3q-50 -52 -105 -76.5t-104 -24.5zM465 506v18q38 2 57 15.5t19 46.5
q0 26 -12 63l20 7q8 -20 11 -37.5t3 -32.5q0 -42 -26.5 -62.5t-71.5 -17.5zM299 -143q-11 0 -18 8t-7 21q0 14 7.5 22t18.5 8q12 0 19 -8t7 -22t-8 -21.5t-19 -7.5z" />
    <glyph glyph-name="uni1EEB" unicode="&#x1eeb;" horiz-adv-x="608" 
d="M261 -6q-66 0 -107 39t-41 121v345l7 -8l-97 14v15l110 5v-366q0 -75 35 -110.5t94 -35.5q47 0 101.5 25.5t106.5 80.5l-4 -11v392l7 -9l-97 14v15l110 5v-502l-7 4l97 -10v-15l-105 -4l-5 100l4 -3q-50 -52 -105 -76.5t-104 -24.5zM465 506v18q38 2 57 15.5t19 46.5
q0 26 -12 63l20 7q8 -20 11 -37.5t3 -32.5q0 -42 -26.5 -62.5t-71.5 -17.5zM224 772l149 -125l-10 -13l-158 115z" />
    <glyph glyph-name="uni1EED" unicode="&#x1eed;" horiz-adv-x="608" 
d="M261 -6q-66 0 -107 39t-41 121v345l7 -8l-97 14v15l110 5v-366q0 -75 35 -110.5t94 -35.5q47 0 101.5 25.5t106.5 80.5l-4 -11v392l7 -9l-97 14v15l110 5v-502l-7 4l97 -10v-15l-105 -4l-5 100l4 -3q-50 -52 -105 -76.5t-104 -24.5zM465 506v18q38 2 57 15.5t19 46.5
q0 26 -12 63l20 7q8 -20 11 -37.5t3 -32.5q0 -42 -26.5 -62.5t-71.5 -17.5zM282 613v56q32 2 51 13t19 36q0 23 -15 33t-39 10q-12 0 -26 -2t-28 -7l-5 16q14 6 29.5 9t30.5 3q32 0 54 -14.5t22 -45.5q0 -27 -18.5 -44t-54.5 -22v-41h-20z" />
    <glyph glyph-name="uni1EEF" unicode="&#x1eef;" horiz-adv-x="608" 
d="M261 -6q-66 0 -107 39t-41 121v345l7 -8l-97 14v15l110 5v-366q0 -75 35 -110.5t94 -35.5q47 0 101.5 25.5t106.5 80.5l-4 -11v392l7 -9l-97 14v15l110 5v-502l-7 4l97 -10v-15l-105 -4l-5 100l4 -3q-50 -52 -105 -76.5t-104 -24.5zM465 506v18q38 2 57 15.5t19 46.5
q0 26 -12 63l20 7q8 -20 11 -37.5t3 -32.5q0 -42 -26.5 -62.5t-71.5 -17.5zM358 657q-26 0 -47.5 13t-42 26t-43.5 13q-18 0 -32.5 -11.5t-28.5 -37.5l-15 7q16 34 35.5 48.5t42.5 14.5q26 0 48 -13t43 -26t42 -13q18 0 33 11.5t29 38.5l15 -7q-16 -34 -35.5 -49t-43.5 -15z
" />
    <glyph glyph-name="uhungarumlaut" unicode="&#x171;" horiz-adv-x="608" 
d="M261 -6q-66 0 -107 39t-41 121v345l7 -8l-97 14v15l110 5v-366q0 -75 35 -110.5t94 -35.5q47 0 101.5 25.5t106.5 80.5l-4 -11v392l7 -9l-97 14v15l110 5v-502l-7 4l97 -10v-15l-105 -4l-5 100l4 -3q-50 -52 -105 -76.5t-104 -24.5zM355 634l-16 9l61 129l25 -14z
M244 634l-16 8l58 130l26 -13z" />
    <glyph glyph-name="uni0217" unicode="&#x217;" horiz-adv-x="608" 
d="M261 -6q-66 0 -107 39t-41 121v345l7 -8l-97 14v15l110 5v-366q0 -75 35 -110.5t94 -35.5q47 0 101.5 25.5t106.5 80.5l-4 -11v392l7 -9l-97 14v15l110 5v-502l-7 4l97 -10v-15l-105 -4l-5 100l4 -3q-50 -52 -105 -76.5t-104 -24.5zM292 727q32 0 55.5 -12t37.5 -34
t15 -51l-18 -2q-4 35 -29 56t-62 21t-60.5 -20.5t-26.5 -55.5l-18 -1q0 30 13 52t37 34.5t56 12.5z" />
    <glyph glyph-name="umacron" unicode="&#x16b;" horiz-adv-x="608" 
d="M261 -6q-66 0 -107 39t-41 121v345l7 -8l-97 14v15l110 5v-366q0 -75 35 -110.5t94 -35.5q47 0 101.5 25.5t106.5 80.5l-4 -11v392l7 -9l-97 14v15l110 5v-502l-7 4l97 -10v-15l-105 -4l-5 100l4 -3q-50 -52 -105 -76.5t-104 -24.5zM408 702v-21h-230v21h230z" />
    <glyph glyph-name="uogonek" unicode="&#x173;" horiz-adv-x="608" 
d="M261 -6q-66 0 -107 39t-41 121v345l7 -8l-97 14v15l110 5v-366q0 -75 35 -110.5t94 -35.5q47 0 101.5 25.5t106.5 80.5l-4 -11v392l7 -9l-97 14v15l110 5v-502l-7 4l97 -10v-15l-105 -4l-5 100l4 -3q-50 -52 -105 -76.5t-104 -24.5zM460 -216q-54 0 -82 25.5t-28 60.5
q0 26 15.5 53t46.5 51t77 40l7 -14q-63 -25 -94 -60t-31 -68q0 -28 24 -48.5t70 -20.5q9 0 18.5 1t19.5 3l4 -18q-13 -2 -24.5 -3.5t-22.5 -1.5z" />
    <glyph glyph-name="uring" unicode="&#x16f;" horiz-adv-x="608" 
d="M261 -6q-66 0 -107 39t-41 121v345l7 -8l-97 14v15l110 5v-366q0 -75 35 -110.5t94 -35.5q47 0 101.5 25.5t106.5 80.5l-4 -11v392l7 -9l-97 14v15l110 5v-502l-7 4l97 -10v-15l-105 -4l-5 100l4 -3q-50 -52 -105 -76.5t-104 -24.5zM292 632q-18 0 -35.5 7.5t-29 23
t-11.5 39.5t11 40t29 24.5t38 8.5q19 0 36 -7.5t28.5 -23t11.5 -39.5q0 -23 -11 -39.5t-28.5 -25t-38.5 -8.5zM293 650q26 0 41 15.5t15 38.5t-15 38t-41 15t-41 -15.5t-15 -38.5t15 -38t41 -15z" />
    <glyph glyph-name="utilde" unicode="&#x169;" horiz-adv-x="608" 
d="M261 -6q-66 0 -107 39t-41 121v345l7 -8l-97 14v15l110 5v-366q0 -75 35 -110.5t94 -35.5q47 0 101.5 25.5t106.5 80.5l-4 -11v392l7 -9l-97 14v15l110 5v-502l-7 4l97 -10v-15l-105 -4l-5 100l4 -3q-50 -52 -105 -76.5t-104 -24.5zM358 657q-26 0 -47.5 13t-42 26
t-43.5 13q-18 0 -32.5 -11.5t-28.5 -37.5l-15 7q16 34 35.5 48.5t42.5 14.5q26 0 48 -13t43 -26t42 -13q18 0 33 11.5t29 38.5l15 -7q-16 -34 -35.5 -49t-43.5 -15z" />
    <glyph glyph-name="wacute" unicode="&#x1e83;" horiz-adv-x="767" 
d="M582 520l190 5v-15l-77 -14l9 9l-148 -507h-24l-151 514h5l-155 -514h-24l-144 507l9 -10l-77 10v15l194 5v-15l-109 -13l5 8l137 -493h-4l150 510l30 4l149 -514h-5l141 492l6 -7l-107 8v15zM334 634l-11 14l157 124l19 -26z" />
    <glyph glyph-name="wcircumflex" unicode="&#x175;" horiz-adv-x="767" 
d="M582 520l190 5v-15l-77 -14l9 9l-148 -507h-24l-151 514h5l-155 -514h-24l-144 507l9 -10l-77 10v15l194 5v-15l-109 -13l5 8l137 -493h-4l150 510l30 4l149 -514h-5l141 492l6 -7l-107 8v15zM261 637l-12 13l127 114h15l131 -114l-12 -13l-131 104h9z" />
    <glyph glyph-name="wdieresis" unicode="&#x1e85;" horiz-adv-x="767" 
d="M582 520l190 5v-15l-77 -14l9 9l-148 -507h-24l-151 514h5l-155 -514h-24l-144 507l9 -10l-77 10v15l194 5v-15l-109 -13l5 8l137 -493h-4l150 510l30 4l149 -514h-5l141 492l6 -7l-107 8v15zM471 663q-11 0 -18 8t-7 21q0 14 7.5 22t17.5 8q11 0 18 -8t7 -22
q0 -13 -7.5 -21t-17.5 -8zM294 663q-11 0 -18 8t-7 21q0 14 7.5 22t17.5 8q11 0 18 -8t7 -22q0 -13 -7.5 -21t-17.5 -8z" />
    <glyph glyph-name="wgrave" unicode="&#x1e81;" horiz-adv-x="767" 
d="M582 520l190 5v-15l-77 -14l9 9l-148 -507h-24l-151 514h5l-155 -514h-24l-144 507l9 -10l-77 10v15l194 5v-15l-109 -13l5 8l137 -493h-4l150 510l30 4l149 -514h-5l141 492l6 -7l-107 8v15zM314 772l149 -125l-10 -13l-158 115z" />
    <glyph glyph-name="yacute" unicode="&#xfd;" horiz-adv-x="502" 
d="M21 -233l3 18q8 -1 14.5 -1.5t13.5 -0.5q55 0 88 27.5t55 80.5t44 129v-13l-182 496l9 -6l-72 8v15l190 5v-15l-110 -13l5 6l171 -474h-4l173 474l5 -5l-107 7v15l190 5v-15l-77 -13l9 6l-187 -508q-16 -44 -31 -85t-35 -74t-50.5 -52.5t-78.5 -19.5q-13 0 -36 3z
M199 634l-11 14l157 124l19 -26z" />
    <glyph glyph-name="ycircumflex" unicode="&#x177;" horiz-adv-x="502" 
d="M21 -233l3 18q8 -1 14.5 -1.5t13.5 -0.5q55 0 88 27.5t55 80.5t44 129v-13l-182 496l9 -6l-72 8v15l190 5v-15l-110 -13l5 6l171 -474h-4l173 474l5 -5l-107 7v15l190 5v-15l-77 -13l9 6l-187 -508q-16 -44 -31 -85t-35 -74t-50.5 -52.5t-78.5 -19.5q-13 0 -36 3z
M126 637l-12 13l127 114h15l131 -114l-12 -13l-131 104h9z" />
    <glyph glyph-name="ydieresis" unicode="&#xff;" horiz-adv-x="502" 
d="M21 -233l3 18q8 -1 14.5 -1.5t13.5 -0.5q55 0 88 27.5t55 80.5t44 129v-13l-182 496l9 -6l-72 8v15l190 5v-15l-110 -13l5 6l171 -474h-4l173 474l5 -5l-107 7v15l190 5v-15l-77 -13l9 6l-187 -508q-16 -44 -31 -85t-35 -74t-50.5 -52.5t-78.5 -19.5q-13 0 -36 3z
M336 663q-11 0 -18 8t-7 21q0 14 7.5 22t17.5 8q11 0 18 -8t7 -22q0 -13 -7.5 -21t-17.5 -8zM159 663q-11 0 -18 8t-7 21q0 14 7.5 22t17.5 8q11 0 18 -8t7 -22q0 -13 -7.5 -21t-17.5 -8z" />
    <glyph glyph-name="uni1EF5" unicode="&#x1ef5;" horiz-adv-x="512" 
d="M21 -233l3 18q8 -1 14.5 -1.5t13.5 -0.5q55 0 88 27.5t55 80.5t44 129v-13l-182 496l9 -6l-72 8v15l190 5v-15l-110 -13l5 6l171 -474h-4l173 474l5 -5l-107 7v15l190 5v-15l-77 -13l9 6l-187 -508q-16 -44 -31 -85t-35 -74t-50.5 -52.5t-78.5 -19.5q-13 0 -36 3z
M366 -143q-11 0 -18 8t-7 21q0 14 7.5 22t18.5 8q12 0 19 -8t7 -22t-8 -21.5t-19 -7.5z" />
    </font>
</defs>
</svg>
